<?xml version="1.0" encoding="UTF-8" standalone="no"?>
<svg width="65px" height="70px" viewBox="0 0 65 70" version="1.1" xmlns="http://www.w3.org/2000/svg" xmlns:xlink="http://www.w3.org/1999/xlink">
    <!-- Generator: Sketch 50.2 (55047) - http://www.bohemiancoding.com/sketch -->
    <title>supp-logo__creativeindustries</title>
    <desc>Created with Sketch.</desc>
    <defs>
        <polygon id="path-1" points="0 37.9938506 61.8713897 37.9938506 61.8713897 0 0 0"></polygon>
    </defs>
    <g id="supp-logo__creativeindustries" stroke="none" stroke-width="1" fill="none" fill-rule="evenodd">
        <g id="Group-9" transform="translate(1.000000, 1.000000)">
            <path d="M0.196698974,6.52280249 C0.196698974,4.54364896 1.82682205,2.92683568 3.85040667,2.92683568 C5.14318615,2.92683568 6.28144256,3.58198091 6.92783231,4.57155768 L5.24159128,5.75618008 C4.96052462,5.24057842 4.46865795,4.89211369 3.85040667,4.89211369 C2.97922718,4.89211369 2.33283744,5.56113444 2.33283744,6.52280249 C2.33283744,7.48447054 2.97922718,8.15349129 3.85040667,8.15349129 C4.46865795,8.15349129 4.96052462,7.80502656 5.24159128,7.2894249 L6.92783231,8.4740473 C6.28144256,9.46362407 5.14318615,10.1187693 3.85040667,10.1187693 C1.82682205,10.1187693 0.196698974,8.50195602 0.196698974,6.52280249" id="Fill-1" fill="#FFFFFF"></path>
            <path d="M11.2135903,4.98968382 C10.7780005,4.98968382 10.2721441,5.15697842 9.93480051,5.44962573 L9.93480051,10.0072606 L7.81281077,10.0072606 L7.81281077,3.038439 L9.93480051,3.038439 L9.93480051,3.65164232 C10.328421,3.1637917 10.8482672,2.92680415 11.5367851,2.92680415 C11.7615749,2.92680415 12.0286518,2.95471286 12.2957287,3.038439 L12.2957287,5.22651369 C11.9723749,5.05937676 11.5790723,4.98968382 11.2135903,4.98968382" id="Fill-3" fill="#FFFFFF"></path>
            <path d="M17.7059282,5.67259585 L17.6917795,5.58902739 C17.5512462,4.90613112 16.9471436,4.61332614 16.2866051,4.61332614 C15.7807487,4.61332614 15.0499436,4.8362805 14.8532923,5.67259585 L17.7059282,5.67259585 Z M12.7875795,6.52278672 C12.7875795,4.47394025 14.2490308,2.92681992 16.4131487,2.92681992 C18.1977949,2.92681992 19.7997795,4.08369129 19.7997795,6.28595685 C19.7997795,6.48100249 19.7856308,6.69008133 19.7574923,6.89916017 L14.8251538,6.89916017 C14.9375487,7.8329195 15.7244718,8.19541743 16.3568718,8.19541743 C17.1016667,8.19541743 17.5793846,7.8329195 17.8606103,7.31731784 L19.5466923,8.44612282 C18.9004615,9.44973278 17.7622051,10.1187535 16.3710205,10.1187535 C14.5161077,10.1187535 12.7875795,8.66923485 12.7875795,6.52278672 Z" id="Fill-5" fill="#FFFFFF"></path>
            <path d="M25.4627482,7.60998091 L25.4627482,5.43562407 C25.1816815,5.0594083 24.78822,4.85032946 24.2682149,4.85032946 C23.2565021,4.85032946 22.6522405,5.60291867 22.6522405,6.52280249 C22.6522405,7.44268631 23.2565021,8.19527552 24.2682149,8.19527552 C24.78822,8.19527552 25.1816815,7.98619668 25.4627482,7.60998091 M23.9168815,10.1187693 C21.837179,10.1187693 20.51642,8.43226307 20.51642,6.52280249 C20.51642,4.61334191 21.837179,2.92683568 23.9168815,2.92683568 C24.4930046,2.92683568 25.0552969,3.122039 25.4627482,3.45647054 L25.4627482,3.03831286 L27.5847379,3.03831286 L27.5847379,10.0072921 L25.4627482,10.0072921 L25.4627482,9.58913444 C25.0552969,9.92356598 24.4930046,10.1187693 23.9168815,10.1187693" id="Fill-7" fill="#FFFFFF"></path>
            <path d="M29.4956415,7.86081245 L29.4956415,4.87804896 L28.5823338,4.87804896 L28.1186056,3.038439 L29.4956415,3.038439 L29.4956415,1.99304481 L31.6176313,0.947808299 L31.6176313,3.038439 L33.8378672,3.038439 L33.374139,4.87804896 L31.6176313,4.87804896 L31.6176313,7.26148465 C31.6176313,7.84693693 31.8565697,8.08392448 32.4326928,8.08392448 L33.584939,8.08392448 L33.584939,10.0072606 L31.6456108,10.0072606 C30.3248518,10.0072606 29.4956415,9.18482075 29.4956415,7.86081245" id="Fill-9" fill="#FFFFFF"></path>
            <mask id="mask-2" fill="white">
                <use xlink:href="#path-1"></use>
            </mask>
            <g id="Clip-12"></g>
            <path d="M34.7789795,10.0072448 L36.9151179,10.0072448 L36.9151179,3.03842324 L34.7789795,3.03842324 L34.7789795,10.0072448 Z M35.8471282,0 C36.5496359,0 37.1117692,0.557543568 37.1117692,1.25431535 C37.1117692,1.56099585 37.0133641,1.83976763 36.8308615,2.04884647 L34.8635538,2.04884647 C34.6807333,1.83976763 34.5823282,1.56099585 34.5823282,1.25431535 C34.5823282,0.557543568 35.1444615,0 35.8471282,0 Z" id="Fill-11" fill="#FFFFFF" mask="url(#mask-2)"></path>
            <polygon id="Fill-13" fill="#FFFFFF" mask="url(#mask-2)" points="43.1402677 3.03836017 45.5852933 3.03836017 41.4959959 10.1186589 37.4068574 3.03836017 39.8518831 3.03836017 41.4959959 6.0767834"></polygon>
            <path d="M50.1522133,5.67259585 L50.1380646,5.58902739 C49.9975313,4.90613112 49.3934287,4.61332614 48.7328903,4.61332614 C48.2270338,4.61332614 47.4962287,4.8362805 47.2995774,5.67259585 L50.1522133,5.67259585 Z M45.2338646,6.52278672 C45.2338646,4.47394025 46.6953159,2.92681992 48.8594338,2.92681992 C50.64408,2.92681992 52.2460646,4.08369129 52.2460646,6.28595685 C52.2460646,6.48100249 52.2319159,6.69008133 52.2037774,6.89916017 L47.271439,6.89916017 C47.3838338,7.8329195 48.1707569,8.19541743 48.8031569,8.19541743 C49.5479518,8.19541743 50.0256697,7.8329195 50.3068954,7.31731784 L51.9929774,8.44612282 C51.3467467,9.44973278 50.2084903,10.1187535 48.8173056,10.1187535 C46.9623928,10.1187535 45.2338646,8.66923485 45.2338646,6.52278672 Z" id="Fill-14" fill="#FFFFFF" mask="url(#mask-2)"></path>
            <path d="M0.604261538,23.9445726 L2.7404,23.9445726 L2.7404,16.975751 L0.604261538,16.975751 L0.604261538,23.9445726 Z M1.67241026,13.9374855 C2.37475897,13.9374855 2.93705128,14.4948714 2.93705128,15.1918008 C2.93705128,15.4984813 2.83848718,15.7772531 2.65598462,15.9861743 L0.688676923,15.9861743 C0.506015385,15.7772531 0.407451282,15.4984813 0.407451282,15.1918008 C0.407451282,14.4948714 0.96974359,13.9374855 1.67241026,13.9374855 Z" id="Fill-15" fill="#FFFFFF" mask="url(#mask-2)"></path>
            <path d="M7.65855795,18.787673 C7.25110667,18.787673 6.74509128,18.9967519 6.39375795,19.3871585 L6.39375795,23.9446357 L4.27176821,23.9446357 L4.27176821,16.9758141 L6.39375795,16.9758141 L6.39375795,17.3939718 C6.81535795,17.0595402 7.39148103,16.8643369 8.00989128,16.8643369 C9.99118872,16.8643369 11.0731682,18.1744697 11.0731682,20.0560216 L11.0731682,23.9446357 L8.95133744,23.9446357 L8.95133744,20.432395 C8.95133744,19.498478 8.58601436,18.787673 7.65855795,18.787673" id="Fill-16" fill="#FFFFFF" mask="url(#mask-2)"></path>
            <path d="M17.1013805,21.5473245 L17.1013805,19.3731253 C16.8203138,18.9967519 16.4268523,18.787673 15.9068472,18.787673 C14.8951344,18.787673 14.2908728,19.5402622 14.2908728,20.4601461 C14.2908728,21.3800299 14.8951344,22.1327768 15.9068472,22.1327768 C16.4268523,22.1327768 16.8203138,21.9236979 17.1013805,21.5473245 M15.5555138,24.0561129 C13.4758113,24.0561129 12.1550523,22.3697643 12.1550523,20.4601461 C12.1550523,18.5508432 13.4758113,16.8643369 15.5555138,16.8643369 C16.1316369,16.8643369 16.6939292,17.0595402 17.1013805,17.3939718 L17.1013805,14.048868 L19.2233703,14.048868 L19.2233703,23.9446357 L17.1013805,23.9446357 L17.1013805,23.5266357 C16.6939292,23.8610672 16.1316369,24.0561129 15.5555138,24.0561129" id="Fill-17" fill="#FFFFFF" mask="url(#mask-2)"></path>
            <path d="M25.3501944,23.428971 C24.9285944,23.8192199 24.2680559,24.0562075 23.6777841,24.0562075 C21.7809021,24.0562075 20.6706251,22.7599502 20.6706251,20.8643651 L20.6706251,16.975751 L22.7926149,16.975751 L22.7926149,20.4881494 C22.7926149,21.4357842 23.1860764,22.1327137 24.0291174,22.1327137 C24.5491226,22.1327137 25.0689687,21.8818506 25.3501944,21.4219087 L25.3501944,16.975751 L27.4720251,16.975751 L27.4720251,23.9447303 L25.3501944,23.9447303 L25.3501944,23.428971 Z" id="Fill-18" fill="#FFFFFF" mask="url(#mask-2)"></path>
            <path d="M31.0832072,24.0561286 C29.8606944,24.0561286 28.8628123,23.6240954 28.2585508,22.5787012 L29.8745251,21.4915228 C30.1557508,21.9934066 30.5352226,22.3418714 31.1674636,22.3418714 C31.462679,22.3418714 31.7156072,22.2721784 31.7156072,22.0213154 C31.7156072,21.7564191 31.5187969,21.6728506 30.83012,21.4079544 L30.4647969,21.2685685 C29.2422841,20.7945934 28.6098841,20.0140954 28.6098841,19.0246763 C28.6098841,17.7424523 29.6778738,16.8643527 31.0269303,16.8643527 C31.9264072,16.8643527 32.7133303,17.1987842 33.2471662,17.9654066 L32.0388021,19.1501867 C31.7717251,18.7738133 31.462679,18.5229502 31.0269303,18.5229502 C30.7458636,18.5229502 30.5210738,18.6203942 30.5210738,18.8435062 C30.5210738,19.1221203 30.7458636,19.2056888 31.4485303,19.4707427 L31.7435867,19.5820622 C33.0786533,20.0839461 33.6266379,20.8086266 33.6266379,21.8399876 C33.6266379,23.2617552 32.51652,24.0561286 31.0832072,24.0561286" id="Fill-19" fill="#FFFFFF" mask="url(#mask-2)"></path>
            <path d="M35.0879938,21.7983137 L35.0879938,18.8155502 L34.1746862,18.8155502 L33.7109579,16.9757826 L35.0879938,16.9757826 L35.0879938,15.9305461 L37.2099836,14.8851519 L37.2099836,16.9757826 L39.4302195,16.9757826 L38.9664913,18.8155502 L37.2099836,18.8155502 L37.2099836,21.1988282 C37.2099836,21.7842805 37.4489221,22.021268 38.0250451,22.021268 L39.1772913,22.021268 L39.1772913,23.9446041 L37.2379631,23.9446041 C35.9172041,23.9446041 35.0879938,23.122322 35.0879938,21.7983137" id="Fill-20" fill="#FFFFFF" mask="url(#mask-2)"></path>
            <path d="M43.7722862,18.9271062 C43.3366964,18.9271062 42.83084,19.0944008 42.4934964,19.3870481 L42.4934964,23.944683 L40.3715067,23.944683 L40.3715067,16.9758614 L42.4934964,16.9758614 L42.4934964,17.5890647 C42.8871169,17.1012141 43.4069631,16.8642266 44.095481,16.8642266 C44.3202708,16.8642266 44.5873477,16.8921353 44.8544246,16.9758614 L44.8544246,19.1639361 C44.5310708,18.9967992 44.1377682,18.9271062 43.7722862,18.9271062" id="Fill-21" fill="#FFFFFF" mask="url(#mask-2)"></path>
            <path d="M45.7536154,23.9445726 L47.8897538,23.9445726 L47.8897538,16.975751 L45.7536154,16.975751 L45.7536154,23.9445726 Z M46.8216051,13.9374855 C47.5241128,13.9374855 48.0864051,14.4948714 48.0864051,15.1918008 C48.0864051,15.4984813 47.987841,15.7772531 47.8053385,15.9861743 L45.8380308,15.9861743 C45.6553692,15.7772531 45.5568051,15.4984813 45.5568051,15.1918008 C45.5568051,14.4948714 46.1190974,13.9374855 46.8216051,13.9374855 Z" id="Fill-22" fill="#FFFFFF" mask="url(#mask-2)"></path>
            <path d="M53.9318923,19.6100813 L53.9177436,19.5263552 C53.7772103,18.8434589 53.1731077,18.5508116 52.5125692,18.5508116 C52.0067128,18.5508116 51.2759077,18.773766 51.0792564,19.6100813 L53.9318923,19.6100813 Z M49.0135436,20.4602722 C49.0135436,18.4114257 50.4749949,16.8643054 52.6391128,16.8643054 C54.423759,16.8643054 56.0257436,18.0211768 56.0257436,20.2232846 C56.0257436,20.4183303 56.0115949,20.6275668 55.9834564,20.836488 L51.0511179,20.836488 C51.1635128,21.770405 51.9504359,22.1327452 52.5828359,22.1327452 C53.3276308,22.1327452 53.8053487,21.770405 54.0865744,21.2546456 L55.7726564,22.3836083 C55.1264256,23.3870606 53.9881692,24.0560813 52.5969846,24.0560813 C50.7420718,24.0560813 49.0135436,22.6065627 49.0135436,20.4602722 Z" id="Fill-23" fill="#FFFFFF" mask="url(#mask-2)"></path>
            <path d="M59.3280226,24.0561286 C58.1055097,24.0561286 57.1076277,23.6240954 56.5033662,22.5787012 L58.1193405,21.4915228 C58.4005662,21.9934066 58.7800379,22.3418714 59.412279,22.3418714 C59.7074944,22.3418714 59.9604226,22.2721784 59.9604226,22.0213154 C59.9604226,21.7564191 59.7636123,21.6728506 59.0749354,21.4079544 L58.7096123,21.2685685 C57.4870995,20.7945934 56.8546995,20.0140954 56.8546995,19.0246763 C56.8546995,17.7424523 57.9226892,16.8643527 59.2717456,16.8643527 C60.1712226,16.8643527 60.9581456,17.1987842 61.4919815,17.9654066 L60.2836174,19.1501867 C60.0165405,18.7738133 59.7074944,18.5229502 59.2717456,18.5229502 C58.990679,18.5229502 58.7658892,18.6203942 58.7658892,18.8435062 C58.7658892,19.1221203 58.990679,19.2056888 59.6933456,19.4707427 L59.9884021,19.5820622 C61.3234687,20.0839461 61.8714533,20.8086266 61.8714533,21.8399876 C61.8714533,23.2617552 60.7613354,24.0561286 59.3280226,24.0561286" id="Fill-24" fill="#FFFFFF" mask="url(#mask-2)"></path>
            <path d="M0.913482564,32.7532722 L1.58974362e-05,32.7532722 L1.58974362e-05,30.9135046 L1.02587744,30.9135046 C0.758800513,30.6069817 0.590287692,30.2026996 0.590287692,29.7566332 C0.590287692,28.7672141 1.32093385,27.9867162 2.48732872,27.9867162 L4.66543641,27.9867162 L4.66543641,29.8264838 L3.28824154,29.8264838 C2.79653385,29.8264838 2.59972359,30.0633137 2.59972359,30.3699942 C2.59972359,30.676517 2.83850308,30.9135046 3.14786718,30.9135046 L4.66543641,30.9135046 L4.66543641,32.7532722 L3.03547231,32.7532722 L3.03547231,37.8823261 L0.913482564,37.8823261 L0.913482564,32.7532722 Z" id="Fill-25" fill="#FFFFFF" mask="url(#mask-2)"></path>
            <path d="M10.174041,37.3666929 C9.75244103,37.7569419 9.09190256,37.9939295 8.50163077,37.9939295 C6.60474872,37.9939295 5.49447179,36.6976722 5.49447179,34.8020871 L5.49447179,30.913473 L7.61646154,30.913473 L7.61646154,34.4258714 C7.61646154,35.3735062 8.00992308,36.0704357 8.8529641,36.0704357 C9.37296923,36.0704357 9.89281538,35.8195726 10.174041,35.3596307 L10.174041,30.913473 L12.2958718,30.913473 L12.2958718,37.8824523 L10.174041,37.8824523 L10.174041,37.3666929 Z" id="Fill-26" fill="#FFFFFF" mask="url(#mask-2)"></path>
            <path d="M17.2140933,32.725395 C16.8066421,32.725395 16.3006267,32.9344739 15.9492933,33.3247228 L15.9492933,37.8823577 L13.8273036,37.8823577 L13.8273036,30.9135361 L15.9492933,30.9135361 L15.9492933,31.3316938 C16.3708933,30.9971046 16.9470164,30.8020589 17.5654267,30.8020589 C19.5467241,30.8020589 20.6287036,32.1121917 20.6287036,33.9937436 L20.6287036,37.8823577 L18.5068728,37.8823577 L18.5068728,34.370117 C18.5068728,33.4363577 18.1415497,32.725395 17.2140933,32.725395" id="Fill-27" fill="#FFFFFF" mask="url(#mask-2)"></path>
            <path d="M26.6569318,35.4850465 L26.6569318,33.3108473 C26.3758651,32.9344739 25.9824036,32.725395 25.4623985,32.725395 C24.4506856,32.725395 23.8464241,33.4779842 23.8464241,34.397868 C23.8464241,35.3177519 24.4506856,36.0704988 25.4623985,36.0704988 C25.9824036,36.0704988 26.3758651,35.8614199 26.6569318,35.4850465 M25.1110651,37.9938349 C23.0313626,37.9938349 21.7106036,36.3074863 21.7106036,34.397868 C21.7106036,32.4884075 23.0313626,30.8020589 25.1110651,30.8020589 C25.6871882,30.8020589 26.2494805,30.9971046 26.6569318,31.3316938 L26.6569318,27.98659 L28.7789215,27.98659 L28.7789215,37.8823577 L26.6569318,37.8823577 L26.6569318,37.4643577 C26.2494805,37.7987892 25.6871882,37.9938349 25.1110651,37.9938349" id="Fill-28" fill="#FFFFFF" mask="url(#mask-2)"></path>
            <polygon id="Fill-29" fill="#FFFFFF" mask="url(#mask-2)" points="41.9316651 37.9938506 35.6361215 32.7115353 35.6361215 37.8823734 33.3879062 37.8823734 33.3879062 27.8751286 39.6832908 33.157444 39.6832908 27.9866058 41.9316651 27.9866058"></polygon>
            <polygon id="Fill-30" fill="#FFFFFF" mask="url(#mask-2)" points="43.6879821 27.9866373 45.9503462 27.9866373 45.9503462 35.6662639 49.8146949 35.6662639 49.8146949 37.882405 43.6879821 37.882405"></polygon>
        </g>
    </g>
</svg>