<?xml version="1.0" encoding="UTF-8" standalone="no"?>
<!-- Created with Inkscape (http://www.inkscape.org/) -->

<svg
   xmlns:dc="http://purl.org/dc/elements/1.1/"
   xmlns:cc="http://creativecommons.org/ns#"
   xmlns:rdf="http://www.w3.org/1999/02/22-rdf-syntax-ns#"
   xmlns:svg="http://www.w3.org/2000/svg"
   xmlns="http://www.w3.org/2000/svg"
   xmlns:sodipodi="http://sodipodi.sourceforge.net/DTD/sodipodi-0.dtd"
   xmlns:inkscape="http://www.inkscape.org/namespaces/inkscape"
   width="120"
   height="42"
   id="svg2759"
   sodipodi:version="0.32"
   inkscape:version="0.92.2 (5c3e80d, 2017-08-06)"
   version="1.0"
   sodipodi:docname="cc-by-nc.svg"
   inkscape:output_extension="org.inkscape.output.svg.inkscape">
  <defs
     id="defs2761" />
  <sodipodi:namedview
     id="base"
     pagecolor="#ffffff"
     bordercolor="#8b8b8b"
     borderopacity="1"
     gridtolerance="10000"
     guidetolerance="10"
     objecttolerance="10"
     inkscape:pageopacity="0.0"
     inkscape:pageshadow="2"
     inkscape:zoom="5.6568542"
     inkscape:cx="58.073253"
     inkscape:cy="11.93159"
     inkscape:document-units="px"
     inkscape:current-layer="g325"
     width="120px"
     height="42px"
     inkscape:showpageshadow="false"
     inkscape:window-width="1920"
     inkscape:window-height="1007"
     inkscape:window-x="0"
     inkscape:window-y="34"
     showgrid="false"
     inkscape:window-maximized="1" />
  <metadata
     id="metadata2764">
    <rdf:RDF>
      <cc:Work
         rdf:about="">
        <dc:format>image/svg+xml</dc:format>
        <dc:type
           rdf:resource="http://purl.org/dc/dcmitype/StillImage" />
      </cc:Work>
    </rdf:RDF>
  </metadata>
  <g
     inkscape:label="Layer 1"
     inkscape:groupmode="layer"
     id="layer1">
    <g
       transform="matrix(0.9937808,0,0,0.9936927,-177.69414,-148.87729)"
       id="g325"
       inkscape:export-filename="/mnt/hgfs/Bov/Documents/Work/2007/cc/identity/srr buttons/big/by-nc.png"
       inkscape:export-xdpi="300.23013"
       inkscape:export-ydpi="300.23013">
      <g
         id="g5908_3_"
         transform="matrix(0.872921,0,0,0.872921,50.12536,143.2144)">
        <g
           id="g5706_3_"
           transform="translate(-289.6157,99.0653)">
          <path
             id="path5708_3_"
             d="M 473.88458,-81.77313 C 477.36999,-78.28775 479.11297,-74.01977 479.11297,-68.97098 C 479.11297,-63.92157 477.40014,-59.69895 473.9746,-56.30304 C 470.33929,-52.72702 466.04284,-50.93927 461.08517,-50.93927 C 456.18737,-50.93927 451.9653,-52.71191 448.42004,-56.25885 C 444.87423,-59.80411 443.10162,-64.04184 443.10162,-68.97098 C 443.10162,-73.89954 444.87423,-78.16693 448.42004,-81.77313 C 451.87524,-85.26022 456.09732,-87.00265 461.08517,-87.00265 C 466.13342,-87.00266 470.39917,-85.26022 473.88458,-81.77313 z M 450.7666,-79.42883 C 447.81982,-76.45245 446.34704,-72.96539 446.34704,-68.96649 C 446.34704,-64.96814 447.80529,-61.51126 450.72125,-58.5953 C 453.63781,-55.67935 457.10977,-54.22106 461.1383,-54.22106 C 465.16686,-54.22106 468.66851,-55.69332 471.64489,-58.64004 C 474.47076,-61.37591 475.88427,-64.8171 475.88427,-68.96649 C 475.88427,-73.08453 474.44781,-76.57944 471.57659,-79.45065 C 468.70598,-82.32132 465.22674,-83.7572 461.1383,-83.7572 C 457.04993,-83.7572 453.59192,-82.31406 450.7666,-79.42883 z M 458.52106,-70.72513 C 458.07077,-71.70737 457.39673,-72.19794 456.49784,-72.19794 C 454.9087,-72.19794 454.11439,-71.12787 454.11439,-68.98941 C 454.11439,-66.84985 454.9087,-65.78033 456.49784,-65.78033 C 457.54719,-65.78033 458.29676,-66.30111 458.74647,-67.34487 L 460.94926,-66.1719 C 459.89933,-64.30642 458.32417,-63.37341 456.22377,-63.37341 C 454.60384,-63.37341 453.30611,-63.87011 452.33168,-64.86297 C 451.35561,-65.85641 450.86897,-67.22573 450.86897,-68.97097 C 450.86897,-70.68597 451.37126,-72.04803 452.37645,-73.05599 C 453.38161,-74.06453 454.6335,-74.5685 456.13426,-74.5685 C 458.35438,-74.5685 459.9441,-73.69423 460.90507,-71.94622 L 458.52106,-70.72513 z M 468.8844,-70.72513 C 468.43353,-71.70737 467.77295,-72.19794 466.90204,-72.19794 C 465.28095,-72.19794 464.46991,-71.12787 464.46991,-68.98941 C 464.46991,-66.84985 465.28095,-65.78033 466.90204,-65.78033 C 467.95307,-65.78033 468.68921,-66.30111 469.10925,-67.34487 L 471.36126,-66.1719 C 470.31304,-64.30642 468.74011,-63.37341 466.64361,-63.37341 C 465.02587,-63.37341 463.73095,-63.87011 462.75714,-64.86297 C 461.78497,-65.85641 461.29773,-67.22573 461.29773,-68.97097 C 461.29773,-70.68597 461.79224,-72.04803 462.78064,-73.05599 C 463.76843,-74.06453 465.02588,-74.5685 466.55408,-74.5685 C 468.77027,-74.5685 470.35779,-73.69423 471.31543,-71.94622 L 468.8844,-70.72513 z" />
        </g>
      </g>
      <path
         style="stroke-width:0.99373674"
         d="M 2.2480469 0 C 1.0092196 0 0 1.0073763 0 2.2460938 L 0 41.492188 C 0 41.772148 0.22782472 42 0.5078125 42 L 119.49219 42 C 119.77218 42 120 41.772139 120 41.492188 L 120 2.2460938 C 120 1.0073763 118.99273 0 117.75391 0 L 2.2480469 0 z M 2.2480469 1.0136719 L 117.75391 1.0136719 C 118.43324 1.0136719 118.98438 1.5668054 118.98438 2.2460938 L 118.98438 29.455078 L 36.427734 29.455078 C 33.401751 34.926211 27.571409 38.640625 20.880859 38.640625 C 14.1874 38.640625 8.3604595 34.929123 5.3359375 29.455078 L 1.015625 29.455078 L 1.015625 2.2460938 C 1.015625 1.5668154 1.5687083 1.0136719 2.2480469 1.0136719 z M 94.832031 32.583984 C 95.196938 32.583984 95.540119 32.636379 95.865234 32.742188 C 96.189376 32.846992 96.482075 33.001286 96.738281 33.203125 C 96.995462 33.404 97.206122 33.652274 97.373047 33.949219 C 97.539972 34.246164 97.643833 34.587396 97.6875 34.970703 L 96.277344 34.970703 C 96.253095 34.803802 96.197747 34.650488 96.111328 34.511719 C 96.024969 34.371986 95.917156 34.249336 95.787109 34.144531 C 95.657063 34.039726 95.509717 33.956658 95.345703 33.898438 C 95.18169 33.839213 95.010604 33.810547 94.832031 33.810547 C 94.504004 33.810547 94.22513 33.872897 93.996094 34 C 93.767057 34.126149 93.581146 34.296271 93.439453 34.509766 C 93.296796 34.723251 93.193929 34.966566 93.128906 35.238281 C 93.063913 35.509997 93.03125 35.791883 93.03125 36.082031 C 93.03125 36.360534 93.063814 36.630561 93.128906 36.892578 C 93.1939 37.155559 93.296786 37.391953 93.439453 37.601562 C 93.581146 37.812136 93.767057 37.980299 93.996094 38.107422 C 94.22513 38.234545 94.504004 38.298828 94.832031 38.298828 C 95.27652 38.298828 95.624617 38.161351 95.875 37.888672 C 96.125383 37.616957 96.278671 37.257913 96.333984 36.8125 L 97.744141 36.8125 C 97.707271 37.22686 97.611336 37.601736 97.457031 37.935547 C 97.302727 38.270332 97.097045 38.555212 96.84375 38.791016 C 96.590455 39.026819 96.293763 39.205867 95.953125 39.330078 C 95.613451 39.45429 95.23964 39.517578 94.832031 39.517578 C 94.324468 39.517578 93.868552 39.428532 93.462891 39.251953 C 93.058193 39.076308 92.714084 38.832019 92.435547 38.523438 C 92.156046 38.213882 91.943413 37.850875 91.794922 37.433594 C 91.646441 37.015348 91.572266 36.565294 91.572266 36.082031 C 91.572266 35.587123 91.646441 35.129146 91.794922 34.705078 C 91.943403 34.28101 92.156046 33.911081 92.435547 33.595703 C 92.714074 33.280325 93.058193 33.033036 93.462891 32.853516 C 93.868552 32.673995 94.324468 32.583984 94.832031 32.583984 z M 56.875 32.748047 L 59.996094 32.748047 C 60.311987 32.748047 60.599283 32.774729 60.859375 32.830078 C 61.119467 32.885427 61.342963 32.976393 61.529297 33.103516 C 61.714657 33.229665 61.859035 33.399775 61.960938 33.609375 C 62.062838 33.819948 62.115234 34.079117 62.115234 34.388672 C 62.115234 34.722493 62.039055 35.000427 61.886719 35.222656 C 61.735326 35.44585 61.509852 35.626887 61.212891 35.769531 C 61.622438 35.886946 61.929003 36.092695 62.130859 36.386719 C 62.332716 36.680742 62.433594 37.034849 62.433594 37.449219 C 62.433594 37.78304 62.368357 38.071858 62.238281 38.316406 C 62.108235 38.55998 61.932218 38.759774 61.712891 38.914062 C 61.492589 39.069327 61.242374 39.184063 60.960938 39.257812 C 60.678525 39.332538 60.387779 39.369141 60.089844 39.369141 L 56.875 39.369141 L 56.875 32.748047 z M 62.691406 32.748047 L 64.324219 32.748047 L 65.875 35.363281 L 67.416016 32.748047 L 69.039062 32.748047 L 66.582031 36.828125 L 66.582031 39.369141 L 65.121094 39.369141 L 65.121094 36.791016 L 62.691406 32.748047 z M 84.984375 32.748047 L 86.433594 32.748047 L 89.201172 37.189453 L 89.216797 37.189453 L 89.216797 32.748047 L 90.582031 32.748047 L 90.582031 39.369141 L 89.125 39.369141 L 86.369141 34.935547 L 86.351562 34.935547 L 86.351562 39.369141 L 84.984375 39.369141 L 84.984375 32.748047 z M 58.333984 33.880859 L 58.333984 35.425781 L 59.810547 35.425781 C 60.070152 35.425781 60.28376 35.363472 60.451172 35.240234 C 60.618097 35.116997 60.701172 34.9162 60.701172 34.638672 C 60.701172 34.484381 60.674494 34.357783 60.619141 34.259766 C 60.562893 34.160794 60.487698 34.083627 60.394531 34.027344 C 60.301812 33.971995 60.195053 33.933484 60.074219 33.912109 C 59.953385 33.890745 59.829265 33.880859 59.699219 33.880859 L 58.333984 33.880859 z M 58.333984 36.419922 L 58.333984 38.236328 L 59.896484 38.236328 C 60.039142 38.236328 60.174154 38.221481 60.304688 38.193359 C 60.434245 38.165238 60.549447 38.118729 60.648438 38.054688 C 60.747416 37.9897 60.825566 37.902607 60.884766 37.791016 C 60.943995 37.680388 60.974609 37.537968 60.974609 37.365234 C 60.974609 37.02559 60.877684 36.782275 60.685547 36.636719 C 60.493389 36.492127 60.239721 36.419922 59.923828 36.419922 L 58.333984 36.419922 z "
         transform="matrix(1.0062581,0,0,1.0063473,178.80617,149.82226)"
         id="path332" />
      <g
         id="g6379_1_"
         transform="matrix(1.146822,0,0,1.146822,457.9375,166.153)">
        <path
           id="path6383_1_"
           d="M -162.89709,-11.26941 C -160.04528,-11.26941 -157.63372,-10.28589 -155.66412,-8.31925 C -153.69452,-6.35178 -152.70929,-3.94321 -152.70929,-1.09437 C -152.70929,1.75445 -153.67749,4.13704 -155.61304,6.05385 C -157.66779,8.07198 -160.09552,9.08022 -162.8971,9.08022 C -165.66544,9.08022 -168.0506,8.07967 -170.05428,6.07854 C -172.05794,4.07827 -173.05935,1.68672 -173.05935,-1.09437 C -173.05935,-3.87593 -172.05795,-6.28449 -170.05428,-8.31925 C -168.1017,-10.28589 -165.71568,-11.26941 -162.89709,-11.26941 z M -170.77042,-3.82825 C -171.07357,-2.96945 -171.22513,-2.05832 -171.22513,-1.09436 C -171.22513,1.16092 -170.40254,3.11054 -168.75568,4.7561 C -167.1088,6.40045 -165.14771,7.22345 -162.87156,7.22345 C -160.59623,7.22345 -158.61897,6.39276 -156.93803,4.73013 C -156.37516,4.18686 -155.91108,3.59335 -155.54747,2.95044 L -159.38365,1.24268 C -159.64339,2.53318 -160.79295,3.40473 -162.18352,3.5069 L -162.18352,5.07587 L -163.35182,5.07587 L -163.35182,3.5069 C -164.49374,3.49414 -165.59733,3.02707 -166.44035,2.28879 L -165.03958,0.87567 C -164.3643,1.51089 -163.68904,1.79617 -162.76768,1.79617 C -162.17073,1.79617 -161.5091,1.56241 -161.5091,0.78454 C -161.5091,0.50906 -161.6164,0.31747 -161.78412,0.17355 L -162.75403,-0.25901 L -163.96237,-0.79633 C -164.55929,-1.06287 -165.06511,-1.28727 -165.57347,-1.51377 L -170.77042,-3.82825 z M -162.87155,-9.43817 C -165.18092,-9.43817 -167.1335,-8.62451 -168.72928,-6.99597 C -169.16441,-6.5574 -169.54164,-6.0993 -169.86353,-5.62158 L -165.97286,-3.88955 C -165.62201,-4.96887 -164.59676,-5.62371 -163.35181,-5.69607 L -163.35181,-7.26504 L -162.18351,-7.26504 L -162.18351,-5.69607 C -161.37882,-5.65734 -160.49662,-5.43679 -159.62721,-4.76321 L -160.96412,-3.38885 C -161.45716,-3.7384 -162.07963,-3.98492 -162.70295,-3.98492 C -163.20875,-3.98492 -163.92236,-3.82992 -163.92236,-3.19513 C -163.92236,-3.09763 -163.89085,-3.01245 -163.83123,-2.93668 L -162.5301,-2.35764 L -161.64961,-1.96506 C -161.08674,-1.71344 -160.54857,-1.47501 -160.01552,-1.23743 L -154.80239,1.08343 C -154.62954,0.40093 -154.54354,-0.32544 -154.54354,-1.09437 C -154.54354,-3.41865 -155.35845,-5.38487 -156.9883,-6.99598 C -158.60193,-8.62451 -160.56302,-9.43817 -162.87155,-9.43817 z" />
      </g>
      <g
         id="g349">
        <g
           id="g353">
          <path
             d="M 245.68994,162.00928 C 245.68994,161.59278 245.35205,161.25537 244.93603,161.25537 L 240.16357,161.25537 C 239.74755,161.25537 239.40966,161.59277 239.40966,162.00928 L 239.40966,166.78223 L 240.74071,166.78223 L 240.74071,172.43409 L 244.3579,172.43409 L 244.3579,166.78223 L 245.68993,166.78223 L 245.68993,162.00928 L 245.68994,162.00928 z"
             id="path355" />
          <circle
             cx="242.5498"
             cy="158.99463"
             r="1.63232"
             id="circle357"
             sodipodi:cx="242.5498"
             sodipodi:cy="158.99463"
             sodipodi:rx="1.63232"
             sodipodi:ry="1.63232" />
        </g>
        <path
           clip-rule="evenodd"
           d="M 242.53467,153.22949 C 239.30322,153.22949 236.56641,154.35693 234.32715,156.61328 C 232.0293,158.94678 230.88086,161.70898 230.88086,164.89795 C 230.88086,168.08692 232.0293,170.82959 234.32715,173.12451 C 236.625,175.41894 239.36133,176.5664 242.53467,176.5664 C 245.74756,176.5664 248.53272,175.41015 250.88819,173.09521 C 253.10889,170.89794 254.21827,168.16552 254.21827,164.89794 C 254.21827,161.63036 253.08936,158.86913 250.83057,156.61327 C 248.57178,154.35693 245.80615,153.22949 242.53467,153.22949 z M 242.56396,155.3291 C 245.2124,155.3291 247.46142,156.26318 249.31103,158.12988 C 251.18115,159.97754 252.11572,162.2334 252.11572,164.89795 C 252.11572,167.58154 251.20068,169.80859 249.36963,171.57813 C 247.4419,173.48438 245.17334,174.43702 242.56397,174.43702 C 239.9546,174.43702 237.70557,173.49366 235.81739,171.60743 C 233.92774,169.72071 232.98389,167.48438 232.98389,164.89796 C 232.98389,162.31105 233.93799,160.05519 235.84619,158.12989 C 237.67676,156.26318 239.9165,155.3291 242.56396,155.3291 z"
           id="path359"
           style="fill-rule:evenodd" />
      </g>
    </g>
  </g>
</svg>
