<?xml version="1.0" encoding="UTF-8" standalone="no"?>
<!-- Created with Inkscape (http://www.inkscape.org/) -->

<svg
   xmlns:dc="http://purl.org/dc/elements/1.1/"
   xmlns:cc="http://creativecommons.org/ns#"
   xmlns:rdf="http://www.w3.org/1999/02/22-rdf-syntax-ns#"
   xmlns:svg="http://www.w3.org/2000/svg"
   xmlns="http://www.w3.org/2000/svg"
   xmlns:sodipodi="http://sodipodi.sourceforge.net/DTD/sodipodi-0.dtd"
   xmlns:inkscape="http://www.inkscape.org/namespaces/inkscape"
   version="1.1"
   id="svg2"
   xml:space="preserve"
   width="518.92133"
   height="321.28134"
   viewBox="0 0 518.92133 321.28134"
   sodipodi:docname="creative-industries-fund-NL.svg"
   inkscape:version="0.92.2 (5c3e80d, 2017-08-06)"><metadata
     id="metadata8"><rdf:RDF><cc:Work
         rdf:about=""><dc:format>image/svg+xml</dc:format><dc:type
           rdf:resource="http://purl.org/dc/dcmitype/StillImage" /><dc:title></dc:title></cc:Work></rdf:RDF></metadata><defs
     id="defs6"><clipPath
       clipPathUnits="userSpaceOnUse"
       id="clipPath18"><path
         d="M 0,240.961 H 389.191 V 0 H 0 Z"
         id="path16"
         inkscape:connector-curvature="0" /></clipPath></defs><sodipodi:namedview
     pagecolor="#ffffff"
     bordercolor="#666666"
     borderopacity="1"
     objecttolerance="10"
     gridtolerance="10"
     guidetolerance="10"
     inkscape:pageopacity="0"
     inkscape:pageshadow="2"
     inkscape:window-width="1631"
     inkscape:window-height="1007"
     id="namedview4"
     showgrid="false"
     inkscape:zoom="0.73455869"
     inkscape:cx="259.46066"
     inkscape:cy="160.64067"
     inkscape:window-x="0"
     inkscape:window-y="34"
     inkscape:window-maximized="0"
     inkscape:current-layer="g12" /><g
     id="g10"
     inkscape:groupmode="layer"
     inkscape:label="SCI_Woordbeeld_EN_3_regels_CMYK"
     transform="matrix(1.3333333,0,0,-1.3333333,0,321.28133)"><g
       id="g12"><path
         d="m 1.2373,199.5928 c 0,12.552 10.254,22.806 22.983,22.806 8.132,0 15.292,-4.155 19.358,-10.431 l -10.607,-7.513 c -1.768,3.27 -4.862,5.48 -8.751,5.48 -5.48,0 -9.546,-4.243 -9.546,-10.342 0,-6.099 4.066,-10.342 9.546,-10.342 3.889,0 6.983,2.21 8.751,5.48 l 10.607,-7.513 c -4.066,-6.276 -11.226,-10.431 -19.358,-10.431 -12.729,0 -22.983,10.254 -22.983,22.806"
         style="fill:#000000;fill-opacity:1;fill-rule:nonzero;stroke:none"
         id="path22"
         inkscape:connector-curvature="0" /><path
         d="m 70.5371,209.3159 c -2.74,0 -5.922,-1.061 -8.044,-2.917 v -28.905 h -13.348 v 44.197 h 13.348 v -3.889 c 2.476,3.094 5.746,4.597 10.077,4.597 1.414,0 3.094,-0.177 4.774,-0.708 v -13.877 c -2.034,1.06 -4.508,1.502 -6.807,1.502"
         style="fill:#000000;fill-opacity:1;fill-rule:nonzero;stroke:none"
         id="path26"
         inkscape:connector-curvature="0" /><path
         d="m 111.376,204.9849 -0.089,0.53 c -0.884,4.331 -4.684,6.188 -8.839,6.188 -3.182,0 -7.779,-1.414 -9.016,-6.718 z m -30.938,-5.392 c 0,12.994 9.193,22.806 22.806,22.806 11.226,0 21.303,-7.337 21.303,-21.304 0,-1.237 -0.089,-2.563 -0.266,-3.889 H 93.255 c 0.707,-5.922 5.657,-8.221 9.635,-8.221 4.685,0 7.69,2.299 9.459,5.569 l 10.606,-7.159 c -4.065,-6.365 -11.225,-10.608 -19.976,-10.608 -11.668,0 -22.541,9.193 -22.541,22.806"
         style="fill:#000000;fill-opacity:1;fill-rule:nonzero;stroke:none"
         id="path30"
         inkscape:connector-curvature="0" /><path
         d="m 160.1689,192.6978 v 13.79 c -1.768,2.386 -4.243,3.712 -7.514,3.712 -6.364,0 -10.165,-4.773 -10.165,-10.607 0,-5.834 3.801,-10.607 10.165,-10.607 3.271,0 5.746,1.326 7.514,3.712 m -9.724,-15.911 c -13.082,0 -21.39,10.696 -21.39,22.806 0,12.11 8.308,22.806 21.39,22.806 3.624,0 7.161,-1.238 9.724,-3.359 v 2.652 h 13.348 v -44.198 h -13.348 v 2.652 c -2.563,-2.121 -6.1,-3.359 -9.724,-3.359"
         style="fill:#000000;fill-opacity:1;fill-rule:nonzero;stroke:none"
         id="path34"
         inkscape:connector-curvature="0" /><path
         d="m 185.5371,191.1069 v 18.917 h -5.745 l -2.917,11.667 h 8.662 v 6.63 l 13.348,6.629 v -13.259 h 13.966 l -2.917,-11.667 h -11.049 v -15.116 c 0,-3.713 1.503,-5.216 5.127,-5.216 h 7.248 v -12.198 h -12.199 c -8.308,0 -13.524,5.216 -13.524,13.613"
         style="fill:#000000;fill-opacity:1;fill-rule:nonzero;stroke:none"
         id="path38"
         inkscape:connector-curvature="0" /><path
         inkscape:connector-curvature="0"
         id="path40"
         style="fill:#000000;fill-opacity:1;fill-rule:nonzero;stroke:none"
         d="m 218.771,221.691 h 13.437 v -44.197 h -13.437 z m 6.719,19.27 c 4.419,0 7.955,-3.536 7.955,-7.955 0,-1.945 -0.619,-3.713 -1.767,-5.039 h -12.375 c -1.15,1.326 -1.769,3.094 -1.769,5.039 0,4.419 3.536,7.955 7.956,7.955" /><path
         d="m 271.3662,221.6914 h 15.38 l -25.723,-44.904 -25.722,44.904 h 15.38 l 10.342,-19.27 z"
         style="fill:#000000;fill-opacity:1;fill-rule:nonzero;stroke:none"
         id="path44"
         inkscape:connector-curvature="0" /><path
         d="m 315.4736,204.9849 -0.089,0.53 c -0.884,4.331 -4.684,6.188 -8.839,6.188 -3.182,0 -7.779,-1.414 -9.016,-6.718 z m -30.938,-5.392 c 0,12.994 9.193,22.806 22.806,22.806 11.226,0 21.303,-7.337 21.303,-21.304 0,-1.237 -0.089,-2.563 -0.266,-3.889 h -31.026 c 0.707,-5.922 5.657,-8.221 9.635,-8.221 4.685,0 7.69,2.299 9.459,5.569 l 10.606,-7.159 c -4.065,-6.365 -11.225,-10.608 -19.976,-10.608 -11.668,0 -22.541,9.193 -22.541,22.806"
         style="fill:#000000;fill-opacity:1;fill-rule:nonzero;stroke:none"
         id="path48"
         inkscape:connector-curvature="0" /><path
         inkscape:connector-curvature="0"
         id="path50"
         style="fill:#000000;fill-opacity:1;fill-rule:nonzero;stroke:none"
         d="M 3.801,133.299 H 17.238 V 89.102 H 3.801 Z m 6.719,19.269 c 4.418,0 7.955,-3.535 7.955,-7.955 0,-1.945 -0.62,-3.713 -1.768,-5.038 H 4.332 c -1.149,1.325 -1.769,3.093 -1.769,5.038 0,4.42 3.537,7.955 7.957,7.955" /><path
         d="m 48.1748,121.8076 c -2.563,0 -5.746,-1.326 -7.956,-3.801 v -28.905 h -13.348 v 44.197 h 13.348 v -2.652 c 2.652,2.121 6.276,3.359 10.166,3.359 12.463,0 19.269,-8.309 19.269,-20.242 v -24.662 h -13.347 v 22.275 c 0,5.923 -2.298,10.431 -8.132,10.431"
         style="fill:#000000;fill-opacity:1;fill-rule:nonzero;stroke:none"
         id="path54"
         inkscape:connector-curvature="0" /><path
         d="m 107.5732,104.3057 v 13.789 c -1.768,2.387 -4.243,3.713 -7.514,3.713 -6.364,0 -10.165,-4.773 -10.165,-10.607 0,-5.834 3.801,-10.608 10.165,-10.608 3.271,0 5.746,1.326 7.514,3.713 m -9.724,-15.911 c -13.082,0 -21.39,10.695 -21.39,22.806 0,12.109 8.308,22.805 21.39,22.805 3.624,0 7.161,-1.238 9.724,-3.359 v 21.215 h 13.348 v -62.76 h -13.348 v 2.651 c -2.563,-2.121 -6.1,-3.358 -9.724,-3.358"
         style="fill:#000000;fill-opacity:1;fill-rule:nonzero;stroke:none"
         id="path58"
         inkscape:connector-curvature="0" /><path
         d="m 159.4609,92.3721 c -2.652,-2.475 -6.807,-3.978 -10.52,-3.978 -11.932,0 -18.916,8.221 -18.916,20.243 v 24.662 h 13.348 v -22.276 c 0,-6.01 2.475,-10.43 7.778,-10.43 3.271,0 6.541,1.591 8.31,4.508 v 28.198 h 13.347 v -44.198 h -13.347 z"
         style="fill:#000000;fill-opacity:1;fill-rule:nonzero;stroke:none"
         id="path62"
         inkscape:connector-curvature="0" /><path
         d="m 195.5234,88.3945 c -7.69,0 -13.967,2.74 -17.768,9.37 l 10.165,6.895 c 1.769,-3.183 4.156,-5.393 8.133,-5.393 1.857,0 3.448,0.442 3.448,2.033 0,1.68 -1.238,2.21 -5.57,3.89 l -2.298,0.884 c -7.69,3.006 -11.668,7.955 -11.668,14.231 0,8.132 6.718,13.701 15.204,13.701 5.658,0 10.608,-2.121 13.966,-6.983 l -7.601,-7.513 c -1.68,2.386 -3.624,3.977 -6.365,3.977 -1.768,0 -3.182,-0.618 -3.182,-2.033 0,-1.767 1.414,-2.298 5.834,-3.977 l 1.856,-0.707 c 8.398,-3.183 11.845,-7.779 11.845,-14.32 0,-9.017 -6.983,-14.055 -15.999,-14.055"
         style="fill:#000000;fill-opacity:1;fill-rule:nonzero;stroke:none"
         id="path66"
         inkscape:connector-curvature="0" /><path
         d="m 220.7148,102.7139 v 18.917 h -5.745 l -2.917,11.668 h 8.662 v 6.629 l 13.348,6.63 v -13.259 h 13.966 l -2.917,-11.668 h -11.049 v -15.115 c 0,-3.713 1.503,-5.216 5.127,-5.216 h 7.248 v -12.198 h -12.199 c -8.308,0 -13.524,5.215 -13.524,13.612"
         style="fill:#000000;fill-opacity:1;fill-rule:nonzero;stroke:none"
         id="path70"
         inkscape:connector-curvature="0" /><path
         d="m 275.3418,120.9233 c -2.74,0 -5.922,-1.061 -8.044,-2.917 v -28.905 h -13.348 v 44.197 h 13.348 v -3.889 c 2.476,3.094 5.746,4.597 10.077,4.597 1.414,0 3.094,-0.177 4.774,-0.708 v -13.877 c -2.034,1.06 -4.508,1.502 -6.807,1.502"
         style="fill:#000000;fill-opacity:1;fill-rule:nonzero;stroke:none"
         id="path74"
         inkscape:connector-curvature="0" /><path
         inkscape:connector-curvature="0"
         id="path76"
         style="fill:#000000;fill-opacity:1;fill-rule:nonzero;stroke:none"
         d="m 287.805,133.299 h 13.437 V 89.102 h -13.437 z m 6.718,19.269 c 4.419,0 7.956,-3.535 7.956,-7.955 0,-1.945 -0.62,-3.713 -1.768,-5.038 h -12.375 c -1.149,1.325 -1.769,3.093 -1.769,5.038 0,4.42 3.537,7.955 7.956,7.955" /><path
         d="m 339.249,116.5923 -0.089,0.53 c -0.884,4.331 -4.684,6.188 -8.839,6.188 -3.182,0 -7.779,-1.414 -9.016,-6.718 z m -30.938,-5.392 c 0,12.994 9.193,22.806 22.806,22.806 11.226,0 21.303,-7.337 21.303,-21.304 0,-1.237 -0.089,-2.563 -0.266,-3.889 h -31.026 c 0.707,-5.923 5.657,-8.221 9.635,-8.221 4.685,0 7.69,2.298 9.459,5.57 l 10.606,-7.16 c -4.065,-6.365 -11.225,-10.608 -19.976,-10.608 -11.668,0 -22.541,9.194 -22.541,22.806"
         style="fill:#000000;fill-opacity:1;fill-rule:nonzero;stroke:none"
         id="path80"
         inkscape:connector-curvature="0" /><path
         d="m 373.1924,88.3945 c -7.69,0 -13.967,2.74 -17.768,9.37 l 10.165,6.895 c 1.769,-3.183 4.156,-5.393 8.133,-5.393 1.857,0 3.448,0.442 3.448,2.033 0,1.68 -1.238,2.21 -5.57,3.89 l -2.298,0.884 c -7.69,3.006 -11.668,7.955 -11.668,14.231 0,8.132 6.718,13.701 15.204,13.701 5.658,0 10.608,-2.121 13.966,-6.983 l -7.601,-7.513 c -1.68,2.386 -3.624,3.977 -6.365,3.977 -1.768,0 -3.182,-0.618 -3.182,-2.033 0,-1.767 1.414,-2.298 5.834,-3.977 l 1.856,-0.707 c 8.398,-3.183 11.845,-7.779 11.845,-14.32 0,-9.017 -6.983,-14.055 -15.999,-14.055"
         style="fill:#000000;fill-opacity:1;fill-rule:nonzero;stroke:none"
         id="path84"
         inkscape:connector-curvature="0" /><path
         d="M 5.7461,33.2363 H 10e-5 v 11.668 h 6.453 c -1.68,1.944 -2.74,4.508 -2.74,7.337 0,6.275 4.596,11.225 11.933,11.225 h 13.701 v -11.667 h -8.663 c -3.093,0 -4.331,-1.503 -4.331,-3.448 0,-1.944 1.502,-3.447 3.448,-3.447 h 9.546 V 33.2363 H 19.0941 V 0.7073 H 5.7461 Z"
         style="fill:#000000;fill-opacity:1;fill-rule:nonzero;stroke:none"
         id="path88"
         inkscape:connector-curvature="0" /><path
         d="m 63.998,3.9775 c -2.652,-2.475 -6.807,-3.978 -10.52,-3.978 -11.932,0 -18.916,8.221 -18.916,20.243 v 24.662 H 47.91 v -22.276 c 0,-6.01 2.475,-10.43 7.778,-10.43 3.271,0 6.541,1.591 8.31,4.508 v 28.198 H 77.345 V 0.7065 H 63.998 Z"
         style="fill:#000000;fill-opacity:1;fill-rule:nonzero;stroke:none"
         id="path92"
         inkscape:connector-curvature="0" /><path
         d="m 108.2822,33.4131 c -2.563,0 -5.746,-1.326 -7.956,-3.801 V 0.7071 h -13.348 v 44.197 h 13.348 v -2.652 c 2.652,2.122 6.276,3.359 10.166,3.359 12.463,0 19.269,-8.309 19.269,-20.242 V 0.7071 h -13.347 v 22.275 c 0,5.922 -2.298,10.431 -8.132,10.431"
         style="fill:#000000;fill-opacity:1;fill-rule:nonzero;stroke:none"
         id="path96"
         inkscape:connector-curvature="0" /><path
         d="m 167.6807,15.9111 v 13.789 c -1.768,2.387 -4.243,3.713 -7.514,3.713 -6.364,0 -10.165,-4.773 -10.165,-10.607 0,-5.834 3.801,-10.608 10.165,-10.608 3.271,0 5.746,1.326 7.514,3.713 m -9.724,-15.911 c -13.082,0 -21.39,10.695 -21.39,22.806 0,12.11 8.308,22.805 21.39,22.805 3.624,0 7.161,-1.237 9.724,-3.359 v 21.215 h 13.348 v -62.76 h -13.348 v 2.651 c -2.563,-2.121 -6.1,-3.358 -9.724,-3.358"
         style="fill:#000000;fill-opacity:1;fill-rule:nonzero;stroke:none"
         id="path100"
         inkscape:connector-curvature="0" /><path
         d="m 263.7637,0 -39.601,33.501 V 0.707 h -14.142 v 63.467 l 39.6,-33.501 v 32.794 h 14.143 z"
         style="fill:#000000;fill-opacity:1;fill-rule:nonzero;stroke:none"
         id="path104"
         inkscape:connector-curvature="0" /><path
         d="m 274.8115,63.4668 h 14.231 v -48.705 h 24.308 V 0.7068 h -38.539 z"
         style="fill:#000000;fill-opacity:1;fill-rule:nonzero;stroke:none"
         id="path108"
         inkscape:connector-curvature="0" /></g></g></svg>