<?xml version="1.0" encoding="UTF-8" standalone="no"?>
<!-- Created with Inkscape (http://www.inkscape.org/) -->

<svg
   xmlns:dc="http://purl.org/dc/elements/1.1/"
   xmlns:cc="http://creativecommons.org/ns#"
   xmlns:rdf="http://www.w3.org/1999/02/22-rdf-syntax-ns#"
   xmlns:svg="http://www.w3.org/2000/svg"
   xmlns="http://www.w3.org/2000/svg"
   xmlns:sodipodi="http://sodipodi.sourceforge.net/DTD/sodipodi-0.dtd"
   xmlns:inkscape="http://www.inkscape.org/namespaces/inkscape"
   version="1.1"
   id="svg2"
   xml:space="preserve"
   width="1094.6667"
   height="1137.3333"
   viewBox="0 0 1094.6667 1137.3333"
   sodipodi:docname="Lautreamont_by_Vallotton.svg"
   inkscape:version="0.92.2 (5c3e80d, 2017-08-06)"><metadata
     id="metadata8"><rdf:RDF><cc:Work
         rdf:about=""><dc:format>image/svg+xml</dc:format><dc:type
           rdf:resource="http://purl.org/dc/dcmitype/StillImage" /><dc:title></dc:title></cc:Work></rdf:RDF></metadata><defs
     id="defs6"><clipPath
       clipPathUnits="userSpaceOnUse"
       id="clipPath18"><path
         d="M 0,853 H 821 V 0 H 0 Z"
         id="path16"
         inkscape:connector-curvature="0" /></clipPath></defs><sodipodi:namedview
     pagecolor="#ffffff"
     bordercolor="#666666"
     borderopacity="1"
     objecttolerance="10"
     gridtolerance="10"
     guidetolerance="10"
     inkscape:pageopacity="0"
     inkscape:pageshadow="2"
     inkscape:window-width="1338"
     inkscape:window-height="1000"
     id="namedview4"
     showgrid="false"
     inkscape:zoom="0.41500589"
     inkscape:cx="801.75626"
     inkscape:cy="608.43433"
     inkscape:window-x="0"
     inkscape:window-y="34"
     inkscape:window-maximized="0"
     inkscape:current-layer="g10" /><g
     id="g10"
     inkscape:groupmode="layer"
     inkscape:label="Lautreamont_by_Vallotton"
     transform="matrix(1.3333333,0,0,-1.3333333,0,1137.3333)"><path
       inkscape:connector-curvature="0"
       id="path26"
       style="fill:#020202;fill-opacity:1;fill-rule:nonzero;stroke:none"
       d="m 556.6899,747.3899 c 2.57,-0.28 -0.81,-3.65 -1.08,-1.08 0.27,0.27 0.81,0.81 1.08,1.08" /><path
       inkscape:connector-curvature="0"
       id="path30"
       style="fill:#020202;fill-opacity:1;fill-rule:nonzero;stroke:none"
       d="m 212.73,682.29 c 1.59,1.19 2.76,-1.57 1.54,-2.58 -1.59,-1.19 -2.77,1.58 -1.54,2.58" /><path
       inkscape:connector-curvature="0"
       id="path34"
       style="fill:#020202;fill-opacity:1;fill-rule:nonzero;stroke:none"
       d="m 148.6899,619.1602 c 1.19,0.62 2.47,-1.36 1.62,-2.32 -1.2,-0.61 -2.47,1.36 -1.62,2.32" /><path
       inkscape:connector-curvature="0"
       id="path42"
       style="fill:#020202;fill-opacity:1;fill-rule:nonzero;stroke:none"
       d="m 755.9302,516.3501 0.65,0.57 c 1.21,-1.41 2.25,-2.96 3.29,-4.51 -1.27,-2.13 -4.77,-2.88 -6.28,-0.66 -0.7,2.07 0.88,3.45 2.34,4.6" /><path
       inkscape:connector-curvature="0"
       id="path46"
       style="fill:#020202;fill-opacity:1;fill-rule:nonzero;stroke:none"
       d="m 230.73,400.3901 0.77,0.38 0.77,-0.38 v -0.78 l -0.77,-0.38 -0.77,0.38 z" /><path
       inkscape:connector-curvature="0"
       id="path54"
       style="fill:#020202;fill-opacity:1;fill-rule:nonzero;stroke:none"
       d="m 275.6802,384.27 c 2.03,0.52 4.13,0.21 5.24,-1.75 -0.88,-0.97 -1.77,-1.94 -2.73,-2.84 -1.12,-0.06 -2.24,-0.01 -3.35,0.14 0.3,1.33 -1.05,4.36 0.84,4.45" /><path
       inkscape:connector-curvature="0"
       id="path62"
       style="fill:#020202;fill-opacity:1;fill-rule:nonzero;stroke:none"
       d="m 458.71,374.2998 c 1.38,0.08 1.38,-2.66 0,-2.6 -1.39,0.3 -1.39,2.32 0,2.6" /><path
       inkscape:connector-curvature="0"
       id="path74"
       style="fill:#020202;fill-opacity:1;fill-rule:nonzero;stroke:none"
       d="m 329.9702,174 c 6.7,1.21 13.12,-1.65 19.52,-3.12 5.14,0.02 12.7,1.67 16.1,-3.37 -6.07,0.47 -12.02,2.66 -18.15,1.14 -4.66,-0.67 -9.25,0.43 -13.82,1.1 -3.57,0.69 -7.22,0.05 -10.82,0.18 -3.75,0.24 -7.5,0.44 -11.25,0.61 0,0.47 0.01,1.41 0.01,1.89 4.14,-0.71 8.21,1.46 12.31,0.52 2.1,-0.54 4.06,0.71 6.1,1.05" /><path
       inkscape:connector-curvature="0"
       id="path78"
       style="fill:#020202;fill-opacity:1;fill-rule:nonzero;stroke:none"
       d="m 712.7002,234.8799 c -0.53,-0.12 -1.59,-0.37 -2.11,-0.5 0.42,-2.28 2.57,-4.13 1.84,-6.65 -2.76,-2.89 -7.19,-1.35 -10.58,-2.4 -1.55,-0.63 -1.47,-2.22 -1.34,-3.63 1.79,-1.06 3.82,-1.59 5.67,-2.55 0.52,-1.12 2.13,-2.88 0.65,-3.94 -2.13,-2.54 -6.16,-2.21 -8.05,-5 -2.09,-3.6 -1.07,-8.08 -3.3,-11.61 2.11,-1.87 5.08,-0.53 7.55,-1.61 2.31,-0.44 4.4,-1.59 6.63,-2.31 9.12,1.17 18.63,-1.99 27.51,1.13 2.11,1.69 4.33,3.67 4.32,6.71 3.01,8.18 3.28,17.07 2.92,25.67 -3.34,2.64 -7.12,4.76 -11.13,6.15 -6.89,-0.1 -13.73,1.36 -20.58,0.54 m -22.98,3.58 c -3.24,-4.28 -3.54,-9.88 -4.12,-15.02 -0.24,-6.82 -1.67,-13.87 0.15,-20.62 1.65,-2.59 4.89,-2.92 7.65,-3.44 -1.09,2.27 -3.36,4.31 -2.84,7.04 1.18,7.14 0.6,14.42 1.49,21.58 0.86,3.09 1.9,6.16 2.36,9.33 -1.5,0.6 -3.04,1.36 -4.69,1.13 m 36.14,137.74 c -2.46,-1.6 -5.13,-2.93 -7.27,-4.94 -0.36,-5.83 5.88,-8.75 9.43,-12.23 1.94,-2.72 3.52,-5.64 5.46,-8.41 2.7,1.75 5.61,2.76 9.03,2.06 -0.02,3.12 -2.05,5.79 -3.36,8.47 -4.48,4.92 -8.3,10.4 -12.64,15.41 z m 13.88,18.15 c -2.2,-1.85 -3.29,-4.88 -3.15,-7.7 1.27,-4.45 3.71,-8.44 5.23,-12.81 1.6,-4.96 4.83,-9.16 7.64,-13.49 0.19,2.88 -0.12,5.88 -0.39,8.71 -0.94,3.35 -2.49,6.54 -3.05,10 -0.79,3.31 -2.6,6.28 -3.26,9.61 -0.61,0.88 0.16,7.18 -3.02,5.68 m 16.19,122 c -1.46,-1.15 -3.04,-2.53 -2.34,-4.6 1.51,-2.22 5.01,-1.47 6.28,0.66 -1.04,1.55 -2.08,3.1 -3.29,4.51 z m -346.88,95.64 c -8.48,-3.14 -17.36,-5.69 -26.46,-5.76 -9.8,-1.74 -19.72,1.78 -29.46,-0.33 -1.4,-0.15 -1.9,-0.89 -1.51,-2.22 5.98,-3.28 12.81,-3.91 19.27,-5.73 5.4,-1.51 11,-1.63 16.56,-1.44 5.69,-0.47 10.43,2.9 15.64,4.42 3.73,3.61 7.05,7.7 10.43,11.64 z m -260.36,7.17 c -0.85,-0.96 0.42,-2.93 1.62,-2.32 0.85,0.96 -0.43,2.94 -1.62,2.32 m 64.04,63.13 c -1.23,-1 -0.05,-3.77 1.54,-2.58 1.22,1.01 0.05,3.77 -1.54,2.58 m 343.96,65.1 c -0.27,-0.27 -0.81,-0.81 -1.08,-1.08 0.27,-2.57 3.65,0.8 1.08,1.08 m -290.83,35.88 c -5.23,-3.32 -9.85,-7.53 -14.16,-11.96 -2.48,-2.59 -0.49,-6.5 -1.12,-9.48 0.98,-1.93 3.62,-1.65 5.13,-0.53 3.11,1.99 6.49,3.49 9.69,5.31 2.83,2.16 5.2,4.93 8.41,6.58 4.17,1.46 8.55,2.41 12.5,4.44 1.28,0.69 2.76,0.79 4.16,1.12 -0.92,1.3 -2.03,2.48 -3.31,3.42 -6.86,2.28 -14.22,1.3 -21.3,1.1 m 271.99,38.89 c 1.89,0.51 3.76,-0.35 5.65,-0.44 8.37,1.93 16.61,-2.47 25.02,-2.21 2.46,-0.02 4.72,-1.13 6.95,-2.04 3.76,-1.71 7.84,-3.28 10.48,-6.62 1.25,-0.22 3.74,-0.66 4.99,-0.88 4.15,0.07 7.73,-2.01 11.41,-3.55 9.84,-2.8 19.96,-6.41 27.68,-13.37 4.53,-3.44 8.81,-7.23 13.36,-10.67 5.78,-4.66 9.01,-11.63 14.44,-16.64 9.29,-1.13 18.31,-4.08 26.66,-8.27 4.57,-3.54 9.94,-5.83 14.41,-9.54 2.07,-0.68 6.22,-2.04 8.29,-2.72 2.37,-1.22 3.56,-3.78 5.72,-5.28 6.58,-5.19 10.32,-12.96 16.27,-18.74 6.91,-7.31 10.74,-16.6 15.84,-25.11 1.71,-4.93 3.36,-10.1 7.25,-13.81 3.01,-2.77 3.89,-6.87 5.5,-10.46 1.48,-1.43 3.65,-1.65 5.4,-2.65 1.31,-1 2.33,-2.33 3.37,-3.62 1.55,-2.1 4.15,-3.19 5.5,-5.48 1.42,-2.5 3.22,-4.72 5.05,-6.95 1.98,-3.42 3.58,-7.06 5.56,-10.5 4.33,-7.36 7.06,-15.48 10.75,-23.16 2.14,-4.56 1.67,-9.8 3.43,-14.49 0.58,-6.3 3.25,-12.19 3.61,-18.52 0.23,-2.97 1.61,-5.65 2.6,-8.41 0.77,-6.76 0.24,-13.59 0.7,-20.38 1.9,-12.35 -1.92,-24.62 -2.57,-36.92 -1.15,-5.53 -2.5,-11.02 -3.33,-16.62 -0.18,-3.78 -2.47,-6.84 -3.57,-10.34 -1.55,-6.71 -5.53,-12.46 -8.27,-18.69 -1.07,-3.46 -2.86,-6.63 -4.07,-10.04 -0.73,-7.97 -2.17,-16.06 -1.05,-24.07 0.26,-3.97 1.29,-7.94 1.06,-11.95 -0.98,-7.7 1.93,-15.71 -0.67,-23.22 -1.99,-12.42 -4.15,-25.05 -9.61,-36.5 -1.85,-3.13 -3.66,-6.28 -5.61,-9.35 -1.6,-1.18 -4.8,-3.55 -6.4,-4.74 -1.66,-10.5 -1.56,-21.64 -6.58,-31.31 -2.43,-3.86 -3.25,-8.47 -5.66,-12.35 -3.24,-4.67 -7.02,-8.94 -10.71,-13.26 -2.94,-3.41 -6.8,-5.85 -9.81,-9.18 -5.75,-5.21 -10.75,-11.63 -12.82,-19.21 -5.16,-6.19 -9.63,-12.93 -15.06,-18.9 -1.71,-1.13 -3.72,-1.67 -5.48,-2.7 -0.23,-1.16 0.19,-2.01 1.25,-2.57 4.87,-1.79 9.84,-3.45 14.9,-4.67 8.75,1.13 17.78,2.28 26.47,0.07 3.82,-1.32 7.56,-2.91 11.16,-4.79 3.86,-3.56 5.74,-9.15 4.75,-14.34 -1.78,-7.31 -0.42,-14.83 -0.81,-22.19 -2.58,-4.53 -5.9,-9.11 -10.84,-11.19 -3.84,-1.29 -7.96,-1.01 -11.92,-1.69 -5.72,0.31 -11.39,0.97 -17.09,1.36 -7.17,-0.19 -13.87,2.82 -20.98,3.13 -3.88,0.03 -6.74,3.23 -9.76,5.18 -1.61,2.72 -1.99,6 -2.86,9.01 1.12,7.92 -1.84,16.09 0.65,23.87 -3.6,-2.36 -7.14,-4.83 -10.66,-7.3 -2.79,-8.92 -3.13,-18.27 -3.5,-27.52 -3.34,-15.38 -0.95,-31.19 -2.05,-46.76 -0.74,-2.02 -2,-4.22 -4.51,-3.34 -1.91,3.67 -0.75,8.05 -1.28,11.94 0.32,7.65 -3.21,14.92 -2.45,22.58 0.93,15.48 1.72,30.95 2.52,46.43 -0.05,2.76 1.64,5.17 1.8,7.87 -1.8,3.96 -2.26,8.43 -1.44,12.7 1.05,6.91 1.6,14.37 5.76,20.26 1.59,1.2 3.55,2.61 5.66,2.02 5.2,-2.49 10.91,-5.13 16.8,-4.37 2.72,0.19 5.45,0.26 8.18,0.64 3.35,2.3 6.37,5.06 9.73,7.37 5.8,7.9 9.26,17.64 16.75,24.23 5.17,4.13 9.97,8.69 14.44,13.56 3.72,6.23 9.88,11.84 9.3,19.74 0.33,3.96 1.62,7.79 1.88,11.74 -1.65,2.64 -4.58,-0.3 -6.5,-1.15 -2.58,-6.7 -3.65,-14.13 -8.54,-19.7 -1.68,-0.12 -2.67,1.32 -3.71,2.37 -0.6,4.39 2.83,8.26 2.8,12.57 -2.19,5.7 -5.29,11.09 -9.7,15.36 -4.26,3.37 -9.68,5.99 -11.56,11.48 -0.39,0.06 -1.17,0.17 -1.56,0.23 -0.87,-3.82 -0.82,-7.77 -1.34,-11.65 -1.87,-3.17 -5.19,0.07 -6.54,2.07 -1.02,4.38 -0.77,8.9 -1.58,13.29 -0.91,1.42 -1.78,2.87 -2.97,4.06 -3.8,1.24 -7.89,1.63 -11.37,3.61 -8.51,4.63 -15.08,12.6 -18.35,21.69 -1.64,3.81 -4.04,7.24 -6.24,10.71 -2.89,3.14 -7.85,4.16 -9.62,8.36 -2.12,5.09 -5.41,9.69 -6.95,15 0.36,5.78 1.59,11.46 2.48,17.16 0.45,4.76 0.76,9.79 3.03,14.11 2.11,4.31 3.16,9.03 4.4,13.63 0.71,2.69 2.59,5.05 1.91,8.08 -0.39,4.85 1.72,10.9 -2.19,14.78 -12.16,1.88 -23.79,6.93 -33.48,14.49 -3.65,4.69 -8.32,8.35 -12.8,12.18 -4.05,7.04 -9.67,13.94 -9.43,22.56 -0.41,6.39 -2.5,12.56 -3.04,18.9 1.26,7.94 4.62,15.35 6.73,23.08 -0.42,3.56 -4.59,4.58 -6.4,7.31 -6.02,5.68 -9.64,13.21 -13.76,20.27 -1.77,3.04 -5.53,5.19 -8.93,3.62 -3.93,-2.27 -7.37,-5.23 -11.17,-7.68 -3.03,-1.49 -5.72,-3.58 -8.09,-5.96 -2.69,-2.17 -5.79,-3.72 -8.91,-5.16 -5.5,-4.15 -12.44,-5.78 -19.09,-6.94 -5.91,-2.3 -12.12,-3.97 -18.45,-4.43 -5.16,-0.11 -10.33,-1.65 -15.47,-0.57 -8.16,2.07 -16.52,3.91 -24,7.88 -4.53,1.34 -8.12,4.58 -12.36,6.52 -6.34,-5.67 -9.78,-13.52 -14.74,-20.25 -2.74,-3.7 -4.09,-8.28 -7.38,-11.61 -1.52,-3.27 -5.31,-3.22 -7.76,-5.3 -2.55,-2.45 -4.98,-5.02 -7.59,-7.41 -2.22,-1.37 -4.74,-2.06 -7.18,-2.87 -2.77,-1.6 -5.26,-3.81 -8.48,-4.46 -10.84,-2.28 -21.96,-3.08 -33.02,-3.05 -5.05,0.25 -10,-1.44 -15.03,-0.14 -6.23,-0.24 -11.8,3.14 -17.99,3.16 -7.04,0.87 -13.9,2.7 -20.81,4.21 -4.89,1.15 -8.9,4.33 -13.26,6.66 -5.44,2.61 -9.99,6.66 -14.66,10.39 -3.75,3.94 -6.88,8.42 -10.65,12.33 -3.83,5.41 -6.73,11.37 -9.83,17.18 -3,2.31 -5.91,4.78 -8.14,7.88 -2.05,2.94 -4.99,5.3 -8.59,5.92 -6.55,0.49 -13.23,0.72 -19.63,-1 -3.57,-1.33 -7.35,-1.94 -11.02,-2.93 -4.05,-2.94 -7.5,-6.73 -12.02,-9.01 -4.23,-3.74 -8.15,-7.8 -12.07,-11.87 -2.75,-3.14 -4.26,-7.1 -6.34,-10.67 -1.35,-3.05 -4.61,-4.06 -6.71,-6.36 -0.98,-4.32 -0.91,-8.8 -1.77,-13.15 -1.45,-6.38 -1.45,-12.97 -2.69,-19.4 -0.65,-2.87 1.1,-5.64 0.64,-8.52 -0.29,-2.74 0.75,-5.35 1.1,-8.07 1.03,-4.75 -0.65,-9.66 0.68,-14.36 1.03,-3.62 -0.49,-7.34 -0.01,-11.02 1.37,-12.29 3.45,-24.63 2.63,-37.04 -1.49,-6.25 -1.8,-12.67 -2.98,-18.97 -1.91,-5.4 -4.85,-10.43 -5.92,-16.12 -0.88,-4.01 -2.43,-7.93 -2.8,-12.04 0.9,-9.11 2.47,-18.55 7.42,-26.44 3.29,-6.22 6.75,-12.36 11.09,-17.93 2.08,-7.53 4.29,-15.67 2.67,-23.53 2.23,-8.07 0.99,-16.5 1.19,-24.75 0.12,-4.36 -0.27,-8.69 0.12,-13.04 -1.96,-5.83 1.94,-11.05 1.78,-16.78 -1.1,-7.27 1.12,-14.4 1.47,-21.63 -0.69,-5.14 2.82,-9.17 4.24,-13.79 1.97,-6.46 2.73,-13.31 5.46,-19.53 1.66,-4.1 3.3,-8.22 4.8,-12.39 1.74,-7.96 6.22,-14.91 9.65,-22.2 3.87,-7.16 4.55,-15.43 6.95,-23.09 1.89,-4.66 3.2,-9.54 4.52,-14.39 1.19,-9 1.16,-18.74 6.52,-26.53 3.46,-4.66 3.8,-10.9 7.64,-15.35 4.16,-5.24 6.11,-11.77 9.69,-17.34 4.12,-3.99 7.09,-8.92 10.56,-13.41 9.42,-7.76 10.15,-20.72 14.73,-31.27 1.33,-4.9 6.08,-8.03 6.87,-13.13 7.9,-3.53 14.95,-8.76 22.97,-12.07 5.5,-0.13 10.93,-1.52 16.44,-1.41 2.14,-0.13 2.86,2.98 1.35,4.2 -1.76,1.78 -4.18,3.64 -3.07,6.48 1.89,0.85 3.7,2.19 5.82,2.3 6.13,-0.67 10.39,-5.57 15.49,-8.51 4.97,-0.69 9.41,-3.43 14.49,-3.54 5.88,-0.77 11.59,-2.42 17.43,-3.45 4.34,0.23 8.67,0.13 13.01,0.1 4.98,0.59 10.34,-0.52 14.97,1.97 7.99,2.54 16,5.5 24.39,6.36 2.9,-2.17 1.29,-6.67 -1.58,-8.08 -12.34,-5.14 -24.8,-10.74 -38.19,-12.51 -1.04,0.4 -1.98,1.01 -3.02,1.37 -2.35,-0.33 -4.63,-1.01 -6.97,-1.37 -6.86,1.77 -14,2.02 -20.86,3.83 -6.77,1.03 -13.09,4.03 -19.98,4.3 -5.54,-0.67 -10.38,-4.2 -16.06,-4.14 -2.75,0.32 -5.59,-0.59 -8.23,0.53 -5.06,1.71 -10.56,1.56 -15.52,3.53 -6.32,3.13 -12.1,7.22 -18.1,10.89 -4.58,3.04 -5.71,8.56 -7.79,13.26 -1.77,3.34 -3.2,6.8 -4.81,10.19 -5.5,9.47 -9.75,19.7 -16.52,28.39 -2.97,3.75 -4.93,8.29 -8.56,11.45 -1.38,2.02 -2.18,4.37 -3.73,6.27 -1.96,2.54 -2.37,5.78 -3.35,8.73 -4.3,9.08 -10.76,16.99 -13.88,26.64 0.39,6.86 -1.03,13.7 -1.99,20.45 -1.03,5.73 -4.56,10.63 -5.52,16.37 -0.87,8.03 -5.43,14.9 -7.62,22.54 -3.2,5.35 -5.03,11.38 -6.67,17.34 -1.94,5.03 -3.67,10.13 -5.94,15.02 -2.81,5.32 -3.83,11.28 -6.07,16.82 -2.83,11.29 -3.94,22.93 -5.09,34.49 -0.01,6.07 -1.4,12.04 -2.37,17.99 -0.39,3.22 0.05,6.68 -1.56,9.63 -4.86,-0.36 -9.71,-0.51 -14.57,-0.2 -6.21,1.91 -11.8,5.59 -15.86,10.69 -2.62,3.7 -7.38,5.63 -8.97,10.03 -2.54,5.28 -5.63,10.6 -5.4,16.69 -0.21,2.21 0.92,4.21 1.86,6.12 1.88,3.19 2.88,6.83 5.19,9.79 1.75,2.54 4.13,4.51 6.04,6.91 -5.98,2.64 -11.85,6.06 -15.65,11.53 -1.08,2.56 -2.22,5.09 -2.97,7.76 -0.56,7.77 4.57,13.8 8.53,19.86 -0.63,1.6 -2.15,2.65 -3.35,3.81 -3.6,2.45 -5.18,-0.62 -7.08,-2.44 -3.28,-1.66 -8.02,-1.31 -9.42,-5.53 -2.11,-4.15 -5.47,-7.63 -6.98,-12.09 -0.28,-5.2 -0.46,-10.43 -1.06,-15.62 0.93,-2.53 3.24,-4.16 5.27,-5.78 3.12,-0.99 6.5,-1.79 8.47,-4.68 0.61,-2.32 -0.32,-4.94 -2.17,-6.43 -1.73,-0.53 -3.49,-1.36 -5.35,-1 -4.16,0.42 -8.56,0.67 -12.29,2.79 -3.43,1.99 -6.92,3.86 -10.57,5.41 -1.98,2.02 -3.72,4.32 -6.24,5.73 -3.01,1.49 -3.91,4.74 -5.66,7.29 -1.78,6.89 -6.45,12.71 -7.18,19.9 -0.27,4.4 -0.99,8.93 -0.02,13.26 1.68,4.87 2.75,10.01 5.64,14.35 2.26,4.27 6.17,7.22 8.86,11.16 2.22,3.07 4.98,5.92 8.48,7.49 4.13,1.41 8.56,1.77 12.57,3.55 -0.4,3.9 -4.32,6.38 -5.79,9.87 -0.9,2.44 -1.92,4.84 -2.64,7.33 0.26,4.14 0.22,8.28 -0.27,12.4 2.08,5.11 4.49,10.08 7.02,14.97 4.6,6.19 12.61,7.26 18.63,11.4 -0.19,2.54 -0.56,5.11 -0.97,7.6 -3.81,2.32 -8.22,3.45 -12.48,4.68 -6.88,3.78 -12.77,9.14 -18.14,14.82 -3.66,4.42 -6.84,9.24 -10.47,13.69 -2.74,0.75 -3.73,-3.62 -3.28,-5.4 -0.46,-4.72 1.33,-9.39 3.48,-13.51 1.45,-2.33 4.22,-3.08 6.31,-4.66 2.63,-1.74 6.08,-1.38 8.52,-3.55 1.77,-2.03 4.85,-4.44 3.96,-7.53 -2,-2.98 -4.59,-5.49 -7.08,-8.06 -5.62,-1.52 -11.52,-1.7 -17.29,-1.61 -4.9,-0.77 -10.13,-0.25 -14.46,2.36 -4.14,2.4 -8.41,4.75 -12.01,7.95 -3.27,4.06 -8.1,6.6 -10.9,11.1 -5.92,7.67 -11.28,15.83 -15.41,24.62 -5.15,10.22 -6.03,21.78 -9.46,32.57 -1.7,4.58 -0.27,9.55 -0.66,14.26 -1.1,3.63 0.69,7.18 0,10.79 -0.26,5.65 1.06,11.21 1.99,16.73 0.27,3.66 1.54,7.15 2.76,10.58 -0.41,2.79 1.51,4.13 2.98,5.8 -0.3,4.55 2.57,8.42 3.57,12.71 0.48,1.95 0.8,4.26 2.59,5.48 3.37,2.58 4.05,7.1 5.01,10.99 3.26,3.09 6.41,6.32 8.98,10.02 1.14,1.99 3.67,2.27 5.16,3.88 2.88,2.79 5.98,5.33 9.12,7.81 1.82,2.09 2.07,5.08 3.74,7.29 3.7,3.07 8.3,4.88 11.79,8.22 4.11,4.16 10.04,5.69 14.42,9.51 5.66,2 10.38,5.8 15.78,8.29 6.31,1.39 12.72,2.47 18.81,4.69 6.26,0.01 12.3,2.49 18.59,2.04 10.47,1.08 20.68,-2.23 30.22,-6.16 3.21,0.51 4.48,4.21 7.13,5.66 3.58,2.37 6.94,5.03 10.31,7.67 4.69,-0.88 6.04,3.77 7.06,7.05 1.94,3.76 4.81,7.07 5.62,11.36 0.53,3.3 2.8,5.74 4.31,8.57 1.83,3.78 3.86,7.46 5.95,11.1 2.3,2.38 5.09,4.28 6.98,7.05 3.38,4.76 8.91,7.06 13.49,10.44 8.25,4.7 16.79,8.89 25.6,12.44 4.34,0.55 8.75,0.89 13.03,1.93 5.08,1.29 10.16,-0.4 15.03,-1.79 5.12,-1.03 10.21,-2.25 15.17,-3.91 4.05,-2.86 8.12,-5.89 11.24,-9.79 1.37,-1.33 3.1,-2.23 4.58,-3.44 2.31,-2.69 4.61,-5.46 6.46,-8.51 2.17,-3.57 1.17,-8.14 3.3,-11.73 6.55,-1.8 12.15,-5.65 17.88,-9.12 2.71,-1.27 4.53,-5.02 7.72,-5.11 2.4,1.54 5.4,2.82 7.09,5.09 -0.98,4.48 -4.35,8.26 -4.97,12.87 0.57,4.61 3.66,8.32 5.66,12.38 2.63,3.33 4.55,7.37 8.32,9.63 6.68,5.49 14.3,9.83 22.5,12.6 6.49,2.79 13.09,5.36 19.99,6.94 11.75,1.1 23.4,-0.91 35.07,-1.96 4.11,-1.72 8.06,-3.83 11.92,-6.07 4.23,-1.98 8.62,-3.61 13.08,-5.02 5.22,-2.95 9.58,-7.22 14.54,-10.49 3.61,0.75 6.64,3.4 10.53,3.33 3.57,3.44 6.43,7.6 10.48,10.55 4.53,3.07 9.18,6.29 14.62,7.48 3.4,1.54 7.22,1.12 10.77,2.08 1.21,2.24 3.51,2.85 5.86,3.21" /><path
       d="m 492.73,806.27 h 0.54 v -0.54 h -0.54 z"
       style="fill:#020202;fill-opacity:1;fill-rule:nonzero;stroke:none"
       id="path80"
       inkscape:connector-curvature="0" /><path
       inkscape:connector-curvature="0"
       id="path84"
       style="fill:#020202;fill-opacity:1;fill-rule:nonzero;stroke:none"
       d="m 486.73,805.25 c 0.8,1.16 3.61,0.23 2.23,-1.19 -0.78,-1.41 -3.44,-0.3 -2.23,1.19" /><path
       inkscape:connector-curvature="0"
       id="path88"
       style="fill:#020202;fill-opacity:1;fill-rule:nonzero;stroke:none"
       d="m 580.4902,591.6201 c 1.96,-1.13 3.87,-2.36 5.89,-3.4 -0.64,-1.23 -1.29,-2.45 -1.94,-3.68 -0.7,0.01 -2.1,0.03 -2.79,0.04 -0.81,0.99 -1.63,1.96 -2.431,2.94 0.351,1.39 0.781,2.76 1.271,4.1" /><path
       inkscape:connector-curvature="0"
       id="path92"
       style="fill:#020202;fill-opacity:1;fill-rule:nonzero;stroke:none"
       d="m 275.6802,384.27 c -1.89,-0.09 -0.54,-3.12 -0.84,-4.45 1.11,-0.15 2.23,-0.2 3.35,-0.14 0.96,0.9 1.85,1.87 2.73,2.84 -1.11,1.96 -3.21,2.27 -5.24,1.75 m -44.95,16.12 v -0.78 l 0.77,-0.38 0.77,0.38 v 0.78 l -0.77,0.38 z m -0.92,19.77 c 8.88,-0.05 17.76,-1.27 26.63,-1.75 2.66,-0.29 5.17,-1.32 7.68,-2.2 11.93,-2.29 23.74,-5.19 35.43,-8.54 5,-2.1 12.17,0.75 15.75,-4.5 2.4,-7.56 -0.5,-15.32 -1.62,-22.82 -0.34,-4.44 2.01,-8.44 1.7,-12.89 0.16,-4.92 0.05,-9.9 0.52,-14.82 -0.92,-9.3 -1.6,-18.66 -3.89,-27.74 -2.37,-5.53 -3.38,-11.51 -4.57,-17.38 -1.4,-3.57 -0.55,-7.34 -0.37,-11.04 -0.29,-9.32 -3.1,-18.53 -8.08,-26.41 -4.24,-8.12 -8.91,-16.77 -7.36,-26.3 4.31,-5.28 11.62,-5.86 17.75,-7.44 3.87,-1.4 7.53,-3.28 11.39,-4.72 2.97,-0.9 6.38,-0.06 8.48,2.16 3.89,4.11 7.52,8.48 11.56,12.42 4.16,3.13 9.23,-1.38 13.73,-0.59 6.89,0.01 13.83,0.11 20.59,-1.52 1.71,-0.57 3.41,0.19 5.04,0.67 2.34,2.49 4.16,5.82 3.77,9.32 0.62,2.96 -2.82,6.77 -0.35,9.44 4.47,-2.21 7.63,-7.51 6.47,-12.59 -0.72,-3.7 -1.92,-7.61 -4.75,-10.24 -3.58,-2.15 -7.35,-4.69 -11.78,-4.24 -5.4,-0.36 -10.7,-1.5 -16.1,-1.75 -5.95,-0.05 -12,-0.55 -17.68,-2.44 -4.16,-1.95 -6.89,-6.05 -11.15,-7.84 -3.89,-1.69 -8.39,-2.6 -12.53,-1.39 -4.99,1.05 -8.88,4.71 -13.63,6.38 -4.78,1.65 -10.86,1.39 -14.2,5.84 -4.31,4.14 -4.05,10.6 -4.52,16.09 1.2,6.38 3.36,12.64 6.81,18.15 7.09,10.87 8.27,24.42 7.97,37.05 -0.11,2.58 0.9,4.99 1.4,7.47 1,7.96 3.15,15.71 4.56,23.59 1.1,6.26 0.67,12.67 1.62,18.94 -0.23,3.48 0.4,7.7 -2.89,9.84 -5.16,1.25 -7.74,-4.76 -11.82,-6.7 -5.34,-2.79 -10.02,-6.63 -14.94,-10.07 -2.45,-1.57 -5.35,-2.04 -8.06,-2.99 -4.12,-1.17 -7.33,-4.87 -11.83,-4.67 -7.66,-1.54 -15.98,-4.2 -23.57,-1.1 -2.9,-0.18 -5.01,1.5 -6.79,3.4 -1.76,1.78 -1.56,5.89 0.67,7.1 5.91,0.2 11.85,0.15 17.73,0.98 6.26,-0.07 11.91,2.94 17.92,4.21 5.33,1.16 9.92,4.32 15.14,5.83 2.23,0.51 3.7,2.42 5.09,4.08 -6.34,0.9 -13.68,-1.78 -19.39,1.93 -3.56,2.94 -8.16,4.28 -11.67,7.29 -1.75,2.02 -2.94,4.45 -4.51,6.58 -1.54,0.39 -3.09,0.73 -4.66,0.95 -4.07,-0.94 -8.34,-1.68 -12,-3.74 2,-2.91 5.37,-5.52 3.89,-9.69 -1.39,-0.48 -3,-1.86 -4.46,-0.8 -2.72,2.02 -6.24,2.13 -9.09,3.84 -2.09,1.66 -3.38,4.28 -6.03,5.15 -1.02,2.14 0.03,4.3 2.12,5.18 7.21,0.95 13.2,5.25 19.6,8.3 1.59,0.66 3.26,1.47 4.03,3.11 -6.37,-1 -12.38,-3.71 -18.85,-4.24 -3.84,-2.46 -6.99,-5.89 -11.18,-7.86 -2.32,-3.47 -5.75,-1.5 -7.99,0.31 -0.93,3.8 1.27,7.42 4.35,9.35 6.35,2.7 12.46,6.08 19.18,7.84 1.3,0.3 1.76,1.11 1.39,2.43 -5.54,0.34 -11.1,1.65 -16.66,0.85 -5.11,-0.6 -9.76,-2.86 -14.59,-4.45 -3.5,0 -6.98,0.3 -10.43,0.88 -1.98,3.34 -4.24,6.45 -6.97,9.2 -0.08,0.37 -0.26,1.12 -0.35,1.49 2.09,1.06 4.39,1.6 6.49,2.66 3.42,1.73 7.37,1.12 11.02,2 4.96,-1.28 6.35,5.94 11.53,3.28 7.51,-1.02 14.86,1.49 22.31,1.88" /><path
       inkscape:connector-curvature="0"
       id="path96"
       style="fill:#020202;fill-opacity:1;fill-rule:nonzero;stroke:none"
       d="m 458.71,374.2998 c -1.39,-0.28 -1.39,-2.3 0,-2.6 1.38,-0.06 1.38,2.68 0,2.6 m -41.73,39.7 c 5.15,1.06 10.36,-0.26 15.52,-0.53 7.18,-1.01 14.56,-0.43 21.59,-2.45 5.5,-2.02 11.4,-2.45 17.06,-3.85 5.96,-1.48 12.42,-1.92 17.77,-5.21 9.98,-5.13 21.17,-7.37 32.21,-8.81 3.09,-2.28 7.1,-4.95 5.41,-9.7 0.43,-2.07 -0.75,-3.66 -2.35,-4.81 -2.72,-0.87 -4.93,1.2 -7.15,2.36 -6.2,2.75 -12.67,4.77 -19.07,6.95 -7.49,1.27 -15.05,2.26 -22.37,4.31 -0.25,-0.4 -0.75,-1.18 -1,-1.57 4.46,-2.06 9.28,-3.7 12.87,-7.22 4.29,-4.2 10.06,-6.08 15.32,-8.72 2.36,-1.22 4.33,-3.02 6.74,-4.2 2.53,-1.02 5.22,-1.56 7.83,-2.33 0.5,-1.98 -0.23,-3.9 -1.14,-5.64 -4.88,-0.89 -9.12,1.94 -13.66,3.02 -11.95,3.8 -21.71,12.24 -33.45,16.51 -6.37,2.89 -13.13,4.84 -19.79,6.92 -1.89,-0.65 -4.61,-0.79 -5.76,-2.45 8.61,-1.11 16.98,-3.43 24.79,-7.24 3.99,-2.21 7.18,-5.59 11.13,-7.87 3.69,-2.22 7.1,-5.63 11.85,-5.21 3.63,-0.9 7.35,-2.3 10.07,-4.97 0.22,-2.58 -2.2,-5 -4.78,-4.66 -4.36,0.91 -8.54,2.44 -12.95,3.09 -3.25,0.71 -6.16,2.42 -9.34,3.34 -4.33,-0.97 -7.98,-4.71 -12.81,-3.65 -4.38,-0.2 -8.92,-1.85 -13.14,-0.07 -4.49,1.68 -9.18,2.66 -13.61,4.44 -1.84,4.09 -4.89,8 -4.16,12.79 -0.21,1.7 0.26,4.97 -2.22,4.92 -4.44,-0.58 -9.05,-1.66 -12.85,-4.15 0.36,-2.85 3.02,-5.89 0.65,-8.52 -2.86,-1.97 -7.42,-0.95 -9.44,1.9 -1.87,1.54 -0.56,5.15 -3.34,5.8 0.31,-6.42 5.81,-11.17 11.12,-13.97 8.51,-4.2 16.11,-10.46 25.62,-12.38 5.01,-0.68 9.91,-1.97 14.82,-3.15 6.93,-0.84 14.06,-0.04 20.85,-2.04 4.26,-0.32 8.6,0.03 12.67,1.45 5.47,2.08 11.39,0.69 16.95,-0.1 2.71,-4.48 -1.47,-5.93 -4.41,-6.34 -11.22,-1.61 -22.41,-5.32 -33.85,-3.97 -4.88,0.18 -9.68,-1.97 -14.55,-0.46 -3.73,0.62 -7.09,2.24 -10.63,3.4 -2.45,0.33 -7.33,0.99 -9.78,1.31 -8.27,3.18 -16.98,5.59 -24.4,10.59 -3.49,2.84 -7.52,5.07 -10.59,8.37 -3.11,3.04 -4.96,7.12 -8.03,10.17 l -4.38,-0.05 c -1.64,-0.92 -4.91,-2.77 -6.54,-3.69 -1.72,-0.66 -2.63,1.23 -3.65,2.2 -1.03,3.49 0.66,6.57 1.89,9.62 1.45,3.17 2.14,6.64 2.99,9.99 -2.42,4.18 -6,7.63 -8.03,12.03 1.82,5.39 8.51,5.84 13.18,6.82 4.14,0.63 7.73,3.05 11.85,3.74 6.9,0.88 13.66,2.56 20.47,3.94" /><path
       inkscape:connector-curvature="0"
       id="path100"
       style="fill:#020202;fill-opacity:1;fill-rule:nonzero;stroke:none"
       d="m 689.8301,366.1099 c 1.62,1 2.52,-1.03 3.51,-1.94 1.34,-5.15 -4.19,-8.56 -2.86,-13.74 -0.04,-1.42 -0.21,-3.01 0.78,-4.2 3.03,-4.76 6.89,-9.66 6.23,-15.74 0.46,-5.46 -3.05,-9.96 -5.3,-14.64 -3.48,-2.16 -6.91,-4.41 -10.17,-6.9 -1.58,-0.15 -4.73,-0.44 -6.31,-0.59 -2.4,-3.48 -5.41,-8.73 -2.08,-12.67 0.8,-0.77 2.41,-2.33 3.22,-3.11 l 4.26,0.18 c 6.3,4.59 12.92,8.75 19.84,12.33 3.15,0.58 7.9,-0.39 9.87,3.11 4.02,3.37 1.7,9.99 5.96,13.18 3.42,0.49 8.26,-2.64 5.78,-6.92 0.21,-3.19 -2.88,-5.27 -3.98,-8.01 -1.97,-4.19 -5.77,-6.94 -9.34,-9.67 -2.63,-2.21 -6.09,-2.63 -9.25,-3.67 -4.61,-0.03 -7.64,-3.54 -10.91,-6.16 -2.05,-0.63 -4.17,-1.04 -6.15,-1.89 -2.79,-1.9 -5.37,-4.94 -9.3,-3.54 -3.94,1.34 -7.03,4.36 -9.89,7.26 -0.85,3.47 -2.41,6.95 -2.21,10.56 1.81,5.61 6.39,9.6 10.94,13.05 6.6,1.6 11.93,6.4 14.77,12.51 0.64,3.2 -0.25,6.23 -1.11,9.24 -1.62,3.34 -4.42,6.02 -5.65,9.56 -0.25,6.99 0.31,14.49 4.44,20.38 1.61,0.73 3.25,1.4 4.91,2.03" /><path
       inkscape:connector-curvature="0"
       id="path104"
       style="fill:#020202;fill-opacity:1;fill-rule:nonzero;stroke:none"
       d="m 716.7197,230.4302 c 1.59,0.02 3.81,0.72 4.51,-1.26 1.61,-5.5 1.61,-11.55 4.36,-16.72 5.44,4.53 6.11,12.93 11.16,17.91 0.67,0.03 2.03,0.11 2.71,0.14 1.02,-6.08 -2.219,-11.5 -3.79,-17.14 -1.17,-4.12 -2.96,-8.18 -6.53,-10.8 -1.6,0.02 -4.8,0.04 -6.39,0.05 -3.06,3.05 -4.18,7.43 -5.8,11.32 -1.24,5.3 -2.62,11.36 -0.23,16.5" /><path
       inkscape:connector-curvature="0"
       id="path108"
       style="fill:#020202;fill-opacity:1;fill-rule:nonzero;stroke:none"
       d="m 310.8101,218.2402 c 2.84,1.49 5.72,-2.55 3.41,-5.32 -2.3,-3.35 -5.12,-6.29 -7.75,-9.37 -1.14,-1.39 -2.85,-2.47 -4.71,-1.97 -1.38,0.81 -1.41,2.34 -1.26,3.73 0.66,1.07 1.79,1.69 2.63,2.59 1.12,2 1.66,4.25 2.71,6.27 1.26,1.77 2.94,3.25 4.97,4.07" /><path
       inkscape:connector-curvature="0"
       id="path112"
       style="fill:#020202;fill-opacity:1;fill-rule:nonzero;stroke:none"
       d="m 340.8301,216.3901 c 1.13,0.18 2.27,0.19 3.42,0.05 2.64,-3.13 2.94,-7.48 3.97,-11.27 0.75,-2.08 -0.8,-3.99 -1.92,-5.61 -1.43,-0.4 -2.3,0.7 -3.01,1.73 -2.61,4.23 -2.63,9.34 -3.45,14.12 0.25,0.24 0.74,0.73 0.99,0.98" /><path
       inkscape:connector-curvature="0"
       id="path116"
       style="fill:#020202;fill-opacity:1;fill-rule:nonzero;stroke:none"
       d="m 297.6602,215.21 c 1.45,-0.01 2.64,-1.14 3.77,-1.95 0.09,-1.32 0.37,-2.94 -0.66,-4.01 -2.51,-3.46 -5.67,-6.37 -8.08,-9.9 -1.56,-1.98 -2.79,-4.65 -5.33,-5.59 -0.95,0.23 -1.87,0.54 -2.75,0.95 -0.58,5.72 3.68,10.54 7.13,14.55 2.05,1.92 3.2,4.85 5.92,5.95" /><path
       inkscape:connector-curvature="0"
       id="path120"
       style="fill:#020202;fill-opacity:1;fill-rule:nonzero;stroke:none"
       d="m 353.77,210.3701 c 4.83,1.78 8.79,-3.51 8.79,-7.79 -2.74,-0.01 -5.23,0.34 -7.78,1.16 -1.14,0.97 -1.75,2.37 -2.24,3.74 0.34,1 0.75,1.96 1.23,2.89" /><path
       inkscape:connector-curvature="0"
       id="path124"
       style="fill:#020202;fill-opacity:1;fill-rule:nonzero;stroke:none"
       d="m 280.8301,207.2202 c 1.11,0.36 2.24,0.42 3.41,0.2 1.66,-0.94 1.41,-2.98 1.05,-4.58 -3.27,-3.16 -6.28,-6.55 -8.71,-10.42 -1.47,-2.22 -4,-4.33 -6.83,-3.82 -1.55,0.85 -1.61,2.94 -0.59,4.22 3.05,4.59 6.28,9.05 9.58,13.44 0.52,0.24 1.57,0.72 2.09,0.96" /><path
       inkscape:connector-curvature="0"
       id="path128"
       style="fill:#020202;fill-opacity:1;fill-rule:nonzero;stroke:none"
       d="m 378.7202,203.3701 c 1.8,0.49 3.04,-1.56 4.5,-2.16 3.05,-2.51 7.15,-4.67 8.25,-8.8 0.64,-2.08 -1.84,-3.71 -3.6,-2.61 -3.97,3.35 -8.24,6.86 -10.33,11.72 l 0.09,0.76 z" /><path
       inkscape:connector-curvature="0"
       id="path132"
       style="fill:#020202;fill-opacity:1;fill-rule:nonzero;stroke:none"
       d="m 260.2998,202.3799 c 1.07,-0.26 2.11,-0.63 3.12,-1.11 0.13,-1.16 0.11,-2.32 -0.06,-3.5 -3.68,-3.09 -7.86,-5.52 -11.67,-8.45 -1.03,-1.07 -2.59,-0.91 -3.92,-0.71 -1.97,1.05 -1.66,4.35 0.42,5.2 3.31,3.76 7.56,6.54 12.11,8.57" /><path
       inkscape:connector-curvature="0"
       id="path136"
       style="fill:#020202;fill-opacity:1;fill-rule:nonzero;stroke:none"
       d="m 397.5801,193.5098 c 5.25,0.73 8.86,-4.38 10.08,-8.89 0.89,-1.61 1.51,-4.91 -1.1,-5.09 -3.76,4.11 -10.65,7.14 -8.98,13.98" /><path
       inkscape:connector-curvature="0"
       id="path140"
       style="fill:#020202;fill-opacity:1;fill-rule:nonzero;stroke:none"
       d="m 329.9702,174 c -2.04,-0.34 -4,-1.59 -6.1,-1.05 -4.1,0.94 -8.17,-1.23 -12.31,-0.52 0,-0.48 -0.01,-1.42 -0.01,-1.89 3.75,-0.17 7.5,-0.37 11.25,-0.61 3.6,-0.13 7.25,0.51 10.82,-0.18 4.57,-0.67 9.16,-1.77 13.82,-1.1 6.13,1.52 12.08,-0.67 18.15,-1.14 -3.4,5.04 -10.96,3.39 -16.1,3.37 -6.4,1.47 -12.82,4.33 -19.52,3.12 m -17.03,10.05 c 5.34,-0.2 10.68,0.49 16.01,-0.04 4.41,-1.59 8.95,1.15 13.22,-0.76 4.8,-0.29 8.31,-4.4 13.29,-3.9 8.05,-1.77 16.21,-3.16 24.05,-5.81 6.18,-1.17 11.53,-5.25 18.01,-5.04 1.69,0.19 2.77,-1.15 3.82,-2.26 0.27,-1.69 -1,-3.35 -2.13,-4.52 -5.33,-1.2 -10.84,-1.03 -16.23,-1.67 -4.18,-0.99 -8.36,0.01 -12.52,0.31 -3.61,0.04 -7.18,-1.13 -10.78,-0.7 -8.3,0.92 -16.75,2.67 -25.08,1.12 -3.7,0.96 -7.43,1.87 -11.2,2.44 -3.82,-0.08 -7.62,-1.11 -11.41,-0.33 -10.09,1.91 -20.9,0.56 -30.51,4.56 -2.93,0.95 -5.27,6.33 -1.6,7.68 5.44,1.56 11.04,2.6 16.38,4.51 5.75,0.84 10.77,4.17 16.68,4.41" /><path
       inkscape:connector-curvature="0"
       id="path144"
       style="fill:#020202;fill-opacity:1;fill-rule:nonzero;stroke:none"
       d="m 307.7798,150.3398 c 3.72,-0.5 7.46,-0.78 11.24,-0.49 9.95,-3.05 20.42,-1.99 30.66,-2.94 5.2,0.03 10.36,0.83 15.58,0.53 1.66,-1 1.31,-3.02 1.14,-4.66 -2.31,-3.21 -6.63,-1.91 -9.89,-3.39 l 0.3,-0.67 c 4.18,-3.61 9.02,-6.41 13.6,-9.51 0.14,-1.14 0.15,-2.3 0.01,-3.47 -0.94,-0.83 -2.05,-1.43 -3.19,-1.95 -3.56,-0.04 -6.85,1.72 -9.77,3.63 -8.65,4.15 -18.44,4.06 -27.8,4.8 -3.74,-0.48 -7.4,-1.38 -11.14,-1.8 -2.97,-0.37 -5.7,-2.28 -8.76,-1.83 -0.3,0.3 -0.88,0.9 -1.17,1.2 -1.12,4.03 1.64,7.05 3.82,9.89 0,0.38 0.01,1.16 0.02,1.55 -2.26,1.55 -4.8,2.7 -6.85,4.51 -0.6,2 0.73,3.48 2.2,4.6" /></g></svg>