<?xml version="1.0" encoding="UTF-8" standalone="no"?>
<svg
   xmlns:dc="http://purl.org/dc/elements/1.1/"
   xmlns:cc="http://creativecommons.org/ns#"
   xmlns:rdf="http://www.w3.org/1999/02/22-rdf-syntax-ns#"
   xmlns:svg="http://www.w3.org/2000/svg"
   xmlns="http://www.w3.org/2000/svg"
   xmlns:xlink="http://www.w3.org/1999/xlink"
   xmlns:sodipodi="http://sodipodi.sourceforge.net/DTD/sodipodi-0.dtd"
   xmlns:inkscape="http://www.inkscape.org/namespaces/inkscape"
   version="1.1"
   id="Wikimedia Logo"
   viewBox="-400 -525 798 1050"
   width="608"
   height="800"
   sodipodi:docname="Wikimedia-Commons-logo-en-NB.svg"
   inkscape:version="0.92.2 (5c3e80d, 2017-08-06)">
  <metadata
     id="metadata83">
    <rdf:RDF>
      <cc:Work
         rdf:about="">
        <dc:format>image/svg+xml</dc:format>
        <dc:type
           rdf:resource="http://purl.org/dc/dcmitype/StillImage" />
        <dc:title />
      </cc:Work>
    </rdf:RDF>
  </metadata>
  <sodipodi:namedview
     pagecolor="#ffffff"
     bordercolor="#666666"
     borderopacity="1"
     objecttolerance="10"
     gridtolerance="10"
     guidetolerance="10"
     inkscape:pageopacity="0"
     inkscape:pageshadow="2"
     inkscape:window-width="1340"
     inkscape:window-height="965"
     id="namedview81"
     showgrid="false"
     inkscape:zoom="0.59"
     inkscape:cx="308.20796"
     inkscape:cy="302.8698"
     inkscape:window-x="0"
     inkscape:window-y="34"
     inkscape:window-maximized="0"
     inkscape:current-layer="g27" />
  <defs
     id="defs5">
    <clipPath
       id="boundary">
      <circle
         r="298"
         id="circle2" />
    </clipPath>
  </defs>
  <path
     style="fill:#000000;stroke:none"
     d="M 100,0 A 100,100 0 0 1 0,100 100,100 0 0 1 -100,0 100,100 0 0 1 0,-100 100,100 0 0 1 100,0 Z"
     id="circle7" />
  <path
     inkscape:connector-curvature="0"
     id="line9"
     d="M 0,300 V 180"
     style="fill:#000000;fill-opacity:1;stroke:#000000;stroke-width:22;stroke-opacity:1" />
  <path
     inkscape:connector-curvature="0"
     style="fill:#000000;fill-opacity:1;stroke:none"
     id="path11"
     d="M -43,185 0,110 43,185 Z" />
  <g
     id="use14"
     style="fill:#006499;fill-opacity:1;stroke:#006499"
     transform="rotate(45)">
    <path
       inkscape:connector-curvature="0"
       id="path924"
       d="M 0,300 V 180"
       style="fill:#000000;fill-opacity:1;stroke:#000000;stroke-width:22;stroke-opacity:1" />
    <path
       inkscape:connector-curvature="0"
       style="fill:#000000;fill-opacity:1;stroke:none"
       id="path926"
       d="M -43,185 0,110 43,185 Z" />
  </g>
  <g
     id="use16"
     style="fill:#006499;fill-opacity:1;stroke:#006499"
     transform="rotate(90)">
    <path
       inkscape:connector-curvature="0"
       id="path918"
       d="M 0,300 V 180"
       style="fill:#000000;fill-opacity:1;stroke:#000000;stroke-width:22;stroke-opacity:1" />
    <path
       inkscape:connector-curvature="0"
       style="fill:#000000;fill-opacity:1;stroke:none"
       id="path920"
       d="M -43,185 0,110 43,185 Z" />
  </g>
  <g
     id="use18"
     style="fill:#006499;fill-opacity:1;stroke:#006499"
     transform="rotate(135)">
    <path
       inkscape:connector-curvature="0"
       id="path912"
       d="M 0,300 V 180"
       style="fill:#000000;fill-opacity:1;stroke:#000000;stroke-width:22;stroke-opacity:1" />
    <path
       inkscape:connector-curvature="0"
       style="fill:#000000;fill-opacity:1;stroke:none"
       id="path914"
       d="M -43,185 0,110 43,185 Z" />
  </g>
  <g
     id="use21"
     style="fill:#006499;fill-opacity:1;stroke:#006499"
     transform="scale(-1,1)">
    <g
       id="use883"
       style="fill:#006499;fill-opacity:1;stroke:#006499"
       transform="rotate(45)">
      <path
         inkscape:connector-curvature="0"
         id="path894"
         d="M 0,300 V 180"
         style="fill:#000000;fill-opacity:1;stroke:#000000;stroke-width:22;stroke-opacity:1" />
      <path
         inkscape:connector-curvature="0"
         style="fill:#000000;fill-opacity:1;stroke:none"
         id="path896"
         d="M -43,185 0,110 43,185 Z" />
    </g>
    <g
       id="use885"
       style="fill:#006499;fill-opacity:1;stroke:#006499"
       transform="rotate(90)">
      <path
         inkscape:connector-curvature="0"
         id="path900"
         d="M 0,300 V 180"
         style="fill:#000000;fill-opacity:1;stroke:#000000;stroke-width:22;stroke-opacity:1" />
      <path
         inkscape:connector-curvature="0"
         style="fill:#000000;fill-opacity:1;stroke:none"
         id="path902"
         d="M -43,185 0,110 43,185 Z" />
    </g>
    <g
       id="use887"
       style="fill:#006499;fill-opacity:1;stroke:#006499"
       transform="rotate(135)">
      <path
         inkscape:connector-curvature="0"
         id="path906"
         d="M 0,300 V 180"
         style="fill:#000000;fill-opacity:1;stroke:#000000;stroke-width:22;stroke-opacity:1" />
      <path
         inkscape:connector-curvature="0"
         style="fill:#000000;fill-opacity:1;stroke:none"
         id="path908"
         d="M -43,185 0,110 43,185 Z" />
    </g>
  </g>
  <path
     inkscape:connector-curvature="0"
     id="blue_path"
     d="m -59.293386,-365.55625 c 11.939916,87.55941 58.1347138,135.86325 103.482037,158.74686 45.34732,22.88359 81.775349,30.13169 107.132199,55.48854 61.2887,61.288703 79.55914,153.1385245 46.39007,233.212651 C 164.54194,161.9657 86.67695,213.98819 0,213.98819 c -21.612705,0 -42.640646,-3.2421 -62.591381,-9.34569 C -122.65243,186.26785 -172.81254,141.99947 -197.71092,81.891801 -230.87999,1.8176745 -212.60955,-90.032147 -151.32085,-151.32085 l -59.39697,-59.39697 c -85.14211,85.1421 -110.67754,213.5140101 -64.59807,324.75536 34.58961,83.50346 104.46023,145.32545 188.151169,170.92926 27.800003,8.50494 57.141625,13.0207 87.164721,13.0207 120.4066,0 229.2365,-72.70877 275.31589,-183.94996 46.07947,-111.2413499 20.54404,-239.61326 -64.59807,-324.75536 -45.35383,-45.35383 -97.6677,-55.42985 -128.687911,-71.08357 -31.020209,-15.65372 -48.818574,-27.1004 -58.091863,-95.10448 z"
     style="color:#000000;font-style:normal;font-variant:normal;font-weight:normal;font-stretch:normal;font-size:medium;line-height:normal;font-family:sans-serif;font-variant-ligatures:normal;font-variant-position:normal;font-variant-caps:normal;font-variant-numeric:normal;font-variant-alternates:normal;font-feature-settings:normal;text-indent:0;text-align:start;text-decoration:none;text-decoration-line:none;text-decoration-style:solid;text-decoration-color:#000000;letter-spacing:normal;word-spacing:normal;text-transform:none;writing-mode:lr-tb;direction:ltr;text-orientation:mixed;dominant-baseline:auto;baseline-shift:baseline;text-anchor:start;white-space:normal;shape-padding:0;clip-rule:nonzero;display:inline;overflow:visible;visibility:visible;opacity:1;isolation:auto;mix-blend-mode:normal;color-interpolation:sRGB;color-interpolation-filters:linearRGB;solid-color:#000000;solid-opacity:1;vector-effect:none;fill:#000000;fill-opacity:1;fill-rule:nonzero;stroke:none;stroke-width:84;stroke-linecap:butt;stroke-linejoin:miter;stroke-miterlimit:4;stroke-dasharray:none;stroke-dashoffset:0;stroke-opacity:1;color-rendering:auto;image-rendering:auto;shape-rendering:auto;text-rendering:auto;enable-background:accumulate" />
  <path
     inkscape:connector-curvature="0"
     style="fill:#000000;stroke:none"
     d="m -23,-515 c 0,0 -36,135 -80,185 -44,50 116,-62 170,-5 54,57 -90,-180 -90,-180 z"
     id="arrow_top" />
  <defs
     id="defs40">
    <path
       id="W"
       d="M 0,720 L 320,0 h 144 l 195,438.75 l 195,-438.75 h 144 l 320,720 h -197 l -195,-438.75 l -195,438.75 h -144 l -195,-438.75 l -195,438.75 z" />
    <path
       id="I"
       d="M 0,0 h 180 v 720 h -180 z" />
    <path
       id="K"
       d="M  0,0 h 180 v 720 h -180 z M 90,360 l 360,-360 h 255 l -360,360 l 360,360 h -255 z" />
    <path
       id="M"
       d="M 0,0 h 180 v 466 l 220,-220 l 220,220 V 0 h 180 v 720 h -180 l -220,-220 l -220,220 h -180 z" />
    <path
       id="E"
       d="M 0,0 h 520 v 150 h -340 v 150 h 340 v150 h -340 v 120 h 340 v 150 h -520 z" />
    <path
       id="D"
       d="M 0,0 h 360 a 360,360,0 0,1 0,720 h -360 z M 180,150 v 420 h 120 a 210,210,0 0,0 0,-420 z" />
    <path
       id="A"
       d="M 0,0 h 196 l 194,453 l 194,-453 h 196 l -300,720 h -180 z M 180,120 h 450 v 120 h -450z" />
    <path
       id="C"
       d="M 684,504 a 276,204,0 1,1 0,-288 V 60 a 432,360,0 1,0 0 600 z" />
    <path
       id="O"
       d="M 0 360 a 408,360,0 0,0 816,0 a 408,360,0 0,0 -816,0 M 204,360 a 204,204,0 0,1 408,0 a 204,204,0 0,1 -408,0" />
    <path
       id="N"
       d="M 0,0 h 180 v 434 L 504,0 h 180 v 720 h -180 v -434 L 180 720 h -180 z" />
    <path
       id="S"
       d="M 15,83 C 93,14 186,0 265,0 C 425,0 545,156 485,292 S 190,445 190,525 S 370,610 490,505 V 655 C 435,690 370,720 260,720 S -35,615 30,460 S 330,300 330,220 S 150,120 15,245 z" />
  </defs>
  <g
     fill="#666"
     id="g78"
     style="fill:#000000">
    <g
       transform="translate(0 415) scale(.111111111 -.111111111) translate(-3335)"
       id="g60"
       style="fill:#000000">
      <use
         xlink:href="#W"
         id="use42"
         style="fill:#000000" />
      <use
         xlink:href="#I"
         x="1440"
         id="use44"
         style="fill:#000000" />
      <use
         xlink:href="#K"
         x="1860"
         id="use46"
         style="fill:#000000" />
      <use
         xlink:href="#I"
         x="2680"
         id="use48"
         style="fill:#000000" />
      <use
         xlink:href="#M"
         x="3100"
         id="use50"
         style="fill:#000000" />
      <use
         xlink:href="#E"
         x="4080"
         id="use52"
         style="fill:#000000" />
      <use
         xlink:href="#D"
         x="4780"
         id="use54"
         style="fill:#000000" />
      <use
         xlink:href="#I"
         x="5610"
         id="use56"
         style="fill:#000000" />
      <use
         xlink:href="#A"
         x="5890"
         id="use58"
         style="fill:#000000" />
    </g>
    <g
       transform="translate(0 515) scale(.111111111 -.111111111) translate(-2930)"
       id="g76"
       style="fill:#000000">
      <use
         xlink:href="#C"
         id="use62"
         style="fill:#000000" />
      <use
         xlink:href="#O"
         x="768"
         id="use64"
         style="fill:#000000" />
      <use
         xlink:href="#M"
         x="1686"
         id="use66"
         style="fill:#000000" />
      <use
         xlink:href="#M"
         x="2666"
         id="use68"
         style="fill:#000000" />
      <use
         xlink:href="#O"
         x="3574"
         id="use70"
         style="fill:#000000" />
      <use
         xlink:href="#N"
         x="4492"
         id="use72"
         style="fill:#000000" />
      <use
         xlink:href="#S"
         x="5357"
         id="use74"
         style="fill:#000000" />
    </g>
  </g>
</svg>
