<?xml version="1.0" encoding="UTF-8" standalone="no"?>
<svg
   xmlns:dc="http://purl.org/dc/elements/1.1/"
   xmlns:cc="http://creativecommons.org/ns#"
   xmlns:rdf="http://www.w3.org/1999/02/22-rdf-syntax-ns#"
   xmlns:svg="http://www.w3.org/2000/svg"
   xmlns="http://www.w3.org/2000/svg"
   xmlns:xlink="http://www.w3.org/1999/xlink"
   xmlns:sodipodi="http://sodipodi.sourceforge.net/DTD/sodipodi-0.dtd"
   xmlns:inkscape="http://www.inkscape.org/namespaces/inkscape"
   version="1.1"
   id="Wikimedia Logo"
   viewBox="-400 -525 798 1050"
   width="608"
   height="800"
   sodipodi:docname="Wikimedia-Commons-logo-en-NB.svg.2018_10_01_22_11_39.0.svg"
   inkscape:version="0.92.2 (5c3e80d, 2017-08-06)">
  <metadata
     id="metadata83">
    <rdf:RDF>
      <cc:Work
         rdf:about="">
        <dc:format>image/svg+xml</dc:format>
        <dc:type
           rdf:resource="http://purl.org/dc/dcmitype/StillImage" />
        <dc:title />
      </cc:Work>
    </rdf:RDF>
  </metadata>
  <sodipodi:namedview
     pagecolor="#ffffff"
     bordercolor="#666666"
     borderopacity="1"
     objecttolerance="10"
     gridtolerance="10"
     guidetolerance="10"
     inkscape:pageopacity="0"
     inkscape:pageshadow="2"
     inkscape:window-width="1340"
     inkscape:window-height="965"
     id="namedview81"
     showgrid="false"
     inkscape:zoom="3.337544"
     inkscape:cx="322.67133"
     inkscape:cy="613.73679"
     inkscape:window-x="0"
     inkscape:window-y="34"
     inkscape:window-maximized="0"
     inkscape:current-layer="Wikimedia Logo" />
  <defs
     id="defs5">
    <clipPath
       id="boundary">
      <circle
         r="298"
         id="circle2" />
    </clipPath>
  </defs>
  <path
     style="fill:#000000;stroke:none"
     d="M 100,0 A 100,100 0 0 1 0,100 100,100 0 0 1 -100,0 100,100 0 0 1 0,-100 100,100 0 0 1 100,0 Z"
     id="circle7" />
  <path
     style="color:#000000;font-style:normal;font-variant:normal;font-weight:normal;font-stretch:normal;font-size:medium;line-height:normal;font-family:sans-serif;font-variant-ligatures:normal;font-variant-position:normal;font-variant-caps:normal;font-variant-numeric:normal;font-variant-alternates:normal;font-feature-settings:normal;text-indent:0;text-align:start;text-decoration:none;text-decoration-line:none;text-decoration-style:solid;text-decoration-color:#000000;letter-spacing:normal;word-spacing:normal;text-transform:none;writing-mode:lr-tb;direction:ltr;text-orientation:mixed;dominant-baseline:auto;baseline-shift:baseline;text-anchor:start;white-space:normal;shape-padding:0;clip-rule:nonzero;display:inline;overflow:visible;visibility:visible;opacity:1;isolation:auto;mix-blend-mode:normal;color-interpolation:sRGB;color-interpolation-filters:linearRGB;solid-color:#000000;solid-opacity:1;vector-effect:none;fill:#000000;fill-opacity:1;fill-rule:nonzero;stroke:none;stroke-width:22;stroke-linecap:butt;stroke-linejoin:miter;stroke-miterlimit:4;stroke-dasharray:none;stroke-dashoffset:0;stroke-opacity:1;color-rendering:auto;image-rendering:auto;shape-rendering:auto;text-rendering:auto;enable-background:accumulate"
     d="m -11,180 0,109.38216 H 11 L 11,180 Z"
     id="line9"
     inkscape:connector-curvature="0"
     sodipodi:nodetypes="ccccc" />
  <path
     inkscape:connector-curvature="0"
     style="fill:#000000;fill-opacity:1;stroke:none"
     id="path11"
     d="M -43,185 0,110 43,185 Z" />
  <path
     style="color:#000000;font-style:normal;font-variant:normal;font-weight:normal;font-stretch:normal;font-size:medium;line-height:normal;font-family:sans-serif;font-variant-ligatures:normal;font-variant-position:normal;font-variant-caps:normal;font-variant-numeric:normal;font-variant-alternates:normal;font-feature-settings:normal;text-indent:0;text-align:start;text-decoration:none;text-decoration-line:none;text-decoration-style:solid;text-decoration-color:#000000;letter-spacing:normal;word-spacing:normal;text-transform:none;writing-mode:lr-tb;direction:ltr;text-orientation:mixed;dominant-baseline:auto;baseline-shift:baseline;text-anchor:start;white-space:normal;shape-padding:0;clip-rule:nonzero;display:inline;overflow:visible;visibility:visible;opacity:1;isolation:auto;mix-blend-mode:normal;color-interpolation:sRGB;color-interpolation-filters:linearRGB;solid-color:#000000;solid-opacity:1;vector-effect:none;fill:#000000;fill-opacity:1;fill-rule:nonzero;stroke:none;stroke-width:22;stroke-linecap:butt;stroke-linejoin:miter;stroke-miterlimit:4;stroke-dasharray:none;stroke-dashoffset:0;stroke-opacity:1;color-rendering:auto;image-rendering:auto;shape-rendering:auto;text-rendering:auto;enable-background:accumulate"
     d="m -193.61216,209.16855 74.11021,-74.11191 -15.55469,-15.55469 -75.22422,75.2225 z"
     id="path960"
     inkscape:connector-curvature="0"
     sodipodi:nodetypes="ccccc" />
  <path
     d="M -161.22035,100.40916 -77.781746,77.781746 -100.40916,161.22035 Z"
     id="path962"
     style="fill:#000000;fill-opacity:1;stroke:none"
     inkscape:connector-curvature="0" />
  <path
     style="color:#000000;font-style:normal;font-variant:normal;font-weight:normal;font-stretch:normal;font-size:medium;line-height:normal;font-family:sans-serif;font-variant-ligatures:normal;font-variant-position:normal;font-variant-caps:normal;font-variant-numeric:normal;font-variant-alternates:normal;font-feature-settings:normal;text-indent:0;text-align:start;text-decoration:none;text-decoration-line:none;text-decoration-style:solid;text-decoration-color:#000000;letter-spacing:normal;word-spacing:normal;text-transform:none;writing-mode:lr-tb;direction:ltr;text-orientation:mixed;dominant-baseline:auto;baseline-shift:baseline;text-anchor:start;white-space:normal;shape-padding:0;clip-rule:nonzero;display:inline;overflow:visible;visibility:visible;opacity:1;isolation:auto;mix-blend-mode:normal;color-interpolation:sRGB;color-interpolation-filters:linearRGB;solid-color:#000000;solid-opacity:1;vector-effect:none;fill:#000000;fill-opacity:1;fill-rule:nonzero;stroke:none;stroke-width:22;stroke-linecap:butt;stroke-linejoin:miter;stroke-miterlimit:4;stroke-dasharray:none;stroke-dashoffset:0;stroke-opacity:1;color-rendering:auto;image-rendering:auto;shape-rendering:auto;text-rendering:auto;enable-background:accumulate"
     d="M -283.87182,-11 V 11 L -180,11 v -22 z"
     id="path954"
     inkscape:connector-curvature="0"
     sodipodi:nodetypes="ccccc" />
  <path
     d="m -185,-43 75,43 -75,43 z"
     id="path956"
     style="fill:#000000;fill-opacity:1;stroke:none"
     inkscape:connector-curvature="0" />
  <path
     style="color:#000000;font-style:normal;font-variant:normal;font-weight:normal;font-stretch:normal;font-size:medium;line-height:normal;font-family:sans-serif;font-variant-ligatures:normal;font-variant-position:normal;font-variant-caps:normal;font-variant-numeric:normal;font-variant-alternates:normal;font-feature-settings:normal;text-indent:0;text-align:start;text-decoration:none;text-decoration-line:none;text-decoration-style:solid;text-decoration-color:#000000;letter-spacing:normal;word-spacing:normal;text-transform:none;writing-mode:lr-tb;direction:ltr;text-orientation:mixed;dominant-baseline:auto;baseline-shift:baseline;text-anchor:start;white-space:normal;shape-padding:0;clip-rule:nonzero;display:inline;overflow:visible;visibility:visible;opacity:1;isolation:auto;mix-blend-mode:normal;color-interpolation:sRGB;color-interpolation-filters:linearRGB;solid-color:#000000;solid-opacity:1;vector-effect:none;fill:#000000;fill-opacity:1;fill-rule:nonzero;stroke:none;stroke-width:22;stroke-linecap:butt;stroke-linejoin:miter;stroke-miterlimit:4;stroke-dasharray:none;stroke-dashoffset:0;stroke-opacity:1;color-rendering:auto;image-rendering:auto;shape-rendering:auto;text-rendering:auto;enable-background:accumulate"
     d="m -203.17376,-218.53377 -15.55664,15.55664 13.17685,12.97989 70.49691,70.49529 15.55469,-15.55469 -66.60236,-66.60389 z"
     id="path948"
     inkscape:connector-curvature="0"
     sodipodi:nodetypes="ccccccc" />
  <path
     d="m -100.40916,-161.22035 22.627414,83.438604 -83.438604,-22.627414 z"
     id="path950"
     style="fill:#000000;fill-opacity:1;stroke:none"
     inkscape:connector-curvature="0" />
  <path
     style="color:#000000;font-style:normal;font-variant:normal;font-weight:normal;font-stretch:normal;font-size:medium;line-height:normal;font-family:sans-serif;font-variant-ligatures:normal;font-variant-position:normal;font-variant-caps:normal;font-variant-numeric:normal;font-variant-alternates:normal;font-feature-settings:normal;text-indent:0;text-align:start;text-decoration:none;text-decoration-line:none;text-decoration-style:solid;text-decoration-color:#000000;letter-spacing:normal;word-spacing:normal;text-transform:none;writing-mode:lr-tb;direction:ltr;text-orientation:mixed;dominant-baseline:auto;baseline-shift:baseline;text-anchor:start;white-space:normal;shape-padding:0;clip-rule:nonzero;display:inline;overflow:visible;visibility:visible;opacity:1;isolation:auto;mix-blend-mode:normal;color-interpolation:sRGB;color-interpolation-filters:linearRGB;solid-color:#000000;solid-opacity:1;vector-effect:none;fill:#000000;fill-opacity:1;fill-rule:nonzero;stroke:none;stroke-width:22;stroke-linecap:butt;stroke-linejoin:miter;stroke-miterlimit:4;stroke-dasharray:none;stroke-dashoffset:0;stroke-opacity:1;color-rendering:auto;image-rendering:auto;shape-rendering:auto;text-rendering:auto;enable-background:accumulate"
     d="m 207.72019,192.16383 -72.66355,-72.66188 -15.55469,15.55469 73.64499,73.64668"
     id="path930"
     inkscape:connector-curvature="0"
     sodipodi:nodetypes="cccc" />
  <path
     inkscape:connector-curvature="0"
     style="fill:#000000;fill-opacity:1;stroke:none"
     id="path932"
     d="M 161.22035,100.40916 77.781746,77.781746 100.40916,161.22035 Z" />
  <path
     style="color:#000000;font-style:normal;font-variant:normal;font-weight:normal;font-stretch:normal;font-size:medium;line-height:normal;font-family:sans-serif;font-variant-ligatures:normal;font-variant-position:normal;font-variant-caps:normal;font-variant-numeric:normal;font-variant-alternates:normal;font-feature-settings:normal;text-indent:0;text-align:start;text-decoration:none;text-decoration-line:none;text-decoration-style:solid;text-decoration-color:#000000;letter-spacing:normal;word-spacing:normal;text-transform:none;writing-mode:lr-tb;direction:ltr;text-orientation:mixed;dominant-baseline:auto;baseline-shift:baseline;text-anchor:start;white-space:normal;shape-padding:0;clip-rule:nonzero;display:inline;overflow:visible;visibility:visible;opacity:1;isolation:auto;mix-blend-mode:normal;color-interpolation:sRGB;color-interpolation-filters:linearRGB;solid-color:#000000;solid-opacity:1;vector-effect:none;fill:#000000;fill-opacity:1;fill-rule:nonzero;stroke:none;stroke-width:22;stroke-linecap:butt;stroke-linejoin:miter;stroke-miterlimit:4;stroke-dasharray:none;stroke-dashoffset:0;stroke-opacity:1;color-rendering:auto;image-rendering:auto;shape-rendering:auto;text-rendering:auto;enable-background:accumulate"
     d="m 180,-11 v 22 l 103.48336,0 v -22 z"
     id="path936"
     inkscape:connector-curvature="0"
     sodipodi:nodetypes="ccccc" />
  <path
     inkscape:connector-curvature="0"
     style="fill:#000000;fill-opacity:1;stroke:none"
     id="path938"
     d="M 185,-43 110,0 185,43 Z" />
  <path
     style="color:#000000;font-style:normal;font-variant:normal;font-weight:normal;font-stretch:normal;font-size:medium;line-height:normal;font-family:sans-serif;font-variant-ligatures:normal;font-variant-position:normal;font-variant-caps:normal;font-variant-numeric:normal;font-variant-alternates:normal;font-feature-settings:normal;text-indent:0;text-align:start;text-decoration:none;text-decoration-line:none;text-decoration-style:solid;text-decoration-color:#000000;letter-spacing:normal;word-spacing:normal;text-transform:none;writing-mode:lr-tb;direction:ltr;text-orientation:mixed;dominant-baseline:auto;baseline-shift:baseline;text-anchor:start;white-space:normal;shape-padding:0;clip-rule:nonzero;display:inline;overflow:visible;visibility:visible;opacity:1;isolation:auto;mix-blend-mode:normal;color-interpolation:sRGB;color-interpolation-filters:linearRGB;solid-color:#000000;solid-opacity:1;vector-effect:none;fill:#000000;fill-opacity:1;fill-rule:nonzero;stroke:none;stroke-width:22;stroke-linecap:butt;stroke-linejoin:miter;stroke-miterlimit:4;stroke-dasharray:none;stroke-dashoffset:0;stroke-opacity:1;color-rendering:auto;image-rendering:auto;shape-rendering:auto;text-rendering:auto;enable-background:accumulate"
     d="m 187.83118,-203.38744 -68.32923,68.3308 15.55469,15.55469 67.15101,-67.14947 z"
     id="path942"
     inkscape:connector-curvature="0"
     sodipodi:nodetypes="ccccc" />
  <path
     inkscape:connector-curvature="0"
     style="fill:#000000;fill-opacity:1;stroke:none"
     id="path944"
     d="M 100.40916,-161.22035 77.781746,-77.781746 161.22035,-100.40916 Z" />
  <path
     style="color:#000000;font-style:normal;font-variant:normal;font-weight:normal;font-stretch:normal;font-size:medium;line-height:normal;font-family:sans-serif;font-variant-ligatures:normal;font-variant-position:normal;font-variant-caps:normal;font-variant-numeric:normal;font-variant-alternates:normal;font-feature-settings:normal;text-indent:0;text-align:start;text-decoration:none;text-decoration-line:none;text-decoration-style:solid;text-decoration-color:#000000;letter-spacing:normal;word-spacing:normal;text-transform:none;writing-mode:lr-tb;direction:ltr;text-orientation:mixed;dominant-baseline:auto;baseline-shift:baseline;text-anchor:start;white-space:normal;shape-padding:0;clip-rule:nonzero;display:inline;overflow:visible;visibility:visible;opacity:1;isolation:auto;mix-blend-mode:normal;color-interpolation:sRGB;color-interpolation-filters:linearRGB;solid-color:#000000;solid-opacity:1;vector-effect:none;fill:#000000;fill-opacity:1;fill-rule:nonzero;stroke:none;stroke-width:84;stroke-linecap:butt;stroke-linejoin:miter;stroke-miterlimit:4;stroke-dasharray:none;stroke-dashoffset:0;stroke-opacity:1;color-rendering:auto;image-rendering:auto;shape-rendering:auto;text-rendering:auto;enable-background:accumulate"
     d="m 23.9375,-376.90625 -83.230469,11.34961 c 11.93992,87.55941 58.1331463,135.86444 103.480469,158.74805 45.347323,22.8836 81.77596,30.13143 107.13281,55.48828 61.2887,61.288706 79.5597,153.136804 46.39063,233.210935 C 164.54195,161.96452 86.676945,213.98633 0,213.98633 c -21.612707,0 -42.639117,-3.24016 -62.589844,-9.34375 C -122.65089,186.26794 -172.81255,141.99829 -197.71094,81.890625 -230.88001,1.816494 -212.60901,-90.031604 -151.32031,-151.32031 l -59.39844,-59.39844 c -85.1421,85.14211 -110.67712,213.5145018 -64.59766,324.75586 34.58962,83.50346 104.46141,145.32784 188.152348,170.93164 27.800011,8.50495 57.140975,13.01758 87.164062,13.01758 120.4066,0 229.23701,-72.70803 275.31641,-183.94922 46.07946,-111.2413582 20.54444,-239.61375 -64.59766,-324.75586 -45.35383,-45.35382 -97.66729,-55.42831 -128.6875,-71.08203 -31.020211,-15.65372 -48.820466,-27.10139 -58.09375,-95.10547 z"
     id="blue_path"
     inkscape:connector-curvature="0" />
  <path
     inkscape:connector-curvature="0"
     style="fill:#000000;stroke:none"
     d="m -23,-515 c 0,0 -36,135 -80,185 -44,50 116,-62 170,-5 54,57 -90,-180 -90,-180 z"
     id="arrow_top" />
  <defs
     id="defs40">
    <path
       id="W"
       d="M 0,720 L 320,0 h 144 l 195,438.75 l 195,-438.75 h 144 l 320,720 h -197 l -195,-438.75 l -195,438.75 h -144 l -195,-438.75 l -195,438.75 z" />
    <path
       id="I"
       d="M 0,0 h 180 v 720 h -180 z" />
    <path
       id="K"
       d="M  0,0 h 180 v 720 h -180 z M 90,360 l 360,-360 h 255 l -360,360 l 360,360 h -255 z" />
    <path
       id="M"
       d="M 0,0 h 180 v 466 l 220,-220 l 220,220 V 0 h 180 v 720 h -180 l -220,-220 l -220,220 h -180 z" />
    <path
       id="E"
       d="M 0,0 h 520 v 150 h -340 v 150 h 340 v150 h -340 v 120 h 340 v 150 h -520 z" />
    <path
       id="D"
       d="M 0,0 h 360 a 360,360,0 0,1 0,720 h -360 z M 180,150 v 420 h 120 a 210,210,0 0,0 0,-420 z" />
    <path
       id="A"
       d="M 0,0 h 196 l 194,453 l 194,-453 h 196 l -300,720 h -180 z M 180,120 h 450 v 120 h -450z" />
    <path
       id="C"
       d="M 684,504 a 276,204,0 1,1 0,-288 V 60 a 432,360,0 1,0 0 600 z" />
    <path
       id="O"
       d="M 0 360 a 408,360,0 0,0 816,0 a 408,360,0 0,0 -816,0 M 204,360 a 204,204,0 0,1 408,0 a 204,204,0 0,1 -408,0" />
    <path
       id="N"
       d="M 0,0 h 180 v 434 L 504,0 h 180 v 720 h -180 v -434 L 180 720 h -180 z" />
    <path
       id="S"
       d="M 15,83 C 93,14 186,0 265,0 C 425,0 545,156 485,292 S 190,445 190,525 S 370,610 490,505 V 655 C 435,690 370,720 260,720 S -35,615 30,460 S 330,300 330,220 S 150,120 15,245 z" />
  </defs>
  <g
     fill="#666"
     id="g78"
     style="fill:#000000">
    <use
       height="100%"
       width="100%"
       y="0"
       x="0"
       style="fill:#000000"
       id="use42"
       xlink:href="#W"
       transform="matrix(0.11111111,0,0,-0.11111111,-370.55556,415)" />
    <use
       height="100%"
       width="100%"
       y="0"
       style="fill:#000000"
       id="use44"
       x="1440"
       xlink:href="#I"
       transform="matrix(0.11111111,0,0,-0.11111111,-370.55556,415)" />
    <use
       height="100%"
       width="100%"
       y="0"
       style="fill:#000000"
       id="use46"
       x="1860"
       xlink:href="#K"
       transform="matrix(0.11111111,0,0,-0.11111111,-370.55556,415)" />
    <use
       height="100%"
       width="100%"
       y="0"
       style="fill:#000000"
       id="use48"
       x="2680"
       xlink:href="#I"
       transform="matrix(0.11111111,0,0,-0.11111111,-370.55556,415)" />
    <use
       height="100%"
       width="100%"
       y="0"
       style="fill:#000000"
       id="use50"
       x="3100"
       xlink:href="#M"
       transform="matrix(0.11111111,0,0,-0.11111111,-370.55556,415)" />
    <use
       height="100%"
       width="100%"
       y="0"
       style="fill:#000000"
       id="use52"
       x="4080"
       xlink:href="#E"
       transform="matrix(0.11111111,0,0,-0.11111111,-370.55556,415)" />
    <use
       height="100%"
       width="100%"
       y="0"
       style="fill:#000000"
       id="use54"
       x="4780"
       xlink:href="#D"
       transform="matrix(0.11111111,0,0,-0.11111111,-370.55556,415)" />
    <use
       height="100%"
       width="100%"
       y="0"
       style="fill:#000000"
       id="use56"
       x="5610"
       xlink:href="#I"
       transform="matrix(0.11111111,0,0,-0.11111111,-370.55556,415)" />
    <use
       height="100%"
       width="100%"
       y="0"
       style="fill:#000000"
       id="use58"
       x="5890"
       xlink:href="#A"
       transform="matrix(0.11111111,0,0,-0.11111111,-370.55556,415)" />
    <use
       height="100%"
       width="100%"
       y="0"
       x="0"
       style="fill:#000000"
       id="use62"
       xlink:href="#C"
       transform="matrix(0.11111111,0,0,-0.11111111,-325.55556,515)" />
    <use
       height="100%"
       width="100%"
       y="0"
       style="fill:#000000"
       id="use64"
       x="768"
       xlink:href="#O"
       transform="matrix(0.11111111,0,0,-0.11111111,-325.55556,515)" />
    <use
       height="100%"
       width="100%"
       y="0"
       style="fill:#000000"
       id="use66"
       x="1686"
       xlink:href="#M"
       transform="matrix(0.11111111,0,0,-0.11111111,-325.55556,515)" />
    <use
       height="100%"
       width="100%"
       y="0"
       style="fill:#000000"
       id="use68"
       x="2666"
       xlink:href="#M"
       transform="matrix(0.11111111,0,0,-0.11111111,-325.55556,515)" />
    <use
       height="100%"
       width="100%"
       y="0"
       style="fill:#000000"
       id="use70"
       x="3574"
       xlink:href="#O"
       transform="matrix(0.11111111,0,0,-0.11111111,-325.55556,515)" />
    <use
       height="100%"
       width="100%"
       y="0"
       style="fill:#000000"
       id="use72"
       x="4492"
       xlink:href="#N"
       transform="matrix(0.11111111,0,0,-0.11111111,-325.55556,515)" />
    <use
       height="100%"
       width="100%"
       y="0"
       style="fill:#000000"
       id="use74"
       x="5357"
       xlink:href="#S"
       transform="matrix(0.11111111,0,0,-0.11111111,-325.55556,515)" />
  </g>
</svg>
