<?xml version="1.0" encoding="UTF-8" standalone="no"?>
<svg
   xmlns:dc="http://purl.org/dc/elements/1.1/"
   xmlns:cc="http://creativecommons.org/ns#"
   xmlns:rdf="http://www.w3.org/1999/02/22-rdf-syntax-ns#"
   xmlns:svg="http://www.w3.org/2000/svg"
   xmlns="http://www.w3.org/2000/svg"
   xmlns:xlink="http://www.w3.org/1999/xlink"
   xmlns:sodipodi="http://sodipodi.sourceforge.net/DTD/sodipodi-0.dtd"
   xmlns:inkscape="http://www.inkscape.org/namespaces/inkscape"
   width="325.68607pt"
   version="1.1"
   height="438.15607pt"
   viewBox="0 0 325.68605 438.15606"
   id="svg163"
   sodipodi:docname="cover-design.svg"
   inkscape:version="0.92.2 (5c3e80d, 2017-08-06)">
  <metadata
     id="metadata167">
    <rdf:RDF>
      <cc:Work
         rdf:about="">
        <dc:format>image/svg+xml</dc:format>
        <dc:type
           rdf:resource="http://purl.org/dc/dcmitype/StillImage" />
        <dc:title />
      </cc:Work>
    </rdf:RDF>
  </metadata>
  <sodipodi:namedview
     pagecolor="#ffffff"
     bordercolor="#666666"
     borderopacity="1"
     objecttolerance="10"
     gridtolerance="10"
     guidetolerance="10"
     inkscape:pageopacity="0"
     inkscape:pageshadow="2"
     inkscape:window-width="1505"
     inkscape:window-height="998"
     id="namedview165"
     showgrid="false"
     fit-margin-top="0"
     fit-margin-left="0"
     fit-margin-right="0"
     fit-margin-bottom="0"
     inkscape:zoom="0.84096496"
     inkscape:cx="100.08691"
     inkscape:cy="343.00153"
     inkscape:window-x="0"
     inkscape:window-y="34"
     inkscape:window-maximized="0"
     inkscape:current-layer="content" />
  <defs
     id="defs30">
    <clipPath
       id="Clip0">
      <path
         d="M 0,0 H 293.631 V 400.357 H 0 Z"
         transform="translate(694.377,222.024)"
         id="path2"
         inkscape:connector-curvature="0" />
    </clipPath>
    <path
       id="GlGlacialIndifference-Regular67"
       d="M 6.99,7.92 H 6.22 C 5.98,8.36 5.65,8.72 5.23,8.98 4.81,9.25 4.34,9.38 3.84,9.38 3.09,9.38 2.45,9.11 1.92,8.55 1.4,8.02 1.15,7.37 1.15,6.61 1.15,5.85 1.4,5.2 1.92,4.66 2.16,4.41 2.45,4.21 2.78,4.06 3.1,3.91 3.42,3.83 3.74,3.83 4.05,3.83 4.32,3.87 4.56,3.94 5.29,4.16 5.84,4.6 6.21,5.27 H 6.98 C 6.72,4.63 6.31,4.11 5.74,3.71 5.16,3.31 4.53,3.11 3.84,3.11 2.89,3.11 2.09,3.46 1.43,4.15 1.12,4.47 0.88,4.85 0.71,5.27 0.53,5.69 0.45,6.14 0.45,6.61 c 0,0.96 0.32,1.77 0.98,2.45 0.66,0.7 1.46,1.04 2.41,1.04 0.69,0 1.32,-0.2 1.91,-0.6 C 6.32,9.1 6.73,8.58 6.99,7.92 Z"
       inkscape:connector-curvature="0" />
    <path
       id="GlGlacialIndifference-Regular111"
       d="M 4.35,7.78 C 4.35,8.22 4.19,8.59 3.88,8.9 3.56,9.22 3.19,9.37 2.75,9.37 2.31,9.37 1.93,9.22 1.62,8.9 1.3,8.59 1.15,8.22 1.15,7.78 1.15,7.34 1.3,6.97 1.62,6.65 1.93,6.34 2.31,6.18 2.75,6.18 c 0.44,0 0.81,0.16 1.13,0.47 0.31,0.32 0.47,0.69 0.47,1.13 z m 0.7,0 C 5.05,7.15 4.82,6.61 4.37,6.16 3.92,5.71 3.38,5.48 2.75,5.48 2.11,5.48 1.57,5.71 1.12,6.16 0.67,6.61 0.45,7.15 0.45,7.78 c 0,0.64 0.22,1.18 0.67,1.62 0.45,0.45 1,0.67 1.63,0.67 0.62,0 1.17,-0.22 1.62,-0.67 C 4.82,8.96 5.05,8.42 5.05,7.78 Z"
       inkscape:connector-curvature="0" />
    <path
       id="GlGlacialIndifference-Regular112"
       d="M 1.45,12.5 V 9.25 C 1.48,9.31 1.53,9.36 1.57,9.4 1.99,9.87 2.5,10.1 3.11,10.1 3.71,10.1 4.22,9.87 4.64,9.4 5.04,8.95 5.25,8.42 5.25,7.8 5.25,7.19 5.04,6.66 4.64,6.2 4.22,5.74 3.71,5.5 3.11,5.5 2.5,5.5 1.99,5.74 1.57,6.2 1.53,6.25 1.48,6.3 1.45,6.36 V 5.6 h -0.7 v 6.9 h 0.7 z M 4.55,7.8 C 4.55,8.23 4.4,8.61 4.1,8.92 3.8,9.24 3.43,9.4 3,9.4 2.56,9.4 2.19,9.24 1.89,8.92 1.59,8.61 1.45,8.23 1.45,7.8 1.45,7.38 1.59,7 1.89,6.68 2.19,6.36 2.56,6.2 3,6.2 3.43,6.2 3.8,6.36 4.1,6.68 4.4,7 4.55,7.38 4.55,7.8 Z"
       inkscape:connector-curvature="0" />
    <path
       id="GlGlacialIndifference-Regular121"
       d="M 1.31,12.5 4.35,5.6 H 3.57 L 2.31,8.55 0.9,5.6 H 0.1 L 1.94,9.28 0.46,12.5 Z"
       inkscape:connector-curvature="0" />
    <path
       id="GlGlacialIndifference-Regular84"
       d="m 0.2,3.83 h 1.65 v 6.15 h 0.7 V 3.83 H 4.2 V 3.18 H 2.55 1.85 0.2 Z"
       inkscape:connector-curvature="0" />
    <path
       id="GlGlacialIndifference-Regular104"
       d="M 1.45,10 V 8.16 C 1.45,7.55 1.55,7.09 1.76,6.77 1.88,6.59 2.03,6.46 2.22,6.36 2.4,6.26 2.65,6.21 2.95,6.21 c 0.3,0 0.51,0.11 0.64,0.31 0.13,0.2 0.2,0.45 0.2,0.73 V 10 h 0.7 V 7.25 C 4.49,6.74 4.35,6.33 4.09,6.02 3.95,5.86 3.79,5.74 3.6,5.65 3.4,5.56 3.15,5.51 2.84,5.51 2.52,5.51 2.25,5.6 2.01,5.76 1.78,5.91 1.59,6.11 1.45,6.36 V 2.5 H 0.75 V 10 Z"
       inkscape:connector-curvature="0" />
    <path
       id="GlGlacialIndifference-Regular105"
       d="M 1.46,4.08 C 1.37,4 1.26,3.95 1.14,3.95 1.02,3.95 0.91,4 0.83,4.08 0.74,4.17 0.7,4.28 0.7,4.4 0.7,4.52 0.74,4.63 0.83,4.71 0.91,4.8 1.02,4.84 1.14,4.84 1.26,4.84 1.37,4.8 1.46,4.71 1.54,4.63 1.59,4.52 1.59,4.4 1.59,4.28 1.54,4.17 1.46,4.08 Z M 1.5,10 V 5.6 H 0.8 V 10 Z"
       inkscape:connector-curvature="0" />
    <path
       id="GlGlacialIndifference-Regular115"
       d="M 1.38,9.38 C 1.21,9.26 1.08,9.06 1.01,8.77 H 0.27 c 0.15,0.91 0.73,1.36 1.75,1.36 0.24,0 0.46,-0.02 0.67,-0.08 C 2.9,9.99 3.08,9.91 3.25,9.8 3.59,9.57 3.76,9.22 3.76,8.75 3.76,8.27 3.54,7.93 3.08,7.71 2.89,7.62 2.68,7.55 2.45,7.5 2.23,7.45 2.02,7.39 1.83,7.33 1.63,7.27 1.47,7.19 1.34,7.1 1.21,7.01 1.14,6.87 1.14,6.67 1.14,6.47 1.22,6.32 1.38,6.23 1.54,6.13 1.73,6.08 1.94,6.08 2.16,6.08 2.35,6.13 2.5,6.21 2.65,6.29 2.77,6.45 2.84,6.69 H 3.59 C 3.5,6.25 3.31,5.94 3.03,5.77 2.74,5.59 2.39,5.5 1.96,5.5 1.54,5.5 1.17,5.62 0.86,5.84 0.56,6.07 0.4,6.4 0.4,6.84 0.4,7.05 0.46,7.24 0.57,7.4 0.69,7.57 0.86,7.7 1.08,7.8 1.28,7.89 1.49,7.96 1.71,8.02 1.93,8.07 2.14,8.13 2.34,8.19 2.79,8.34 3.02,8.56 3.02,8.84 3.02,9.32 2.7,9.55 2.06,9.55 1.79,9.55 1.56,9.5 1.38,9.38 Z"
       inkscape:connector-curvature="0" />
    <path
       id="GlGlacialIndifference-Regular66"
       d="M 5.19,8.11 C 5.19,7.63 5.07,7.22 4.84,6.9 4.6,6.58 4.28,6.36 3.89,6.25 4.12,6.15 4.32,5.97 4.47,5.7 4.54,5.58 4.59,5.46 4.63,5.33 4.67,5.2 4.69,5.02 4.69,4.79 4.69,4.57 4.63,4.34 4.53,4.12 4.23,3.51 3.58,3.2 2.59,3.2 H 0.75 V 10 H 2.83 C 3.52,10 4.07,9.85 4.49,9.53 4.7,9.37 4.87,9.16 5,8.9 5.12,8.65 5.19,8.39 5.19,8.11 Z M 3.99,4.9 C 3.99,5.27 3.88,5.54 3.66,5.72 3.44,5.9 3.15,5.99 2.79,5.99 H 1.45 V 3.87 h 1.14 c 0.93,0 1.4,0.35 1.4,1.03 z m 0.5,3.07 C 4.49,8.38 4.35,8.71 4.07,8.96 3.8,9.21 3.45,9.33 3.03,9.33 H 1.45 V 6.69 h 1.69 c 0.35,0 0.66,0.12 0.93,0.36 0.12,0.11 0.22,0.24 0.3,0.39 0.08,0.16 0.12,0.33 0.12,0.53 z"
       inkscape:connector-curvature="0" />
    <path
       id="GlGlacialIndifference-Regular107"
       d="M 1.45,10 V 7.89 L 3.18,10 H 4.11 L 2.18,7.73 3.99,5.59 H 3.06 L 1.45,7.58 V 2.5 H 0.75 V 10 Z"
       inkscape:connector-curvature="0" />
    <path
       id="GlGlacialIndifference-Regular65"
       d="M 1.85,7.5 3.09,4.37 4.32,7.5 H 1.85 Z M 6.07,10 3.09,2.73 0.1,10 H 0.86 L 1.59,8.15 H 4.58 L 5.31,10 Z"
       inkscape:connector-curvature="0" />
    <path
       id="GlGlacialIndifference-Regular110"
       d="m 3.79,10 h 0.7 V 7.25 C 4.49,6.74 4.35,6.33 4.09,6.02 3.95,5.86 3.79,5.74 3.6,5.65 3.4,5.56 3.15,5.51 2.84,5.51 2.52,5.51 2.25,5.6 2.01,5.76 1.78,5.91 1.59,6.11 1.45,6.36 V 5.6 H 0.75 V 10 h 0.7 V 8.16 c 0,-0.56 0.1,-1 0.31,-1.33 C 1.88,6.65 2.03,6.5 2.22,6.38 2.4,6.27 2.65,6.21 2.95,6.21 c 0.3,0 0.51,0.11 0.64,0.31 0.13,0.2 0.2,0.45 0.2,0.73 z"
       inkscape:connector-curvature="0" />
    <path
       id="GlGlacialIndifference-Regular97"
       d="M 4.25,7.8 C 4.25,8.23 4.1,8.61 3.8,8.92 3.5,9.24 3.13,9.4 2.7,9.4 2.26,9.4 1.89,9.24 1.59,8.92 1.29,8.61 1.15,8.23 1.15,7.8 1.15,7.38 1.29,7 1.59,6.68 1.89,6.36 2.26,6.2 2.7,6.2 3.13,6.2 3.5,6.36 3.8,6.68 4.1,7 4.25,7.38 4.25,7.8 Z M 4.95,10 V 5.6 H 4.25 V 6.36 C 4.21,6.3 4.16,6.25 4.12,6.2 3.7,5.74 3.19,5.5 2.59,5.5 1.98,5.5 1.47,5.74 1.05,6.2 c -0.4,0.46 -0.6,0.99 -0.6,1.6 0,0.62 0.2,1.15 0.6,1.6 0.42,0.47 0.93,0.7 1.54,0.7 0.6,0 1.11,-0.23 1.53,-0.7 C 4.16,9.36 4.21,9.31 4.25,9.25 V 10 Z"
       inkscape:connector-curvature="0" />
    <path
       id="GlGlacialIndifference-Regular114"
       d="M 3.01,6.51 V 5.6 C 2.87,5.54 2.72,5.51 2.57,5.51 2.07,5.51 1.71,5.79 1.48,6.33 L 1.45,6.51 V 5.6 H 0.75 V 10 h 0.7 V 7.8 C 1.45,7.44 1.53,7.12 1.7,6.83 1.78,6.68 1.89,6.55 2.02,6.45 2.15,6.35 2.31,6.29 2.49,6.29 c 0.18,0 0.35,0.08 0.52,0.22 z"
       inkscape:connector-curvature="0" />
    <path
       id="GlGlacialIndifference-Regular116"
       d="M 0.2,6.25 H 1.3 V 10 H 2 V 6.25 H 3.09 V 5.6 H 2 V 3.89 H 1.3 V 5.6 H 0.2 Z"
       inkscape:connector-curvature="0" />
    <path
       id="GlGlacialIndifference-Regular8217"
       d="M 1.79,2.5 H 0.83 L 0.25,5.09 h 0.42 z"
       inkscape:connector-curvature="0" />
    <path
       id="GlGlacialIndifference-Regular103"
       d="M 4.31,7.8 C 4.31,8.23 4.16,8.61 3.86,8.92 3.56,9.24 3.19,9.4 2.76,9.4 2.33,9.4 1.96,9.24 1.66,8.92 1.36,8.61 1.21,8.24 1.21,7.8 1.21,7.37 1.36,7 1.66,6.68 1.96,6.36 2.33,6.2 2.76,6.2 3.19,6.2 3.56,6.36 3.86,6.68 4.16,7 4.31,7.38 4.31,7.8 Z M 1.19,10.6 H 0.47 c 0.08,0.47 0.29,0.88 0.65,1.23 0.44,0.45 0.98,0.67 1.61,0.67 0.62,0 1.16,-0.22 1.61,-0.67 0.44,-0.44 0.67,-0.98 0.67,-1.61 V 5.6 H 4.31 V 6.34 C 4.27,6.3 4.23,6.25 4.19,6.2 3.75,5.74 3.24,5.5 2.66,5.5 2.04,5.5 1.53,5.74 1.11,6.2 c -0.4,0.46 -0.6,0.99 -0.6,1.6 0,0.62 0.2,1.15 0.6,1.6 0.42,0.47 0.93,0.7 1.55,0.7 0.6,0 1.11,-0.23 1.53,-0.7 C 4.23,9.36 4.27,9.31 4.31,9.27 v 0.95 c 0,0.44 -0.16,0.81 -0.47,1.12 C 3.53,11.65 3.16,11.8 2.73,11.8 2.29,11.8 1.92,11.65 1.61,11.34 1.39,11.12 1.25,10.88 1.19,10.6 Z"
       inkscape:connector-curvature="0" />
    <path
       id="GlGlacialIndifference-Regular117"
       d="M 3.79,9.25 V 10 h 0.7 V 5.6 H 3.79 V 7.44 C 3.79,8.06 3.67,8.53 3.44,8.88 3.22,9.22 2.83,9.39 2.29,9.39 1.99,9.39 1.77,9.29 1.64,9.09 1.51,8.89 1.45,8.64 1.45,8.35 V 5.6 h -0.7 v 2.75 c 0,0.51 0.13,0.93 0.41,1.26 0.28,0.32 0.66,0.48 1.16,0.48 0.65,0 1.14,-0.28 1.47,-0.84 z"
       inkscape:connector-curvature="0" />
    <path
       id="GlGlacialIndifference-Regular100"
       d="M 4.25,7.8 C 4.25,8.23 4.1,8.61 3.8,8.92 3.5,9.24 3.13,9.4 2.7,9.4 2.26,9.4 1.89,9.24 1.59,8.92 1.29,8.61 1.15,8.23 1.15,7.8 1.15,7.38 1.29,7 1.59,6.68 1.89,6.36 2.26,6.2 2.7,6.2 3.13,6.2 3.5,6.36 3.8,6.68 4.1,7 4.25,7.38 4.25,7.8 Z M 4.95,10 V 2.5 H 4.25 V 6.36 C 4.21,6.3 4.16,6.25 4.12,6.2 3.7,5.74 3.19,5.5 2.59,5.5 1.98,5.5 1.47,5.74 1.05,6.2 c -0.4,0.46 -0.6,0.99 -0.6,1.6 0,0.62 0.2,1.15 0.6,1.6 0.42,0.47 0.93,0.7 1.54,0.7 0.6,0 1.11,-0.23 1.53,-0.7 C 4.16,9.36 4.21,9.31 4.25,9.25 V 10 Z"
       inkscape:connector-curvature="0" />
    <path
       id="GlGlacialIndifference-Regular101"
       d="M 5.05,7.7 C 5.05,7.1 4.81,6.58 4.35,6.13 3.9,5.7 3.36,5.48 2.75,5.48 2.11,5.48 1.57,5.71 1.12,6.16 0.67,6.61 0.45,7.15 0.45,7.78 c 0,0.64 0.22,1.18 0.67,1.62 0.21,0.21 0.45,0.37 0.73,0.49 0.28,0.12 0.61,0.18 1,0.18 0.39,0 0.77,-0.12 1.15,-0.36 0.38,-0.24 0.66,-0.58 0.85,-1 H 4.05 C 3.89,8.92 3.7,9.08 3.47,9.2 3.24,9.32 3,9.37 2.75,9.37 2.37,9.37 2.03,9.25 1.73,9 1.43,8.76 1.24,8.45 1.18,8.07 H 5.05 V 7.7 Z M 4.31,7.47 H 1.19 C 1.23,7.29 1.3,7.12 1.4,6.96 1.72,6.44 2.17,6.18 2.75,6.18 c 0.37,0 0.7,0.12 0.99,0.36 0.3,0.25 0.48,0.56 0.57,0.93 z"
       inkscape:connector-curvature="0" />
    <path
       id="GlGlacialIndifference-Regular99"
       d="M 4.86,7.18 C 4.72,6.69 4.45,6.29 4.06,5.98 3.65,5.67 3.2,5.51 2.7,5.51 2.07,5.51 1.53,5.74 1.1,6.19 0.66,6.64 0.45,7.18 0.45,7.8 c 0,0.63 0.21,1.16 0.65,1.62 0.2,0.21 0.43,0.38 0.71,0.5 0.27,0.12 0.55,0.18 0.83,0.18 0.28,0 0.53,-0.03 0.75,-0.11 C 4.09,9.74 4.57,9.27 4.82,8.56 H 4.03 C 3.89,8.81 3.71,9.01 3.47,9.15 3.23,9.3 2.98,9.37 2.7,9.37 2.27,9.37 1.91,9.22 1.61,8.91 1.31,8.6 1.17,8.23 1.17,7.8 1.17,7.39 1.31,7.02 1.61,6.71 1.75,6.57 1.91,6.45 2.1,6.37 2.28,6.29 2.51,6.24 2.77,6.24 3.03,6.24 3.28,6.33 3.54,6.5 3.79,6.68 3.98,6.9 4.1,7.18 Z"
       inkscape:connector-curvature="0" />
    <path
       id="GlGlacialIndifference-Regular69"
       d="M 4.79,10 V 9.35 H 1.45 V 6.93 H 4.69 V 6.27 H 1.45 V 3.85 H 4.79 V 3.2 H 0.75 V 10 Z"
       inkscape:connector-curvature="0" />
    <path
       id="GlGlacialIndifference-Regular83"
       d="M 2.63,6.8 C 3.51,7.01 4.11,7.24 4.43,7.5 4.65,7.68 4.76,7.91 4.76,8.19 4.76,8.47 4.7,8.7 4.58,8.86 4.28,9.28 3.74,9.49 2.98,9.49 1.92,9.49 1.32,9.13 1.19,8.41 H 0.37 c 0.24,1.15 1.11,1.72 2.61,1.72 0.67,0 1.23,-0.14 1.68,-0.44 C 5.2,9.34 5.48,8.82 5.48,8.14 5.48,7.58 5.26,7.15 4.82,6.85 4.51,6.63 4.01,6.43 3.32,6.25 2.62,6.07 2.17,5.92 1.96,5.81 1.5,5.58 1.27,5.26 1.28,4.84 1.28,4.62 1.32,4.43 1.42,4.29 1.68,3.9 2.14,3.7 2.8,3.7 3.73,3.7 4.26,4 4.4,4.58 H 5.16 C 4.91,3.6 4.12,3.1 2.8,3.1 2.2,3.1 1.67,3.26 1.23,3.58 0.78,3.9 0.55,4.37 0.55,5.01 c 0,0.87 0.7,1.47 2.08,1.79 z"
       inkscape:connector-curvature="0" />
    <path
       id="GlGlacialIndifference-Regular106"
       d="M 1.65,4.4 C 1.65,4.28 1.6,4.17 1.52,4.08 1.43,4 1.32,3.95 1.2,3.95 1.07,3.95 0.96,4 0.88,4.08 0.79,4.17 0.75,4.28 0.75,4.4 0.75,4.53 0.79,4.64 0.88,4.72 0.96,4.81 1.07,4.85 1.2,4.85 1.32,4.85 1.43,4.81 1.52,4.72 1.6,4.64 1.65,4.53 1.65,4.4 Z m -0.1,6.44 V 5.6 h -0.7 v 5.25 c 0,0.49 -0.15,0.79 -0.43,0.9 -0.12,0.05 -0.24,0.06 -0.36,0.03 -0.12,-0.03 -0.23,-0.09 -0.31,-0.17 v 0.67 c 0.13,0.09 0.3,0.14 0.51,0.15 0.2,0.02 0.4,-0.03 0.59,-0.13 0.19,-0.1 0.35,-0.26 0.49,-0.49 0.14,-0.23 0.21,-0.55 0.21,-0.97 z"
       inkscape:connector-curvature="0" />
    <path
       id="GlGlacialIndifference-Regular118"
       d="M 2.13,10.42 4.15,5.6 H 3.39 L 2.13,8.87 0.86,5.6 H 0.1 Z"
       inkscape:connector-curvature="0" />
  </defs>
  <g
     id="content"
     transform="translate(-669.87789,-193.1361)">
    <path
       style="fill:none;fill-rule:evenodd;stroke:#2d3e9f;stroke-width:1.78583002;stroke-linecap:butt;stroke-linejoin:miter;stroke-dasharray:none;stroke-opacity:1"
       id="Polyline7118"
       d="m 0.0875,400.744 31.35,35.55 292.4255,0.075 L 323.9,35.1192 288.163,0.319222 0,0 Z"
       transform="translate(670.771,194.03)"
       inkscape:connector-curvature="0" />
    <path
       style="fill:none;fill-rule:evenodd;stroke:#2d3e9f;stroke-width:1.70079005;stroke-linecap:butt;stroke-linejoin:miter;stroke-dasharray:none;stroke-opacity:1"
       d="M 0,0 H 287.713 V 399.713 H 0 Z"
       transform="translate(671.132,194.626)"
       id="path33"
       inkscape:connector-curvature="0" />
    <path
       inkscape:connector-curvature="0"
       id="path35"
       d="M 987.278,222.024 V 622.381"
       style="stroke:#2d3e9f;stroke-width:1.70079005;stroke-linecap:butt;stroke-linejoin:miter;stroke-dasharray:none;stroke-opacity:1" />
    <path
       inkscape:connector-curvature="0"
       id="path37"
       d="M 988.00799,621.56001 694.377,621.64713"
       style="stroke:#2d3e9f;stroke-width:1.70079005;stroke-linecap:butt;stroke-linejoin:miter;stroke-dasharray:none;stroke-opacity:1" />
    <use
       height="100%"
       width="100%"
       y="0"
       x="0"
       id="use40"
       transform="matrix(8.2,0,0,8.2,698.323,193.007)"
       xlink:href="#GlGlacialIndifference-Regular67"
       style="fill:#2d3e9f;stroke:none;fill-opacity:1" />
    <use
       height="100%"
       width="100%"
       y="0"
       x="0"
       id="use42"
       transform="matrix(8.2,0,0,8.2,758.101,193.007)"
       xlink:href="#GlGlacialIndifference-Regular111"
       style="fill:#2d3e9f;stroke:none;fill-opacity:1" />
    <use
       height="100%"
       width="100%"
       y="0"
       x="0"
       id="use44"
       transform="matrix(8.2,0,0,8.2,803.201,193.007)"
       xlink:href="#GlGlacialIndifference-Regular112"
       style="fill:#2d3e9f;stroke:none;fill-opacity:1" />
    <use
       height="100%"
       width="100%"
       y="0"
       x="0"
       id="use46"
       transform="matrix(8.2,0,0,8.2,849.941,193.007)"
       xlink:href="#GlGlacialIndifference-Regular121"
       style="fill:#2d3e9f;stroke:none;fill-opacity:1" />
    <use
       height="100%"
       width="100%"
       y="0"
       x="0"
       id="use48"
       transform="matrix(8.2,0,0,8.2,698.323,266.007)"
       xlink:href="#GlGlacialIndifference-Regular84"
       style="fill:#2d3e9f;stroke:none;fill-opacity:1" />
    <use
       height="100%"
       width="100%"
       y="0"
       x="0"
       id="use50"
       transform="matrix(8.2,0,0,8.2,734.403,266.007)"
       xlink:href="#GlGlacialIndifference-Regular104"
       style="fill:#2d3e9f;stroke:none;fill-opacity:1" />
    <use
       height="100%"
       width="100%"
       y="0"
       x="0"
       id="use52"
       transform="matrix(8.2,0,0,8.2,776.141,266.007)"
       xlink:href="#GlGlacialIndifference-Regular105"
       style="fill:#2d3e9f;stroke:none;fill-opacity:1" />
    <use
       height="100%"
       width="100%"
       y="0"
       x="0"
       id="use54"
       transform="matrix(8.2,0,0,8.2,794.919,266.007)"
       xlink:href="#GlGlacialIndifference-Regular115"
       style="fill:#2d3e9f;stroke:none;fill-opacity:1" />
    <use
       height="100%"
       width="100%"
       y="0"
       x="0"
       id="use56"
       transform="matrix(8.2,0,0,8.2,698.323,339.007)"
       xlink:href="#GlGlacialIndifference-Regular66"
       style="fill:#2d3e9f;stroke:none;fill-opacity:1" />
    <use
       height="100%"
       width="100%"
       y="0"
       x="0"
       id="use58"
       transform="matrix(8.2,0,0,8.2,742.521,339.007)"
       xlink:href="#GlGlacialIndifference-Regular111"
       style="fill:#2d3e9f;stroke:none;fill-opacity:1" />
    <use
       height="100%"
       width="100%"
       y="0"
       x="0"
       id="use60"
       transform="matrix(8.2,0,0,8.2,787.621,339.007)"
       xlink:href="#GlGlacialIndifference-Regular111"
       style="fill:#2d3e9f;stroke:none;fill-opacity:1" />
    <use
       height="100%"
       width="100%"
       y="0"
       x="0"
       id="use62"
       transform="matrix(8.2,0,0,8.2,832.721,339.007)"
       xlink:href="#GlGlacialIndifference-Regular107"
       style="fill:#2d3e9f;stroke:none;fill-opacity:1" />
    <path
       inkscape:connector-curvature="0"
       id="path64"
       d="m 698.323,218.509 h 210.76 v 226.729 h -210.76 z"
       style="fill:none;stroke:none" />
    <use
       height="100%"
       width="100%"
       y="0"
       x="0"
       id="use68"
       transform="matrix(2.3,0,0,2.3,697.352,450.649)"
       xlink:href="#GlGlacialIndifference-Regular65"
       style="fill:#2d3e9f;stroke:none;fill-opacity:1" />
    <use
       height="100%"
       width="100%"
       y="0"
       x="0"
       id="use70"
       transform="matrix(2.3,0,0,2.3,711.543,450.649)"
       xlink:href="#GlGlacialIndifference-Regular110"
       style="fill:#2d3e9f;stroke:none;fill-opacity:1" />
    <use
       height="100%"
       width="100%"
       y="0"
       x="0"
       id="use72"
       transform="matrix(2.3,0,0,2.3,729.46,450.649)"
       xlink:href="#GlGlacialIndifference-Regular97"
       style="fill:#2d3e9f;stroke:none;fill-opacity:1" />
    <use
       height="100%"
       width="100%"
       y="0"
       x="0"
       id="use74"
       transform="matrix(2.3,0,0,2.3,742.57,450.649)"
       xlink:href="#GlGlacialIndifference-Regular114"
       style="fill:#2d3e9f;stroke:none;fill-opacity:1" />
    <use
       height="100%"
       width="100%"
       y="0"
       x="0"
       id="use76"
       transform="matrix(2.3,0,0,2.3,749.723,450.649)"
       xlink:href="#GlGlacialIndifference-Regular116"
       style="fill:#2d3e9f;stroke:none;fill-opacity:1" />
    <use
       height="100%"
       width="100%"
       y="0"
       x="0"
       id="use78"
       transform="matrix(2.3,0,0,2.3,757.29,450.649)"
       xlink:href="#GlGlacialIndifference-Regular105"
       style="fill:#2d3e9f;stroke:none;fill-opacity:1" />
    <use
       height="100%"
       width="100%"
       y="0"
       x="0"
       id="use80"
       transform="matrix(2.3,0,0,2.3,762.557,450.649)"
       xlink:href="#GlGlacialIndifference-Regular115"
       style="fill:#2d3e9f;stroke:none;fill-opacity:1" />
    <use
       height="100%"
       width="100%"
       y="0"
       x="0"
       id="use82"
       transform="matrix(2.3,0,0,2.3,771.803,450.649)"
       xlink:href="#GlGlacialIndifference-Regular116"
       style="fill:#2d3e9f;stroke:none;fill-opacity:1" />
    <use
       height="100%"
       width="100%"
       y="0"
       x="0"
       id="use84"
       transform="matrix(2.3,0,0,2.3,779.37,450.649)"
       xlink:href="#GlGlacialIndifference-Regular8217"
       style="fill:#2d3e9f;stroke:none;fill-opacity:1" />
    <use
       height="100%"
       width="100%"
       y="0"
       x="0"
       id="use86"
       transform="matrix(2.3,0,0,2.3,784.062,450.649)"
       xlink:href="#GlGlacialIndifference-Regular115"
       style="fill:#2d3e9f;stroke:none;fill-opacity:1" />
    <use
       height="100%"
       width="100%"
       y="0"
       x="0"
       id="use88"
       transform="matrix(2.3,0,0,2.3,799.518,450.649)"
       xlink:href="#GlGlacialIndifference-Regular103"
       style="fill:#2d3e9f;stroke:none;fill-opacity:1" />
    <use
       height="100%"
       width="100%"
       y="0"
       x="0"
       id="use90"
       transform="matrix(2.3,0,0,2.3,812.766,450.649)"
       xlink:href="#GlGlacialIndifference-Regular117"
       style="fill:#2d3e9f;stroke:none;fill-opacity:1" />
    <use
       height="100%"
       width="100%"
       y="0"
       x="0"
       id="use92"
       transform="matrix(2.3,0,0,2.3,824.473,450.649)"
       xlink:href="#GlGlacialIndifference-Regular105"
       style="fill:#2d3e9f;stroke:none;fill-opacity:1" />
    <use
       height="100%"
       width="100%"
       y="0"
       x="0"
       id="use94"
       transform="matrix(2.3,0,0,2.3,829.74,450.649)"
       xlink:href="#GlGlacialIndifference-Regular100"
       style="fill:#2d3e9f;stroke:none;fill-opacity:1" />
    <use
       height="100%"
       width="100%"
       y="0"
       x="0"
       id="use96"
       transform="matrix(2.3,0,0,2.3,842.85,450.649)"
       xlink:href="#GlGlacialIndifference-Regular101"
       style="fill:#2d3e9f;stroke:none;fill-opacity:1" />
    <use
       height="100%"
       width="100%"
       y="0"
       x="0"
       id="use98"
       transform="matrix(2.3,0,0,2.3,697.352,472.649)"
       xlink:href="#GlGlacialIndifference-Regular116"
       style="fill:#2d3e9f;stroke:none;fill-opacity:1" />
    <use
       height="100%"
       width="100%"
       y="0"
       x="0"
       id="use100"
       transform="matrix(2.3,0,0,2.3,704.919,472.649)"
       xlink:href="#GlGlacialIndifference-Regular111"
       style="fill:#2d3e9f;stroke:none;fill-opacity:1" />
    <use
       height="100%"
       width="100%"
       y="0"
       x="0"
       id="use102"
       transform="matrix(2.3,0,0,2.3,723.779,472.649)"
       xlink:href="#GlGlacialIndifference-Regular99"
       style="fill:#2d3e9f;stroke:none;fill-opacity:1" />
    <use
       height="100%"
       width="100%"
       y="0"
       x="0"
       id="use104"
       transform="matrix(2.3,0,0,2.3,735.762,472.649)"
       xlink:href="#GlGlacialIndifference-Regular111"
       style="fill:#2d3e9f;stroke:none;fill-opacity:1" />
    <use
       height="100%"
       width="100%"
       y="0"
       x="0"
       id="use106"
       transform="matrix(2.3,0,0,2.3,748.412,472.649)"
       xlink:href="#GlGlacialIndifference-Regular112"
       style="fill:#2d3e9f;stroke:none;fill-opacity:1" />
    <use
       height="100%"
       width="100%"
       y="0"
       x="0"
       id="use108"
       transform="matrix(2.3,0,0,2.3,761.522,472.649)"
       xlink:href="#GlGlacialIndifference-Regular121"
       style="fill:#2d3e9f;stroke:none;fill-opacity:1" />
    <use
       height="100%"
       width="100%"
       y="0"
       x="0"
       id="use110"
       transform="matrix(2.3,0,0,2.3,771.297,472.649)"
       xlink:href="#GlGlacialIndifference-Regular114"
       style="fill:#2d3e9f;stroke:none;fill-opacity:1" />
    <use
       height="100%"
       width="100%"
       y="0"
       x="0"
       id="use112"
       transform="matrix(2.3,0,0,2.3,778.45,472.649)"
       xlink:href="#GlGlacialIndifference-Regular105"
       style="fill:#2d3e9f;stroke:none;fill-opacity:1" />
    <use
       height="100%"
       width="100%"
       y="0"
       x="0"
       id="use114"
       transform="matrix(2.3,0,0,2.3,783.717,472.649)"
       xlink:href="#GlGlacialIndifference-Regular103"
       style="fill:#2d3e9f;stroke:none;fill-opacity:1" />
    <use
       height="100%"
       width="100%"
       y="0"
       x="0"
       id="use116"
       transform="matrix(2.3,0,0,2.3,796.965,472.649)"
       xlink:href="#GlGlacialIndifference-Regular104"
       style="fill:#2d3e9f;stroke:none;fill-opacity:1" />
    <use
       height="100%"
       width="100%"
       y="0"
       x="0"
       id="use118"
       transform="matrix(2.3,0,0,2.3,808.672,472.649)"
       xlink:href="#GlGlacialIndifference-Regular116"
       style="fill:#2d3e9f;stroke:none;fill-opacity:1" />
    <path
       inkscape:connector-curvature="0"
       id="path120"
       d="m 697.352,456.389 h 161.16 v 62.0812 h -161.16 z"
       style="fill:none;stroke:none" />
    <use
       height="100%"
       width="100%"
       y="0"
       x="0"
       id="use124"
       transform="matrix(1.6,0,0,1.6,697.352,545.966)"
       xlink:href="#GlGlacialIndifference-Regular69"
       style="fill:#2d3e9f;stroke:none;fill-opacity:1" />
    <use
       height="100%"
       width="100%"
       y="0"
       x="0"
       id="use126"
       transform="matrix(1.6,0,0,1.6,706.216,545.966)"
       xlink:href="#GlGlacialIndifference-Regular114"
       style="fill:#2d3e9f;stroke:none;fill-opacity:1" />
    <use
       height="100%"
       width="100%"
       y="0"
       x="0"
       id="use128"
       transform="matrix(1.6,0,0,1.6,711.192,545.966)"
       xlink:href="#GlGlacialIndifference-Regular105"
       style="fill:#2d3e9f;stroke:none;fill-opacity:1" />
    <use
       height="100%"
       width="100%"
       y="0"
       x="0"
       id="use130"
       transform="matrix(1.6,0,0,1.6,714.856,545.966)"
       xlink:href="#GlGlacialIndifference-Regular99"
       style="fill:#2d3e9f;stroke:none;fill-opacity:1" />
    <use
       height="100%"
       width="100%"
       y="0"
       x="0"
       id="use132"
       transform="matrix(1.6,0,0,1.6,727.512,545.966)"
       xlink:href="#GlGlacialIndifference-Regular83"
       style="fill:#2d3e9f;stroke:none;fill-opacity:1" />
    <use
       height="100%"
       width="100%"
       y="0"
       x="0"
       id="use134"
       transform="matrix(1.6,0,0,1.6,736.696,545.966)"
       xlink:href="#GlGlacialIndifference-Regular99"
       style="fill:#2d3e9f;stroke:none;fill-opacity:1" />
    <use
       height="100%"
       width="100%"
       y="0"
       x="0"
       id="use136"
       transform="matrix(1.6,0,0,1.6,745.032,545.966)"
       xlink:href="#GlGlacialIndifference-Regular104"
       style="fill:#2d3e9f;stroke:none;fill-opacity:1" />
    <use
       height="100%"
       width="100%"
       y="0"
       x="0"
       id="use138"
       transform="matrix(1.6,0,0,1.6,753.176,545.966)"
       xlink:href="#GlGlacialIndifference-Regular114"
       style="fill:#2d3e9f;stroke:none;fill-opacity:1" />
    <use
       height="100%"
       width="100%"
       y="0"
       x="0"
       id="use140"
       transform="matrix(1.6,0,0,1.6,758.152,545.966)"
       xlink:href="#GlGlacialIndifference-Regular105"
       style="fill:#2d3e9f;stroke:none;fill-opacity:1" />
    <use
       height="100%"
       width="100%"
       y="0"
       x="0"
       id="use142"
       transform="matrix(1.6,0,0,1.6,761.816,545.966)"
       xlink:href="#GlGlacialIndifference-Regular106"
       style="fill:#2d3e9f;stroke:none;fill-opacity:1" />
    <use
       height="100%"
       width="100%"
       y="0"
       x="0"
       id="use144"
       transform="matrix(1.6,0,0,1.6,765.576,545.966)"
       xlink:href="#GlGlacialIndifference-Regular118"
       style="fill:#2d3e9f;stroke:none;fill-opacity:1" />
    <use
       height="100%"
       width="100%"
       y="0"
       x="0"
       id="use146"
       transform="matrix(1.6,0,0,1.6,772.376,545.966)"
       xlink:href="#GlGlacialIndifference-Regular101"
       style="fill:#2d3e9f;stroke:none;fill-opacity:1" />
    <use
       height="100%"
       width="100%"
       y="0"
       x="0"
       id="use148"
       transform="matrix(1.6,0,0,1.6,781.096,545.966)"
       xlink:href="#GlGlacialIndifference-Regular114"
       style="fill:#2d3e9f;stroke:none;fill-opacity:1" />
    <path
       inkscape:connector-curvature="0"
       id="path150"
       d="m 697.352,549.956 h 161.16 v 28.516 h -161.16 z"
       style="fill:none;stroke:none" />
    <path
       style="stroke:#2d3e9f;stroke-width:1.70079005;stroke-linecap:butt;stroke-linejoin:miter;stroke-dasharray:none;stroke-opacity:1"
       d="M 0,0 H 399.689"
       transform="rotate(90,382.293,587.667)"
       id="path154"
       inkscape:connector-curvature="0" />
    <path
       style="stroke:#2d3e9f;stroke-width:1.70079005;stroke-linecap:butt;stroke-linejoin:miter;stroke-dasharray:none;stroke-opacity:1"
       d="M 0,0 H 291.62"
       transform="rotate(180,485.345,302.121)"
       id="path156"
       inkscape:connector-curvature="0" />
    <path
       style="stroke:#2d3e9f;stroke-width:1.70079005;stroke-linecap:butt;stroke-linejoin:miter;stroke-dasharray:none;stroke-opacity:1"
       d="M 0,0 H 400.173"
       transform="rotate(89.9949,382.5075,596.10955)"
       id="path158"
       inkscape:connector-curvature="0" />
    <path
       style="stroke:#2d3e9f;stroke-width:1.70079005;stroke-linecap:butt;stroke-linejoin:miter;stroke-dasharray:none;stroke-opacity:1"
       d="M 0,0 H 293.004"
       transform="rotate(179.981,489.62369,306.53169)"
       id="path160"
       inkscape:connector-curvature="0" />
  </g>
</svg>
