<?xml version="1.0" encoding="UTF-8" standalone="no"?>
<svg width="88px" height="125px" viewBox="0 0 88 125" version="1.1" xmlns="http://www.w3.org/2000/svg" xmlns:xlink="http://www.w3.org/1999/xlink">
    <!-- Generator: Sketch 50.2 (55047) - http://www.bohemiancoding.com/sketch -->
    <title>logo</title>
    <desc>Created with Sketch.</desc>
    <defs></defs>
    <g id="logo" stroke="none" stroke-width="1" fill="none" fill-rule="evenodd">
        <path d="M2,21.0194432 C2,6.57494714 5.86318424,2 11.7867334,2 C17.7102826,2 21.5734668,6.57494714 21.5734668,21.0194432 C21.5734668,35.4639392 17.7102826,40.0388864 11.7867334,40.0388864 C5.86318424,40.0388864 2,35.4639392 2,21.0194432 Z M9.31429549,17.1641506 L9.31429549,24.8747357 C9.31429549,32.7909364 10.2414597,34.3844573 11.7867334,34.3844573 C13.3320071,34.3844573 14.2591713,32.7909364 14.2591713,24.8747357 L14.2591713,17.1641506 C14.2591713,9.24794997 13.3320071,7.65442905 11.7867334,7.65442905 C10.2414597,7.65442905 9.31429549,9.24794997 9.31429549,17.1641506 Z M25.1581424,39.3192318 L25.1581424,2.71965461 L31.6998011,2.71965461 L37.8293867,22.0475212 L37.932405,22.0475212 L37.932405,2.71965461 L43.2893538,2.71965461 L43.2893538,39.3192318 L38.0869323,39.3192318 L30.9271642,17.1641506 L30.824146,17.1641506 L30.824146,39.3192318 L25.1581424,39.3192318 Z M46.8740294,21.0194432 C46.8740294,6.57494714 50.7372136,2 56.6607628,2 C62.584312,2 66.4474962,6.57494714 66.4474962,21.0194432 C66.4474962,35.4639392 62.584312,40.0388864 56.6607628,40.0388864 C50.7372136,40.0388864 46.8740294,35.4639392 46.8740294,21.0194432 Z M54.1883249,17.1641506 L54.1883249,24.8747357 C54.1883249,32.7909364 55.1154891,34.3844573 56.6607628,34.3844573 C58.2060365,34.3844573 59.1332007,32.7909364 59.1332007,24.8747357 L59.1332007,17.1641506 C59.1332007,9.24794997 58.2060365,7.65442905 56.6607628,7.65442905 C55.1154891,7.65442905 54.1883249,9.24794997 54.1883249,17.1641506 Z M2.72112772,81.1596159 L2.72112772,44.5600387 L11.632206,44.5600387 L14.6197352,63.3224624 L14.7227534,63.3224624 L17.8648099,44.5600387 L26.5698518,44.5600387 L26.5698518,81.1596159 L20.5947935,81.1596159 L20.5947935,54.3267798 L20.4917752,54.3267798 L15.9589724,81.1596159 L12.2503155,81.1596159 L7.7690218,54.3267798 L7.66600355,54.3267798 L7.66600355,81.1596159 L2.72112772,81.1596159 Z M40.6623885,67.6917939 L38.7050418,50.2144678 L38.6020236,50.2144678 L36.4901495,67.6917939 L40.6623885,67.6917939 Z M29.2788723,81.1596159 L34.4297846,44.5600387 L44.1134998,44.5600387 L48.6463026,81.1596159 L42.2076622,81.1596159 L41.2289889,73.0377996 L35.8205309,73.0377996 L34.8933667,81.1596159 L29.2788723,81.1596159 Z M52.7975786,81.1596159 L52.7975786,50.2144678 L47.0285568,50.2144678 L47.0285568,44.5600387 L65.2627864,44.5600387 L65.2627864,50.2144678 L59.4937646,50.2144678 L59.4937646,81.1596159 L52.7975786,81.1596159 Z M66.4265332,62.8598273 C66.4265332,48.4153313 70.2897174,43.8403841 76.2132666,43.8403841 C82.1368158,43.8403841 86,48.4153313 86,62.8598273 C86,77.3043233 82.1368158,81.8792705 76.2132666,81.8792705 C70.2897174,81.8792705 66.4265332,77.3043233 66.4265332,62.8598273 Z M73.7408287,59.0045348 L73.7408287,66.7151198 C73.7408287,74.6313205 74.6679929,76.2248414 76.2132666,76.2248414 C77.7585403,76.2248414 78.6857045,74.6313205 78.6857045,66.7151198 L78.6857045,59.0045348 C78.6857045,51.0883341 77.7585403,49.4948132 76.2132666,49.4948132 C74.6679929,49.4948132 73.7408287,51.0883341 73.7408287,59.0045348 Z M9.72636848,92.0548519 L9.72636848,103.003883 L10.2929688,103.003883 C13.0229524,103.003883 14.5167169,101.924401 14.5167169,97.5036654 C14.5167169,92.2090636 12.456352,92.0548519 10.2414597,92.0548519 L9.72636848,92.0548519 Z M2.97867334,123 L2.97867334,86.4004228 L9.67485936,86.4004228 C17.2467005,86.4004228 21.2129029,89.433253 21.2129029,97.3494537 C21.2129029,103.929153 18.6374468,108.349888 12.3533338,108.349888 L9.67485936,108.349888 L9.67485936,123 L2.97867334,123 Z M23.5098505,123 L23.5098505,86.4004228 L38.6535327,86.4004228 L38.6535327,92.0548519 L30.2060365,92.0548519 L30.2060365,101.410362 L36.4386404,101.410362 L36.4386404,107.373214 L30.2060365,107.373214 L30.2060365,117.345571 L39.0140966,117.345571 L39.0140966,123 L23.5098505,123 Z M42.1351901,123 L42.1351901,86.4004228 L57.2788723,86.4004228 L57.2788723,92.0548519 L48.8313761,92.0548519 L48.8313761,101.410362 L55.06398,101.410362 L55.06398,107.373214 L48.8313761,107.373214 L48.8313761,117.345571 L57.6394361,117.345571 L57.6394361,123 L42.1351901,123 Z" id="ONO-MATO-PEE" fill="#FFFFFF"></path>
    </g>
</svg>