<?xml version="1.0" encoding="UTF-8" standalone="no"?>
<svg width="133px" height="70px" viewBox="0 0 133 70" version="1.1" xmlns="http://www.w3.org/2000/svg" xmlns:xlink="http://www.w3.org/1999/xlink">
    <!-- Generator: Sketch 50.2 (55047) - http://www.bohemiancoding.com/sketch -->
    <title>supp-logo__noord-brabant</title>
    <desc>Created with Sketch.</desc>
    <defs>
        <polygon id="path-1" points="0 16.1904762 130.785786 16.1904762 130.785786 0.127904762 0 0.127904762"></polygon>
    </defs>
    <g id="supp-logo__noord-brabant" stroke="none" stroke-width="1" fill="none" fill-rule="evenodd">
        <g id="Group-10" transform="translate(1.000000, 1.000000)">
            <g id="Group">
                <polygon id="Fill-1" fill="#FFFFFF" points="0 16.8723381 130.785786 16.8723381 130.785786 0.809766667 0 0.809766667"></polygon>
                <g id="Group-39" transform="translate(0.000000, 0.681862)">
                    <path d="M8.38177547,10.4171143 L9.89692642,10.4171143 L9.89692642,8.51635238 L10.7562535,8.51635238 C12.0786119,8.51635238 12.8209453,7.92459048 12.8209453,6.57187619 C12.8209453,5.2564 11.955027,4.68730476 10.7018761,4.68730476 L8.38177547,4.68730476 L8.38177547,10.4171143 Z M9.89692642,5.88701905 L10.1531591,5.88701905 C10.7405994,5.88701905 11.243178,5.89511429 11.243178,6.61720952 C11.243178,7.31582857 10.7018761,7.31582857 10.1531591,7.31582857 L9.89692642,7.31582857 L9.89692642,5.88701905 Z" id="Fill-2" fill="#000000"></path>
                    <path d="M14.9485006,7.15602857 L14.9641547,7.15602857 C15.2343937,6.67840952 15.699073,6.46550476 16.2477899,6.46550476 L16.5180289,6.46550476 L16.5180289,7.79474286 C16.3252365,7.68950476 16.1390352,7.66602857 15.9231736,7.66602857 C15.142117,7.66602857 14.9485006,8.17521905 14.9485006,8.84388571 L14.9485006,10.4167905 L13.5404566,10.4167905 L13.5404566,6.51812381 L14.9485006,6.51812381 L14.9485006,7.15602857 Z" id="Fill-4" fill="#000000"></path>
                    <path d="M19.0796145,6.3884381 C17.8042182,6.3884381 16.6903063,7.14129524 16.6903063,8.47053333 C16.6903063,9.80139048 17.8116333,10.5461524 19.0796145,10.5461524 C20.3558346,10.5461524 21.4697465,9.79410476 21.4697465,8.47053333 C21.4697465,7.14129524 20.3558346,6.3884381 19.0796145,6.3884381 M19.0796145,7.59058095 C19.6522245,7.59058095 19.9850799,7.99210476 19.9850799,8.47053333 C19.9850799,8.96677143 19.6522245,9.34562857 19.0796145,9.34562857 C18.5078283,9.34562857 18.174973,8.96677143 18.174973,8.47053333 C18.174973,7.99210476 18.5078283,7.59058095 19.0796145,7.59058095" id="Fill-6" fill="#000000"></path>
                    <polygon id="Fill-8" fill="#000000" points="24.1304472 8.51659524 25.0746358 6.51869048 26.6524031 6.51869048 24.5786484 10.4173571 23.6822459 10.4173571 21.6010761 6.51869048 23.1796673 6.51869048"></polygon>
                    <path d="M28.5705233,5.02115238 C28.5705233,5.44615238 28.2145987,5.79586667 27.7820516,5.79586667 C27.3486805,5.79586667 26.9919321,5.44615238 26.9919321,5.02115238 C26.9919321,4.59615238 27.3486805,4.24562857 27.7820516,4.24562857 C28.2145987,4.24562857 28.5705233,4.59615238 28.5705233,5.02115238 Z M27.0776176,10.4174381 L28.4848377,10.4174381 L28.4848377,6.51877143 L27.0776176,6.51877143 L27.0776176,10.4174381 Z" id="Fill-10" fill="#000000"></path>
                    <path d="M30.8986157,7.01970476 L30.9134459,7.01970476 C31.2388862,6.5485619 31.6327101,6.38827619 32.1830748,6.38827619 C33.2500245,6.38827619 33.6751566,7.05046667 33.6751566,8.00813333 L33.6751566,10.4172762 L32.2679365,10.4172762 L32.2679365,8.51651429 C32.2679365,8.14494286 32.328905,7.49084762 31.6327101,7.49084762 C31.0609239,7.49084762 30.8986157,7.9085619 30.8986157,8.39670476 L30.8986157,10.4172762 L29.4905717,10.4172762 L29.4905717,6.51860952 L30.8986157,6.51860952 L30.8986157,7.01970476 Z" id="Fill-12" fill="#000000"></path>
                    <path d="M37.5421283,7.7877 C37.3336818,7.63550952 37.0856881,7.51327143 36.816273,7.51327143 C36.2741472,7.51327143 35.8481912,7.92450952 35.8481912,8.46365238 C35.8481912,9.0254619 36.2584931,9.42131905 36.8385182,9.42131905 C37.0856881,9.42131905 37.355927,9.32255714 37.5421283,9.15498571 L37.5421283,10.3263667 C37.233166,10.4777476 36.8928956,10.5457476 36.5526252,10.5457476 C35.3769208,10.5457476 34.3948327,9.68765238 34.3948327,8.50898571 C34.3948327,7.25584286 35.3695057,6.38803333 36.6144176,6.38803333 C36.939034,6.38803333 37.2644742,6.46574762 37.5421283,6.61712857 L37.5421283,7.7877 Z" id="Fill-14" fill="#000000"></path>
                    <path d="M39.986473,5.02115238 C39.986473,5.44615238 39.6313723,5.79586667 39.1980013,5.79586667 C38.7646302,5.79586667 38.4087057,5.44615238 38.4087057,5.02115238 C38.4087057,4.59615238 38.7646302,4.24562857 39.1980013,4.24562857 C39.6313723,4.24562857 39.986473,4.59615238 39.986473,5.02115238 Z M38.4943912,10.4174381 L39.9016113,10.4174381 L39.9016113,6.51877143 L38.4943912,6.51877143 L38.4943912,10.4174381 Z" id="Fill-16" fill="#000000"></path>
                    <path d="M44.9830107,8.5561 C44.9830107,7.22443333 44.1871239,6.38819524 42.8095642,6.38819524 C41.5176899,6.38819524 40.6130484,7.17262381 40.6130484,8.4711 C40.6130484,9.8173381 41.5951365,10.5459095 42.9100799,10.5459095 C43.8155453,10.5459095 44.7045327,10.1273857 44.9294572,9.20857619 L43.5757906,9.20857619 C43.4208975,9.46762381 43.2033881,9.56557619 42.9026648,9.56557619 C42.3226396,9.56557619 42.0210925,9.26119524 42.0210925,8.69857619 L44.9830107,8.69857619 L44.9830107,8.5561 Z M42.0441616,7.90038571 C42.1290233,7.49805238 42.4692937,7.28595714 42.8795956,7.28595714 C43.2585893,7.28595714 43.6070987,7.52881429 43.6763063,7.90038571 L42.0441616,7.90038571 Z" id="Fill-18" fill="#000000"></path>
                    <polygon id="Fill-20" fill="#000000" points="48.463656 4.68714286 49.9788069 4.68714286 52.7569956 8.18914286 52.7718258 8.18914286 52.7718258 4.68714286 54.2878006 4.68714286 54.2878006 10.4169524 52.7718258 10.4169524 49.994461 6.90604762 49.9788069 6.90604762 49.9788069 10.4169524 48.463656 10.4169524"></polygon>
                    <path d="M57.5361887,6.3884381 C56.2599686,6.3884381 55.1460566,7.14129524 55.1460566,8.47053333 C55.1460566,9.80139048 56.2673836,10.5461524 57.5361887,10.5461524 C58.8124088,10.5461524 59.9263208,9.79410476 59.9263208,8.47053333 C59.9263208,7.14129524 58.8124088,6.3884381 57.5361887,6.3884381 M57.5361887,7.59058095 C58.1087987,7.59058095 58.4416541,7.99210476 58.4416541,8.47053333 C58.4416541,8.96677143 58.1087987,9.34562857 57.5361887,9.34562857 C56.9644025,9.34562857 56.6307233,8.96677143 56.6307233,8.47053333 C56.6307233,7.99210476 56.9644025,7.59058095 57.5361887,7.59058095" id="Fill-22" fill="#000000"></path>
                    <path d="M62.8505044,6.3884381 C61.5734604,6.3884381 60.4595484,7.14129524 60.4595484,8.47053333 C60.4595484,9.80139048 61.5816994,10.5461524 62.8505044,10.5461524 C64.1267245,10.5461524 65.2406365,9.79410476 65.2406365,8.47053333 C65.2406365,7.14129524 64.1267245,6.3884381 62.8505044,6.3884381 M62.8505044,7.59058095 C63.4222906,7.59058095 63.7551459,7.99210476 63.7551459,8.47053333 C63.7551459,8.96677143 63.4222906,9.34562857 62.8505044,9.34562857 C62.2778943,9.34562857 61.945039,8.96677143 61.945039,8.47053333 C61.945039,7.99210476 62.2778943,7.59058095 62.8505044,7.59058095" id="Fill-24" fill="#000000"></path>
                    <path d="M67.4760403,7.15602857 L67.4908704,7.15602857 C67.7627572,6.67840952 68.2257887,6.46550476 68.7745057,6.46550476 L69.0463925,6.46550476 L69.0463925,7.79474286 C68.8519522,7.68950476 68.6665748,7.66602857 68.4498893,7.66602857 C67.6688327,7.66602857 67.4760403,8.17521905 67.4760403,8.84388571 L67.4760403,10.4167905 L66.0679962,10.4167905 L66.0679962,6.51812381 L67.4760403,6.51812381 L67.4760403,7.15602857 Z" id="Fill-26" fill="#000000"></path>
                    <path d="M72.6351333,10.4171143 L74.0431774,10.4171143 L74.0431774,4.10930476 L72.6351333,4.10930476 L72.6351333,6.89811429 C72.3410013,6.55568571 71.8631396,6.38811429 71.4042277,6.38811429 C70.2293472,6.38811429 69.4186302,7.3474 69.4186302,8.46373333 C69.4186302,9.58087619 70.2458252,10.5458286 71.4198818,10.5458286 C71.8853849,10.5458286 72.3731333,10.3701619 72.6186553,9.98482857 L72.6351333,9.98482857 L72.6351333,10.4171143 Z M71.7758063,7.59106667 C72.3484164,7.59106667 72.6820956,7.99259048 72.6820956,8.47101905 C72.6820956,8.96644762 72.3484164,9.34611429 71.7758063,9.34611429 C71.2031962,9.34611429 70.869517,8.96644762 70.869517,8.47101905 C70.869517,7.99259048 71.2031962,7.59106667 71.7758063,7.59106667 Z" id="Fill-28" fill="#000000"></path>
                    <mask id="mask-2" fill="white">
                        <use xlink:href="#path-1"></use>
                    </mask>
                    <g id="Clip-31"></g>
                    <polygon id="Fill-30" fill="#000000" mask="url(#mask-2)" points="74.9872013 8.54938095 77.1968994 8.54938095 77.1968994 7.40795238 74.9872013 7.40795238"></polygon>
                    <path d="M79.6575572,6.93591905 L79.8281044,6.93591905 C80.2285195,6.93591905 80.6470604,6.86872857 80.6470604,6.38139524 C80.6470604,5.85682381 80.1757899,5.8260619 79.7671358,5.8260619 L79.6575572,5.8260619 L79.6575572,6.93591905 Z M78.1415824,10.4168714 L78.1415824,4.6870619 L80.3076138,4.6870619 C81.3440792,4.6870619 82.0394503,5.08210952 82.0394503,6.17658571 C82.0394503,6.69387143 81.8689031,7.11158571 81.3984566,7.34715714 L81.3984566,7.3625381 C82.2338906,7.46858571 82.5898151,8.02391905 82.5898151,8.8213 C82.5898151,10.0218238 81.5451107,10.4168714 80.478161,10.4168714 L78.1415824,10.4168714 Z M79.6575572,9.2770619 L79.8503497,9.2770619 C80.2993748,9.2770619 81.0573623,9.29972857 81.0573623,8.6683 C81.0573623,7.97777619 80.3076138,8.04739524 79.8116264,8.04739524 L79.6575572,8.04739524 L79.6575572,9.2770619 Z" id="Fill-32" fill="#000000" mask="url(#mask-2)"></path>
                    <path d="M84.8310686,7.15602857 L84.8475465,7.15602857 C85.1194333,6.67840952 85.5824648,6.46550476 86.1311818,6.46550476 L86.4014208,6.46550476 L86.4014208,7.79474286 C86.2086283,7.68950476 86.0216031,7.66602857 85.8065654,7.66602857 C85.0255088,7.66602857 84.8310686,8.17521905 84.8310686,8.84388571 L84.8310686,10.4167905 L83.4246723,10.4167905 L83.4246723,6.51812381 L84.8310686,6.51812381 L84.8310686,7.15602857 Z" id="Fill-33" fill="#000000" mask="url(#mask-2)"></path>
                    <path d="M91.3449818,6.51844762 L89.9369377,6.51844762 L89.9369377,6.89811429 C89.6428057,6.55568571 89.164944,6.38811429 88.7060321,6.38811429 C87.5311516,6.38811429 86.7204346,7.34659048 86.7204346,8.46373333 C86.7204346,9.58087619 87.5476296,10.5458286 88.7216862,10.5458286 C89.1871893,10.5458286 89.6732899,10.3701619 89.9204597,9.98482857 L89.9369377,9.98482857 L89.9369377,10.4171143 L91.3449818,10.4171143 L91.3449818,6.51844762 Z M89.0792585,7.59106667 C89.6502208,7.59106667 89.9839,7.99259048 89.9839,8.47101905 C89.9839,8.96644762 89.6502208,9.34611429 89.0792585,9.34611429 C88.5050006,9.34611429 88.1729692,8.96644762 88.1729692,8.47101905 C88.1729692,7.99259048 88.5050006,7.59106667 89.0792585,7.59106667 Z" id="Fill-34" fill="#000000" mask="url(#mask-2)"></path>
                    <path d="M92.3105094,10.4171143 L93.7185535,10.4171143 L93.7185535,9.98482857 L93.7350314,9.98482857 C93.9887925,10.3701619 94.4683019,10.5458286 94.933805,10.5458286 C96.1161006,10.5458286 96.9350566,9.58897143 96.9350566,8.46373333 C96.9350566,7.3474 96.1243396,6.38811429 94.9494591,6.38811429 C94.492195,6.38811429 94.0209245,6.55568571 93.7185535,6.89811429 L93.7185535,4.10930476 L92.3105094,4.10930476 L92.3105094,10.4171143 Z M94.5778805,7.59106667 C95.1504906,7.59106667 95.4841698,7.99259048 95.4841698,8.47101905 C95.4841698,8.96644762 95.1504906,9.34611429 94.5778805,9.34611429 C94.0052704,9.34611429 93.673239,8.96644762 93.673239,8.47101905 C93.673239,7.99259048 94.0052704,7.59106667 94.5778805,7.59106667 Z" id="Fill-35" fill="#000000" mask="url(#mask-2)"></path>
                    <path d="M102.049247,6.51844762 L100.642851,6.51844762 L100.642851,6.89811429 C100.348719,6.55568571 99.8692094,6.38811429 99.4119453,6.38811429 C98.235417,6.38811429 97.4247,7.34659048 97.4247,8.46373333 C97.4247,9.58087619 98.251895,10.5458286 99.4259516,10.5458286 C99.8914547,10.5458286 100.379203,10.3701619 100.626373,9.98482857 L100.642851,9.98482857 L100.642851,10.4171143 L102.049247,10.4171143 L102.049247,6.51844762 Z M99.7818761,7.59106667 C100.354486,7.59106667 100.688165,7.99259048 100.688165,8.47101905 C100.688165,8.96644762 100.354486,9.34611429 99.7818761,9.34611429 C99.2109138,9.34611429 98.8772346,8.96644762 98.8772346,8.47101905 C98.8772346,7.99259048 99.2109138,7.59106667 99.7818761,7.59106667 Z" id="Fill-36" fill="#000000" mask="url(#mask-2)"></path>
                    <path d="M104.471099,7.01970476 L104.48593,7.01970476 C104.810546,6.5485619 105.205194,6.38827619 105.753911,6.38827619 C106.822508,6.38827619 107.246816,7.05046667 107.246816,8.00813333 L107.246816,10.4172762 L105.838772,10.4172762 L105.838772,8.51651429 C105.838772,8.14494286 105.899741,7.49084762 105.205194,7.49084762 C104.63176,7.49084762 104.471099,7.9085619 104.471099,8.39670476 L104.471099,10.4172762 L103.063055,10.4172762 L103.063055,6.51860952 L104.471099,6.51860952 L104.471099,7.01970476 Z" id="Fill-37" fill="#000000" mask="url(#mask-2)"></path>
                    <polygon id="Fill-38" fill="#000000" mask="url(#mask-2)" points="109.791018 10.4171143 108.384621 10.4171143 108.384621 7.65825714 107.927357 7.65825714 107.927357 6.51844762 108.384621 6.51844762 108.384621 5.34787619 109.791018 5.34787619 109.791018 6.51844762 110.587728 6.51844762 110.587728 7.65825714 109.791018 7.65825714"></polygon>
                </g>
            </g>
        </g>
    </g>
</svg>