<?xml version="1.0" encoding="UTF-8" standalone="no"?>
<svg width="46px" height="70px" viewBox="0 0 46 70" version="1.1" xmlns="http://www.w3.org/2000/svg" xmlns:xlink="http://www.w3.org/1999/xlink">
    <!-- Generator: Sketch 50.2 (55047) - http://www.bohemiancoding.com/sketch -->
    <title>supp-logo__mondriaan</title>
    <desc>Created with Sketch.</desc>
    <defs>
        <polygon id="path-1" points="0 64 42.8196098 64 42.8196098 0.0973763441 0 0.0973763441"></polygon>
    </defs>
    <g id="supp-logo__mondriaan" stroke="none" stroke-width="1" fill="none" fill-rule="evenodd">
        <g id="Group-21-Copy" transform="translate(1.000000, 1.000000)">
            <g id="Page-1">
                <polygon id="Fill-1" fill="#FFFFFF" points="32.3144533 0 21.7263322 28.0152104 11.1949263 0 1.34375 0 1.34375 39.3333333 8.42046306 39.3333333 8.42046306 10.9287831 18.782428 38.7779718 24.1612091 38.7779718 34.5795369 11.2618619 34.5795369 39.3333333 41.65625 39.3333333 41.65625 0"></polygon>
                <g id="Group-8">
                    <path d="M7.32181626,51.8345634 L7.32181626,48.9893161 C7.32181626,48.1136172 6.84427154,47.5145634 5.92973496,47.5145634 C5.35360488,47.5145634 4.89214146,47.7654022 4.63693821,48.2030796 C4.42298699,47.7733161 4.01081626,47.5145634 3.40986504,47.5145634 C2.84142602,47.5145634 2.42960488,47.7894882 2.19083252,48.1789935 L2.10832846,47.6195097 L1.2514748,47.6195097 L1.2514748,51.8345634 L2.27298699,51.8345634 L2.27298699,49.5322839 C2.27298699,49.0054882 2.53658049,48.3978323 3.12145041,48.3978323 C3.64059675,48.3978323 3.78043415,48.6971871 3.78043415,49.2164129 L3.78043415,51.8345634 L4.80194634,51.8345634 L4.80194634,49.5322839 C4.80194634,49.0054882 5.05714959,48.3978323 5.64166992,48.3978323 C6.16046667,48.3978323 6.30065366,48.6971871 6.30065366,49.2164129 L6.30065366,51.8345634 L7.32181626,51.8345634 Z M12.247239,49.7266925 C12.247239,49.0134022 12.0658,48.5678108 11.7448732,48.1703914 C11.4480683,47.8139183 10.8964098,47.5145634 10.2458163,47.5145634 C9.59487317,47.5145634 9.04356423,47.8139183 8.74710894,48.1703914 C8.42548293,48.5678108 8.2440439,49.0134022 8.2440439,49.7266925 C8.2440439,50.4399828 8.42548293,50.8859183 8.74710894,51.2833376 C9.04356423,51.6398108 9.59487317,51.9405419 10.2458163,51.9405419 C10.8964098,51.9405419 11.4480683,51.6398108 11.7448732,51.2833376 C12.0658,50.8859183 12.247239,50.4399828 12.247239,49.7266925 Z M11.2009057,49.7266925 C11.2009057,50.1241118 11.1435724,50.5215312 10.8964098,50.788886 C10.7562228,50.9347785 10.5258407,51.0565849 10.2458163,51.0565849 C9.96579187,51.0565849 9.73506016,50.9347785 9.59487317,50.788886 C9.34840976,50.5215312 9.29002764,50.1241118 9.29002764,49.7266925 C9.29002764,49.3299613 9.34840976,48.932886 9.59487317,48.664843 C9.73506016,48.5192946 9.96579187,48.3978323 10.2458163,48.3978323 C10.5258407,48.3978323 10.7562228,48.5192946 10.8964098,48.664843 C11.1435724,48.932886 11.2009057,49.3299613 11.2009057,49.7266925 Z M16.8838976,51.8345634 L16.8838976,49.0220043 C16.8838976,48.1459613 16.3483203,47.5145634 15.4344829,47.5145634 C14.9405073,47.5145634 14.4294016,47.7165419 14.174548,48.1621333 L14.1000846,47.6195097 L13.2351902,47.6195097 L13.2351902,51.8345634 L14.2647431,51.8345634 L14.2647431,50.1161978 C14.2647431,49.7597247 14.2567024,49.3217032 14.4049301,48.9893161 C14.5451171,48.6813591 14.7838894,48.4539183 15.1460683,48.4539183 C15.6900358,48.4539183 15.8546943,48.7539613 15.8546943,49.248757 L15.8546943,51.8345634 L16.8838976,51.8345634 Z M21.7677187,51.8345634 L21.7677187,45.9816602 L20.7381659,45.9816602 L20.7381659,47.9112946 C20.557426,47.6921118 20.1616862,47.5145634 19.6187675,47.5145634 C19.1821252,47.5145634 18.8360276,47.6439398 18.5720846,47.8541763 C18.061678,48.2674237 17.8064748,48.9084559 17.8064748,49.7349505 C17.8064748,50.5297892 18.0536374,51.1618753 18.5640439,51.5751226 C18.8276374,51.7860473 19.1821252,51.9319398 19.6103772,51.9319398 C20.0795317,51.9319398 20.557426,51.7619613 20.8126293,51.3728 L20.8783528,51.8345634 L21.7677187,51.8345634 Z M20.7881577,49.7184344 C20.7881577,50.3271226 20.6231496,51.080671 19.8159382,51.080671 C19.4950114,51.080671 19.2723203,50.9347785 19.1240927,50.7482839 C18.9101415,50.4730151 18.8524585,50.0838538 18.8524585,49.7184344 C18.8524585,49.3543914 18.9101415,48.9728 19.1240927,48.6971871 C19.2723203,48.5110366 19.4950114,48.3654882 19.8159382,48.3654882 C20.6231496,48.3654882 20.7881577,49.1111226 20.7881577,49.7184344 Z M25.5485724,48.5595527 L25.5485724,47.5868215 C25.4412472,47.5706495 25.3342715,47.5627355 25.2272959,47.5627355 C24.7242309,47.5627355 24.214174,47.7654022 24.0170033,48.2515957 L23.9257593,47.6195097 L23.0528244,47.6195097 L23.0528244,51.8345634 L24.0904179,51.8345634 L24.0904179,49.7108645 C24.0904179,49.0292301 24.4693772,48.5192946 25.1944341,48.5192946 C25.3094504,48.5192946 25.4328569,48.5351226 25.5485724,48.5595527 Z M26.289361,47.0355957 L27.3930276,47.0355957 L27.3930276,45.9899183 L26.289361,45.9899183 L26.289361,47.0355957 Z M26.3222228,51.8345634 L27.3682065,51.8345634 L27.3682065,47.6195097 L26.3222228,47.6195097 L26.3222228,51.8345634 Z M32.3925642,51.7860473 L32.3925642,51.0400688 C32.3925642,51.0400688 32.3268407,51.0565849 32.2611171,51.0565849 C32.0877187,51.0565849 32.0216455,50.9829505 32.0216455,50.788886 L32.0216455,49.2243269 C32.0216455,48.9408 32.0055642,48.6411011 31.898239,48.3734022 C31.651426,47.740972 31.0253041,47.5145634 30.2922065,47.5145634 C29.3371171,47.5145634 28.5708081,47.9353806 28.5134748,48.8833376 L29.5101659,48.8833376 C29.5346374,48.4948645 29.8146618,48.2839398 30.2922065,48.2839398 C30.8770764,48.2839398 31.0169138,48.5516387 31.0169138,48.9490581 L31.0169138,49.2081548 L29.7569789,49.296929 C28.9413772,49.3543914 28.3075642,49.8161548 28.3075642,50.6189075 C28.3075642,51.3081118 28.8344016,51.9405419 29.8555642,51.9405419 C30.4649057,51.9405419 30.9599301,51.6484129 31.1574504,51.3081118 C31.1899626,51.6239828 31.4371252,51.8992516 31.8818081,51.8992516 C32.1289707,51.8992516 32.2195154,51.8589935 32.3925642,51.7860473 Z M31.0169138,50.1564559 C31.0169138,50.780972 30.5641902,51.1212731 29.9216374,51.1212731 C29.600361,51.1212731 29.3126455,50.9189505 29.3126455,50.5944774 C29.3126455,50.2541763 29.6171415,50.0676817 29.929678,50.0432516 L31.0169138,49.9623914 L31.0169138,50.1564559 Z M37.0215317,51.7860473 L37.0215317,51.0400688 C37.0215317,51.0400688 36.9551089,51.0565849 36.8893854,51.0565849 C36.7163366,51.0565849 36.6509626,50.9829505 36.6509626,50.788886 L36.6509626,49.2243269 C36.6509626,48.9408 36.6345317,48.6411011 36.5275561,48.3734022 C36.2796943,47.740972 35.653922,47.5145634 34.9215236,47.5145634 C33.9653854,47.5145634 33.1997756,47.9353806 33.1424423,48.8833376 L34.1384341,48.8833376 C34.1636049,48.4948645 34.4436293,48.2839398 34.9215236,48.2839398 C35.5060439,48.2839398 35.6458813,48.5516387 35.6458813,48.9490581 L35.6458813,49.2081548 L34.3855967,49.296929 C33.5706943,49.3543914 32.9358325,49.8161548 32.9358325,50.6189075 C32.9358325,51.3081118 33.4630195,51.9405419 34.4845317,51.9405419 C35.0942228,51.9405419 35.5881984,51.6484129 35.7857187,51.3081118 C35.8189301,51.6239828 36.0664423,51.8992516 36.510426,51.8992516 C36.7575886,51.8992516 36.8481333,51.8589935 37.0215317,51.7860473 Z M35.6458813,50.1564559 C35.6458813,50.780972 35.1924585,51.1212731 34.5502553,51.1212731 C34.2289789,51.1212731 33.9412634,50.9189505 33.9412634,50.5944774 C33.9412634,50.2541763 34.2454098,50.0676817 34.5586455,50.0432516 L35.6458813,49.9623914 L35.6458813,50.1564559 Z M41.5679951,51.8345634 L41.5679951,49.0220043 C41.5679951,48.1459613 41.0327675,47.5145634 40.1175317,47.5145634 C39.6235561,47.5145634 39.1128,47.7165419 38.8582959,48.1621333 L38.7834829,47.6195097 L37.9189382,47.6195097 L37.9189382,51.8345634 L38.9484911,51.8345634 L38.9484911,50.1161978 C38.9484911,49.7597247 38.9401008,49.3217032 39.088678,48.9893161 C39.2285154,48.6813591 39.4672878,48.4539183 39.8294667,48.4539183 C40.3734341,48.4539183 40.5380927,48.7539613 40.5380927,49.248757 L40.5380927,51.8345634 L41.5679951,51.8345634 Z" id="Fill-2" fill="#FFFFFF"></path>
                    <mask id="mask-2" fill="white">
                        <use xlink:href="#path-1"></use>
                    </mask>
                    <g id="Clip-5"></g>
                    <polygon id="Fill-4" fill="#FFFFFF" mask="url(#mask-2)" points="0 53.7410753 42.8196098 53.7410753 42.8196098 52.8887742 0 52.8887742"></polygon>
                    <polygon id="Fill-6" fill="#FFFFFF" mask="url(#mask-2)" points="11.7281626 64 31.5868211 64 31.5868211 63.1476989 11.7281626 63.1476989"></polygon>
                    <path d="M28.8875398,59.8372473 C28.8875398,60.4455914 28.7228813,61.199828 27.9153203,61.199828 C27.5936943,61.199828 27.3713528,61.0535914 27.2227756,60.8670968 C27.0088244,60.5914839 26.9511415,60.2019785 26.9511415,59.8372473 C26.9511415,59.472172 27.0088244,59.0909247 27.2227756,58.8153118 C27.3713528,58.6288172 27.5936943,58.4829247 27.9153203,58.4829247 C28.7228813,58.4829247 28.8875398,59.2289032 28.8875398,59.8372473 Z M29.8667512,61.9526882 L29.8667512,56.100129 L28.8382472,56.100129 L28.8382472,58.0294194 C28.6568081,57.8105806 28.2614179,57.6323441 27.7174504,57.6323441 C27.2808081,57.6323441 26.934361,57.7620645 26.6711171,57.9726452 C26.1610602,58.3855484 25.9058569,59.0262366 25.9058569,59.8534194 C25.9058569,60.6482581 26.1526699,61.2806882 26.6630764,61.6935914 C26.9263203,61.904172 27.2808081,62.0500645 27.7090602,62.0500645 C28.1789138,62.0500645 28.6568081,61.8797419 28.912361,61.4912688 L28.9780846,61.9526882 L29.8667512,61.9526882 Z M25.0039057,61.9526882 L25.0039057,59.1394409 C25.0039057,58.264086 24.4690276,57.6323441 23.5548407,57.6323441 C23.0605154,57.6323441 22.5494098,57.8350108 22.2938569,58.2802581 L22.2200927,57.7379785 L21.3558976,57.7379785 L21.3558976,61.9526882 L22.3844016,61.9526882 L22.3844016,60.2343226 C22.3844016,59.8778495 22.376361,59.440172 22.5245886,59.1077849 C22.6647756,58.7987957 22.9038976,58.572043 23.266426,58.572043 C23.8103935,58.572043 23.9754016,58.8717419 23.9754016,59.3665376 L23.9754016,61.9526882 L25.0039057,61.9526882 Z M20.1672797,61.9526882 L20.1672797,57.7379785 L19.138426,57.7379785 L19.138426,59.9669677 C19.138426,60.3072688 19.0727024,60.688172 18.8255398,60.9152688 C18.7017837,61.0374194 18.5367756,61.1265376 18.2980033,61.1265376 C17.7540358,61.1265376 17.5561659,60.8185806 17.5561659,60.324129 L17.5561659,57.7379785 L16.5273122,57.7379785 L16.5273122,60.5512258 C16.5273122,61.4506667 17.0954016,62.0579785 18.009239,62.0579785 C18.5532065,62.0579785 19.0314504,61.8150538 19.237361,61.4021505 L19.3114748,61.9526882 L20.1672797,61.9526882 Z M15.9417431,56.9018495 L15.9417431,56.0922151 C15.6204667,56.0271828 15.430987,56.0030968 15.1345317,56.0030968 C14.2123041,56.0030968 13.677426,56.5536344 13.677426,57.331957 L13.677426,57.7379785 L12.9527187,57.7379785 L12.9527187,58.572043 L13.677426,58.572043 L13.677426,61.9526882 L14.7059301,61.9526882 L14.7059301,58.572043 L15.8508488,58.572043 L15.8508488,57.7379785 L14.7059301,57.7379785 L14.7059301,57.3484731 C14.7059301,57.048086 14.8954098,56.8371613 15.2663285,56.8371613 C15.5379626,56.8371613 15.7274423,56.8612473 15.9417431,56.9018495 Z" id="Fill-7" fill="#FFFFFF" mask="url(#mask-2)"></path>
                </g>
            </g>
        </g>
    </g>
</svg>